<mxfile modified="2023-09-22T20:02:10.360Z" host="app.diagrams.net" agent="Mozilla/5.0 (Windows NT 10.0; Win64; x64; rv:109.0) Gecko/20100101 Firefox/117.0" etag="9uVzJw3n5i30ydPFTm7M" version="21.8.0" type="device" pages="2">
  <diagram id="WI9T0HZ2pTsCkuznbFz-" name="Virtual Machine Scale Set">
    <mxGraphModel dx="1095" dy="2163" grid="1" gridSize="10" guides="1" tooltips="1" connect="1" arrows="1" fold="1" page="1" pageScale="1" pageWidth="827" pageHeight="1169" math="0" shadow="0">
      <root>
        <mxCell id="0" />
        <mxCell id="1" parent="0" />
        <mxCell id="l2tFHLuRy4FP07dyS6jG-63" value="" style="rounded=1;whiteSpace=wrap;html=1;" vertex="1" parent="1">
          <mxGeometry x="8.87" y="-120" width="881.13" height="280" as="geometry" />
        </mxCell>
        <mxCell id="AcxdMaKK0mU5kZiv2lnr-46" style="edgeStyle=elbowEdgeStyle;rounded=0;orthogonalLoop=1;jettySize=auto;elbow=vertical;html=1;strokeColor=#808080;entryX=0.01;entryY=0.513;entryDx=0;entryDy=0;entryPerimeter=0;fontSize=13;" parent="1" source="l2tFHLuRy4FP07dyS6jG-9" target="l2tFHLuRy4FP07dyS6jG-11" edge="1">
          <mxGeometry relative="1" as="geometry">
            <mxPoint x="454.76" y="70" as="targetPoint" />
            <Array as="points" />
          </mxGeometry>
        </mxCell>
        <mxCell id="AcxdMaKK0mU5kZiv2lnr-36" value="" style="aspect=fixed;html=1;perimeter=none;align=center;shadow=0;dashed=0;image;fontSize=13;image=img/lib/mscae/VM_Scale_Set.svg;labelBackgroundColor=#ffffff;spacingTop=4;" parent="1" vertex="1">
          <mxGeometry x="817.75" y="56.75" width="32.25" height="32.25" as="geometry" />
        </mxCell>
        <mxCell id="l2tFHLuRy4FP07dyS6jG-1" value="" style="image;aspect=fixed;html=1;points=[];align=center;fontSize=13;image=img/lib/azure2/identity/Azure_Active_Directory.svg;" vertex="1" parent="1">
          <mxGeometry x="164.76" y="54" width="40.47" height="37" as="geometry" />
        </mxCell>
        <mxCell id="l2tFHLuRy4FP07dyS6jG-2" value="Microsoft Azure" style="text;html=1;align=center;verticalAlign=middle;resizable=0;points=[];autosize=1;strokeColor=none;fillColor=none;fontSize=13;" vertex="1" parent="1">
          <mxGeometry x="129.99" y="82" width="110" height="30" as="geometry" />
        </mxCell>
        <mxCell id="l2tFHLuRy4FP07dyS6jG-6" value="" style="edgeStyle=elbowEdgeStyle;rounded=0;orthogonalLoop=1;jettySize=auto;elbow=vertical;html=1;strokeColor=#808080;fontSize=13;" edge="1" parent="1">
          <mxGeometry relative="1" as="geometry">
            <mxPoint x="80" y="72" as="sourcePoint" />
            <mxPoint x="164.76" y="72" as="targetPoint" />
          </mxGeometry>
        </mxCell>
        <mxCell id="l2tFHLuRy4FP07dyS6jG-25" style="edgeStyle=orthogonalEdgeStyle;rounded=0;orthogonalLoop=1;jettySize=auto;html=1;fontSize=13;" edge="1" parent="1" source="l2tFHLuRy4FP07dyS6jG-29" target="l2tFHLuRy4FP07dyS6jG-21">
          <mxGeometry relative="1" as="geometry">
            <mxPoint x="590" y="72" as="targetPoint" />
          </mxGeometry>
        </mxCell>
        <mxCell id="l2tFHLuRy4FP07dyS6jG-10" value="" style="shape=image;verticalLabelPosition=bottom;labelBackgroundColor=#ffffff;verticalAlign=top;aspect=fixed;imageAspect=0;image=data:image/svg+xml,PHN2ZyB4bWxuczpjYz0iaHR0cDovL2NyZWF0aXZlY29tbW9ucy5vcmcvbnMjIiB4bWxuczpkYz0iaHR0cDovL3B1cmwub3JnL2RjL2VsZW1lbnRzLzEuMS8iIHhtbG5zOmlua3NjYXBlPSJodHRwOi8vd3d3Lmlua3NjYXBlLm9yZy9uYW1lc3BhY2VzL2lua3NjYXBlIiB4bWxuczpyZGY9Imh0dHA6Ly93d3cudzMub3JnLzE5OTkvMDIvMjItcmRmLXN5bnRheC1ucyMiIHhtbG5zOnNvZGlwb2RpPSJodHRwOi8vc29kaXBvZGkuc291cmNlZm9yZ2UubmV0L0RURC9zb2RpcG9kaS0wLmR0ZCIgeG1sbnM6c3ZnPSJodHRwOi8vd3d3LnczLm9yZy8yMDAwL3N2ZyIgeG1sbnM9Imh0dHA6Ly93d3cudzMub3JnLzIwMDAvc3ZnIiB4bWxuczp4bGluaz0iaHR0cDovL3d3dy53My5vcmcvMTk5OS94bGluayIgdmVyc2lvbj0iMS4xIiBpZD0ic3ZnMjY1OSIgaW5rc2NhcGU6dmVyc2lvbj0iMC45Mi4zICgyNDA1NTQ2LCAyMDE4LTAzLTExKSIgc29kaXBvZGk6ZG9jbmFtZT0ic3VibmV0cy5zdmciIHg9IjBweCIgeT0iMHB4IiB2aWV3Qm94PSIwIDAgMzQuODQgMjEuNjEiIHN0eWxlPSJlbmFibGUtYmFja2dyb3VuZDpuZXcgMCAwIDM0Ljg0IDIxLjYxOyIgeG1sOnNwYWNlPSJwcmVzZXJ2ZSI+JiN4YTs8c29kaXBvZGk6bmFtZWR2aWV3IGJvcmRlcmNvbG9yPSIjNjY2NjY2IiBib3JkZXJvcGFjaXR5PSIxIiBmaXQtbWFyZ2luLWJvdHRvbT0iMCIgZml0LW1hcmdpbi1sZWZ0PSIwIiBmaXQtbWFyZ2luLXJpZ2h0PSIwIiBmaXQtbWFyZ2luLXRvcD0iMCIgZ3JpZHRvbGVyYW5jZT0iMTAiIGd1aWRldG9sZXJhbmNlPSIxMCIgaWQ9Im5hbWVkdmlldzI2NjEiIGlua3NjYXBlOmN1cnJlbnQtbGF5ZXI9InN2ZzI2NTkiIGlua3NjYXBlOmN4PSIyMy4yMjU5OTEiIGlua3NjYXBlOmN5PSIxNC40MDc5OTQiIGlua3NjYXBlOnBhZ2VvcGFjaXR5PSIwIiBpbmtzY2FwZTpwYWdlc2hhZG93PSIyIiBpbmtzY2FwZTp3aW5kb3ctaGVpZ2h0PSIxMDE3IiBpbmtzY2FwZTp3aW5kb3ctbWF4aW1pemVkPSIxIiBpbmtzY2FwZTp3aW5kb3ctd2lkdGg9IjE5MjAiIGlua3NjYXBlOndpbmRvdy14PSItOCIgaW5rc2NhcGU6d2luZG93LXk9Ii04IiBpbmtzY2FwZTp6b29tPSIzMC4wOTMwMzMiIG9iamVjdHRvbGVyYW5jZT0iMTAiIHBhZ2Vjb2xvcj0iI2ZmZmZmZiIgc2hvd2dyaWQ9ImZhbHNlIj4mI3hhOwk8L3NvZGlwb2RpOm5hbWVkdmlldz4mI3hhOzxnIGlkPSJnMjY1NyIgdHJhbnNmb3JtPSJ0cmFuc2xhdGUoLTQuMjMzMTc0OWUtNSkiPiYjeGE7CTx0aXRsZSBpZD0idGl0bGUyNjM3Ij5QYWdlLTE8L3RpdGxlPiYjeGE7CTxnIGlkPSJncm91cDk1MjItMSI+JiN4YTsJCTx0aXRsZSBpZD0idGl0bGUyNjM5Ij5TdWJuZXRzPC90aXRsZT4mI3hhOwkJPGcgaWQ9InNoYXBlOTUyMy0yIiB0cmFuc2Zvcm09InRyYW5zbGF0ZSgyMi42MTMpIj4mI3hhOwkJCTx0aXRsZSBpZD0idGl0bGUyNjQxIj5TaGVldC45NTIzPC90aXRsZT4mI3hhOwkJCTxwYXRoIGlkPSJwYXRoMjY0MyIgaW5rc2NhcGU6Y29ubmVjdG9yLWN1cnZhdHVyZT0iMCIgc3R5bGU9ImZpbGw6IzM5OTlDNjsiIGQ9Ik0xMi4yMywxMC42OEw5Ljg0LDguMjlMMS4zOSwwTDAsMS4yNmw5LjU4LDkuNDIgICAgIEwwLDIwLjM1bDEuMzksMS4yNmw4LjQ1LTguM0wxMi4yMywxMC42OHoiLz4mI3hhOwkJPC9nPiYjeGE7CQk8ZyBpZD0ic2hhcGU5NTI0LTQiPiYjeGE7CQkJPHRpdGxlIGlkPSJ0aXRsZTI2NDYiPlNoZWV0Ljk1MjQ8L3RpdGxlPiYjeGE7CQkJPHBhdGggaWQ9InBhdGgyNjQ4IiBpbmtzY2FwZTpjb25uZWN0b3ItY3VydmF0dXJlPSIwIiBzdHlsZT0iZmlsbDojMzk5OUM2OyIgZD0iTTAsMTAuNjhsMi4zOS0yLjM5TDEwLjg0LDBsMS4zOSwxLjI2bC05LjU4LDkuNDIgICAgIGw5LjU4LDkuNjdsLTEuMzksMS4yNmwtOC40NS04LjNMMCwxMC42OHoiLz4mI3hhOwkJPC9nPiYjeGE7CQk8ZyBpZD0ic2hhcGU5NTI1LTYiIHRyYW5zZm9ybT0idHJhbnNsYXRlKDE0Ljg2ODUsLTguNTMxOTcpIj4mI3hhOwkJCTx0aXRsZSBpZD0idGl0bGUyNjUxIj5TaGVldC45NTI1PC90aXRsZT4mI3hhOwkJCTxwYXRoIGlkPSJwYXRoMjY1MyIgaW5rc2NhcGU6Y29ubmVjdG9yLWN1cnZhdHVyZT0iMCIgc3R5bGU9ImZpbGw6IzdGQkEwMDsiIGQ9Ik00LjkxLDE5LjIxYzAsMS4zOC0xLjEzLDIuNC0yLjM5LDIuNCAgICAgUzAsMjAuNDYsMCwxOS4yMWMwLTEuMjYsMS4xMy0yLjM4LDIuNTItMi4zOFM0LjkxLDE3Ljk1LDQuOTEsMTkuMjF6Ii8+JiN4YTsJCTwvZz4mI3hhOwk8L2c+JiN4YTs8L2c+JiN4YTs8L3N2Zz4=;fontSize=13;" vertex="1" parent="1">
          <mxGeometry x="511.45000000000005" y="57.9" width="44.55" height="28" as="geometry" />
        </mxCell>
        <mxCell id="l2tFHLuRy4FP07dyS6jG-11" value="" style="image;aspect=fixed;html=1;points=[];align=center;fontSize=13;image=img/lib/azure2/networking/Virtual_Networks.svg;" vertex="1" parent="1">
          <mxGeometry x="390" y="58.58" width="46.64" height="27.84" as="geometry" />
        </mxCell>
        <mxCell id="l2tFHLuRy4FP07dyS6jG-12" value="" style="edgeStyle=elbowEdgeStyle;rounded=0;orthogonalLoop=1;jettySize=auto;elbow=vertical;html=1;strokeColor=#808080;entryX=-0.124;entryY=0.511;entryDx=0;entryDy=0;entryPerimeter=0;fontSize=13;" edge="1" parent="1">
          <mxGeometry relative="1" as="geometry">
            <mxPoint x="209.24" y="72.31" as="sourcePoint" />
            <mxPoint x="274.75988000000007" y="72.68400000000003" as="targetPoint" />
            <Array as="points">
              <mxPoint x="259.24" y="72.31" />
            </Array>
          </mxGeometry>
        </mxCell>
        <mxCell id="l2tFHLuRy4FP07dyS6jG-9" value="" style="image;aspect=fixed;html=1;points=[];align=center;fontSize=13;image=img/lib/azure2/general/Resource_Groups.svg;" vertex="1" parent="1">
          <mxGeometry x="274.76" y="53" width="36.13" height="34" as="geometry" />
        </mxCell>
        <mxCell id="l2tFHLuRy4FP07dyS6jG-13" value="&lt;div style=&quot;font-size: 13px;&quot;&gt;Resource&lt;/div&gt;&lt;div style=&quot;font-size: 13px;&quot;&gt;Group&lt;br style=&quot;font-size: 13px;&quot;&gt;&lt;/div&gt;" style="text;html=1;align=center;verticalAlign=middle;resizable=0;points=[];autosize=1;strokeColor=none;fillColor=none;fontSize=13;" vertex="1" parent="1">
          <mxGeometry x="252.82999999999998" y="84" width="80" height="40" as="geometry" />
        </mxCell>
        <mxCell id="l2tFHLuRy4FP07dyS6jG-14" value="1" style="ellipse;whiteSpace=wrap;html=1;aspect=fixed;fillColor=#4D9900;strokeColor=none;labelBackgroundColor=none;fontSize=13;" vertex="1" parent="1">
          <mxGeometry x="106.98999999999998" y="61" width="23" height="23" as="geometry" />
        </mxCell>
        <mxCell id="RLjyjs_sm2IHfBNOWAbh-1" value="2" style="ellipse;whiteSpace=wrap;html=1;aspect=fixed;fillColor=#4D9900;strokeColor=none;labelBackgroundColor=none;fontSize=13;" parent="1" vertex="1">
          <mxGeometry x="227.82999999999998" y="61" width="23" height="23" as="geometry" />
        </mxCell>
        <mxCell id="l2tFHLuRy4FP07dyS6jG-16" value="&lt;div style=&quot;font-size: 13px;&quot;&gt;Virtual&amp;nbsp;&lt;/div&gt;&lt;div style=&quot;font-size: 13px;&quot;&gt;Network&lt;/div&gt;&lt;div style=&quot;font-size: 13px;&quot;&gt;10.33.84.0/23&lt;br style=&quot;font-size: 13px;&quot;&gt;&lt;/div&gt;" style="text;html=1;align=center;verticalAlign=middle;resizable=0;points=[];autosize=1;strokeColor=none;fillColor=none;fontSize=13;" vertex="1" parent="1">
          <mxGeometry x="363.32000000000005" y="78" width="100" height="60" as="geometry" />
        </mxCell>
        <mxCell id="l2tFHLuRy4FP07dyS6jG-17" value="Terraform" style="text;html=1;align=center;verticalAlign=middle;resizable=0;points=[];autosize=1;strokeColor=none;fillColor=none;fontSize=13;" vertex="1" parent="1">
          <mxGeometry x="14.999999999999986" y="82" width="80" height="30" as="geometry" />
        </mxCell>
        <mxCell id="l2tFHLuRy4FP07dyS6jG-19" value="3" style="ellipse;whiteSpace=wrap;html=1;aspect=fixed;fillColor=#4D9900;strokeColor=none;labelBackgroundColor=none;fontSize=13;" vertex="1" parent="1">
          <mxGeometry x="344.76" y="60" width="23" height="23" as="geometry" />
        </mxCell>
        <mxCell id="l2tFHLuRy4FP07dyS6jG-20" value="&lt;div style=&quot;font-size: 13px;&quot;&gt;Subnet&lt;/div&gt;&lt;div style=&quot;font-size: 13px;&quot;&gt;10.33.84.16/28&lt;br style=&quot;font-size: 13px;&quot;&gt;&lt;/div&gt;" style="text;html=1;align=center;verticalAlign=middle;resizable=0;points=[];autosize=1;strokeColor=none;fillColor=none;fontSize=13;" vertex="1" parent="1">
          <mxGeometry x="478.73" y="82" width="110" height="40" as="geometry" />
        </mxCell>
        <mxCell id="l2tFHLuRy4FP07dyS6jG-21" value="" style="image;aspect=fixed;html=1;points=[];align=center;fontSize=13;image=img/lib/azure2/networking/Network_Security_Groups.svg;" vertex="1" parent="1">
          <mxGeometry x="624.17" y="58.75" width="23.27" height="28.25" as="geometry" />
        </mxCell>
        <mxCell id="l2tFHLuRy4FP07dyS6jG-26" value="&lt;div style=&quot;font-size: 13px;&quot;&gt;Network&lt;/div&gt;&lt;div style=&quot;font-size: 13px;&quot;&gt;Security&lt;/div&gt;&lt;div style=&quot;font-size: 13px;&quot;&gt;Group&lt;br style=&quot;font-size: 13px;&quot;&gt;&lt;/div&gt;" style="text;html=1;align=center;verticalAlign=middle;resizable=0;points=[];autosize=1;strokeColor=none;fillColor=none;fontSize=13;" vertex="1" parent="1">
          <mxGeometry x="600.8" y="82" width="70" height="60" as="geometry" />
        </mxCell>
        <mxCell id="l2tFHLuRy4FP07dyS6jG-39" value="" style="edgeStyle=orthogonalEdgeStyle;rounded=0;orthogonalLoop=1;jettySize=auto;html=1;fontSize=13;" edge="1" parent="1" source="l2tFHLuRy4FP07dyS6jG-10" target="l2tFHLuRy4FP07dyS6jG-29">
          <mxGeometry relative="1" as="geometry">
            <mxPoint x="610" y="73" as="targetPoint" />
            <mxPoint x="545" y="73" as="sourcePoint" />
          </mxGeometry>
        </mxCell>
        <mxCell id="l2tFHLuRy4FP07dyS6jG-29" value="5" style="ellipse;whiteSpace=wrap;html=1;aspect=fixed;fillColor=#4D9900;strokeColor=none;labelBackgroundColor=none;fontSize=13;" vertex="1" parent="1">
          <mxGeometry x="571" y="61.75" width="23" height="23" as="geometry" />
        </mxCell>
        <mxCell id="l2tFHLuRy4FP07dyS6jG-40" value="" style="shape=image;verticalLabelPosition=bottom;labelBackgroundColor=none;verticalAlign=top;aspect=fixed;imageAspect=0;image=data:image/svg+xml,PHN2ZyB4bWxuczpjYz0iaHR0cDovL2NyZWF0aXZlY29tbW9ucy5vcmcvbnMjIiB4bWxuczpkYz0iaHR0cDovL3B1cmwub3JnL2RjL2VsZW1lbnRzLzEuMS8iIHhtbG5zOmlua3NjYXBlPSJodHRwOi8vd3d3Lmlua3NjYXBlLm9yZy9uYW1lc3BhY2VzL2lua3NjYXBlIiB4bWxuczpyZGY9Imh0dHA6Ly93d3cudzMub3JnLzE5OTkvMDIvMjItcmRmLXN5bnRheC1ucyMiIHhtbG5zOnNvZGlwb2RpPSJodHRwOi8vc29kaXBvZGkuc291cmNlZm9yZ2UubmV0L0RURC9zb2RpcG9kaS0wLmR0ZCIgeG1sbnM6c3ZnPSJodHRwOi8vd3d3LnczLm9yZy8yMDAwL3N2ZyIgeG1sbnM9Imh0dHA6Ly93d3cudzMub3JnLzIwMDAvc3ZnIiB4bWxuczp4bGluaz0iaHR0cDovL3d3dy53My5vcmcvMTk5OS94bGluayIgdmVyc2lvbj0iMS4xIiBpZD0ic3ZnNDA4ODAiIGlua3NjYXBlOnZlcnNpb249IjAuOTIuMyAoMjQwNTU0NiwgMjAxOC0wMy0xMSkiIHNvZGlwb2RpOmRvY25hbWU9InRlcnJhZm9ybS5zdmciIHg9IjBweCIgeT0iMHB4IiB2aWV3Qm94PSIwIDAgMzkuNiA0NSIgc3R5bGU9ImVuYWJsZS1iYWNrZ3JvdW5kOm5ldyAwIDAgMzkuNiA0NTsiIHhtbDpzcGFjZT0icHJlc2VydmUiPiYjeGE7PHNvZGlwb2RpOm5hbWVkdmlldyBib3JkZXJjb2xvcj0iIzY2NjY2NiIgYm9yZGVyb3BhY2l0eT0iMSIgZml0LW1hcmdpbi1ib3R0b209IjAiIGZpdC1tYXJnaW4tbGVmdD0iMCIgZml0LW1hcmdpbi1yaWdodD0iMCIgZml0LW1hcmdpbi10b3A9IjAiIGdyaWR0b2xlcmFuY2U9IjEwIiBndWlkZXRvbGVyYW5jZT0iMTAiIGlkPSJuYW1lZHZpZXc0MDg4MiIgaW5rc2NhcGU6Y3VycmVudC1sYXllcj0ic3ZnNDA4ODAiIGlua3NjYXBlOmN4PSIyNi4zOTk5ODYiIGlua3NjYXBlOmN5PSIyOS45OTk5ODUiIGlua3NjYXBlOnBhZ2VvcGFjaXR5PSIwIiBpbmtzY2FwZTpwYWdlc2hhZG93PSIyIiBpbmtzY2FwZTp3aW5kb3ctaGVpZ2h0PSIxMDE3IiBpbmtzY2FwZTp3aW5kb3ctbWF4aW1pemVkPSIxIiBpbmtzY2FwZTp3aW5kb3ctd2lkdGg9IjE5MjAiIGlua3NjYXBlOndpbmRvdy14PSItOCIgaW5rc2NhcGU6d2luZG93LXk9Ii04IiBpbmtzY2FwZTp6b29tPSIxMy45ODM4NzgiIG9iamVjdHRvbGVyYW5jZT0iMTAiIHBhZ2Vjb2xvcj0iI2ZmZmZmZiIgc2hvd2dyaWQ9ImZhbHNlIj4mI3hhOwk8L3NvZGlwb2RpOm5hbWVkdmlldz4mI3hhOzxnIGlkPSJnNDA4NzgiIHRyYW5zZm9ybT0idHJhbnNsYXRlKC0wLjc1LC0wLjc0NzUpIj4mI3hhOwk8dGl0bGUgaWQ9InRpdGxlNDA4NDQiPlBhZ2UtMTwvdGl0bGU+JiN4YTsJPGcgaWQ9Imdyb3VwMTU3MC0xIiB0cmFuc2Zvcm09InRyYW5zbGF0ZSgwLjc1LC0wLjc1KSI+JiN4YTsJCTx0aXRsZSBpZD0idGl0bGU0MDg0NiI+VGVycmFmb3JtPC90aXRsZT4mI3hhOwkJPGcgaWQ9Imdyb3VwMTU3MS0yIj4mI3hhOwkJCTx0aXRsZSBpZD0idGl0bGU0MDg0OCI+TG9nbzwvdGl0bGU+JiN4YTsJCQk8ZyBpZD0ic2hhcGUxNTcyLTMiIHRyYW5zZm9ybT0idHJhbnNsYXRlKDEzLjY1LC0xNS43NjUpIj4mI3hhOwkJCQk8dGl0bGUgaWQ9InRpdGxlNDA4NTAiPnBvbHlnb24zNzA2PC90aXRsZT4mI3hhOwkJCQk8cGF0aCBpZD0icGF0aDQwODUyIiBpbmtzY2FwZTpjb25uZWN0b3ItY3VydmF0dXJlPSIwIiBzdHlsZT0iZmlsbDojNUM0RUU1OyIgZD0iTTEyLjMsNDYuNUwwLDM5LjRWMjUuMTlsMTIuMyw3LjExVjQ2LjV6Ii8+JiN4YTsJCQk8L2c+JiN4YTsJCQk8ZyBpZD0ic2hhcGUxNTczLTUiIHRyYW5zZm9ybT0idHJhbnNsYXRlKDI3LjMsLTE1Ljc2NSkiPiYjeGE7CQkJCTx0aXRsZSBpZD0idGl0bGU0MDg1NSI+cG9seWdvbjM3MDg8L3RpdGxlPiYjeGE7CQkJCTxwYXRoIGlkPSJwYXRoNDA4NTciIGlua3NjYXBlOmNvbm5lY3Rvci1jdXJ2YXR1cmU9IjAiIHN0eWxlPSJmaWxsOiM0MDQwQjI7IiBkPSJNMTIuMywzOS40MVYyNS4xOUwwLDMyLjN2MTQuMkwxMi4zLDM5LjQxeiIvPiYjeGE7CQkJPC9nPiYjeGE7CQkJPGcgaWQ9InNoYXBlMTU3NC03IiB0cmFuc2Zvcm09InRyYW5zbGF0ZSgwLC0yMy42OTI1KSI+JiN4YTsJCQkJPHRpdGxlIGlkPSJ0aXRsZTQwODYwIj5wb2x5Z29uMzcxMDwvdGl0bGU+JiN4YTsJCQkJPHBhdGggaWQ9InBhdGg0MDg2MiIgaW5rc2NhcGU6Y29ubmVjdG9yLWN1cnZhdHVyZT0iMCIgc3R5bGU9ImZpbGw6IzVDNEVFNTsiIGQ9Ik0xMi4zLDQ2LjVWMzIuM0wwLDI1LjE5VjM5LjRMMTIuMyw0Ni41eiIvPiYjeGE7CQkJPC9nPiYjeGE7CQkJPGcgaWQ9InNoYXBlMTU3NS05IiB0cmFuc2Zvcm09InRyYW5zbGF0ZSgxMy42NSkiPiYjeGE7CQkJCTx0aXRsZSBpZD0idGl0bGU0MDg2NSI+cG9seWdvbjM3MTI8L3RpdGxlPiYjeGE7CQkJCTxwYXRoIGlkPSJwYXRoNDA4NjciIGlua3NjYXBlOmNvbm5lY3Rvci1jdXJ2YXR1cmU9IjAiIHN0eWxlPSJmaWxsOiM1QzRFRTU7IiBkPSJNMTIuMywzMi4zOVYzMi4zTDAsMjUuMTlWMzkuNGwxMi4zLDcuMVYzMi4zOXogICAgICAiLz4mI3hhOwkJCTwvZz4mI3hhOwkJCTxnIGlkPSJzaGFwZTE1NzYtMTEiIHRyYW5zZm9ybT0idHJhbnNsYXRlKDM0LjQwMjUsLTkuMzIyNSkiPiYjeGE7CQkJCTx0aXRsZSBpZD0idGl0bGU0MDg3MCI+cGF0aDM3MTQ8L3RpdGxlPiYjeGE7CQkJPC9nPiYjeGE7CQkJPGcgaWQ9InNoYXBlMTU3Ny0xMiIgdHJhbnNmb3JtPSJ0cmFuc2xhdGUoMTMuNjUsLTIxLjMwNzUpIj4mI3hhOwkJCQk8dGl0bGUgaWQ9InRpdGxlNDA4NzMiPnBhdGgzNzE2PC90aXRsZT4mI3hhOwkJCTwvZz4mI3hhOwkJPC9nPiYjeGE7CTwvZz4mI3hhOzwvZz4mI3hhOzwvc3ZnPg==;fontSize=13;" vertex="1" parent="1">
          <mxGeometry x="37.5" y="51.81" width="35" height="39.38" as="geometry" />
        </mxCell>
        <mxCell id="l2tFHLuRy4FP07dyS6jG-42" style="edgeStyle=orthogonalEdgeStyle;rounded=0;orthogonalLoop=1;jettySize=auto;html=1;entryX=-0.043;entryY=0.495;entryDx=0;entryDy=0;entryPerimeter=0;fontSize=13;" edge="1" parent="1" source="l2tFHLuRy4FP07dyS6jG-44" target="AcxdMaKK0mU5kZiv2lnr-36">
          <mxGeometry relative="1" as="geometry" />
        </mxCell>
        <mxCell id="l2tFHLuRy4FP07dyS6jG-43" value="&lt;div style=&quot;font-size: 13px;&quot;&gt;Virtual&amp;nbsp;&lt;/div&gt;&lt;div style=&quot;font-size: 13px;&quot;&gt;Machine&lt;/div&gt;&lt;div style=&quot;font-size: 13px;&quot;&gt;Scale Set&lt;br style=&quot;font-size: 13px;&quot;&gt;&lt;/div&gt;" style="text;html=1;align=center;verticalAlign=middle;resizable=0;points=[];autosize=1;strokeColor=none;fillColor=none;fontSize=13;" vertex="1" parent="1">
          <mxGeometry x="793.88" y="84.75" width="80" height="60" as="geometry" />
        </mxCell>
        <mxCell id="l2tFHLuRy4FP07dyS6jG-48" value="&lt;ol style=&quot;font-size: 13px;&quot;&gt;&lt;li style=&quot;font-size: 13px;&quot;&gt;allow inbound port 80&lt;/li&gt;&lt;li style=&quot;font-size: 13px;&quot;&gt;allow inbound port 443&lt;/li&gt;&lt;li style=&quot;font-size: 13px;&quot;&gt;allow inbound port 22&lt;/li&gt;&lt;/ol&gt;" style="text;html=1;align=left;verticalAlign=middle;resizable=0;points=[];autosize=1;strokeColor=none;fillColor=none;fontSize=13;" vertex="1" parent="1">
          <mxGeometry x="540" y="-38.19" width="190" height="90" as="geometry" />
        </mxCell>
        <mxCell id="l2tFHLuRy4FP07dyS6jG-49" value="" style="endArrow=classic;html=1;rounded=0;fontSize=13;" edge="1" parent="1">
          <mxGeometry width="50" height="50" relative="1" as="geometry">
            <mxPoint x="635.54" y="30" as="sourcePoint" />
            <mxPoint x="635.54" y="57" as="targetPoint" />
          </mxGeometry>
        </mxCell>
        <mxCell id="l2tFHLuRy4FP07dyS6jG-51" value="" style="shape=image;verticalLabelPosition=bottom;labelBackgroundColor=default;verticalAlign=top;aspect=fixed;imageAspect=0;image=data:image/png,iVBORw0KGgoAAAANSUhEUgAABBYAAASwCAYAAABPZ8lZAAAgAElEQVR4XuzdB5xmZXk3/mu2L01pUgNIRzQiCGLDhsQS1KhAJArSsQTL+0ajeeMfEo2xJVgoM7srghAREFDEBooIRlGKja6AdBHcpSywbeZ/zw4rC+7uzDPznOfc5z7f4QNZ3HPu+7q+18nu8NvznNMXvggQIECAAAECwwInxYwYjGfG4jg6/dtrV4rSFwtjUjpmKL4ch8Xt8AgQIECAAIF2C/S1u33dEyBAgACBlgv0x9QkcGL6+6D093i/L7gihQyHxJHxy5Zrap8AAQIECLRSYLzfQLQSS9MECBAgQKAYgS/FjrEgLkv9rN7FnhbEtHhliigu6eKaliJAgAABAgQyFxAsZD4g5REgQIAAga4KfDF2jkVxRVfX/MvFFsVqsXm8Le6qeB/LEyBAgAABAhkICBYyGIISCBAgQIBA5QLfiulxW9ya9nla5Xst22Aorkofj9i5Z/vZiAABAgQIEKhFQLBQC7tNCRAgQIBADwX646dpt+f1cMcnb3VcHBHvrnF/WxMgQIAAAQIVCggWKsS1NAECBAgQqFWgP/ZP+59Waw3Lbz4p9khvkfD8hWwGohACBAgQINAdAcFCdxytQoAAAQIE8hE4KbZJL4T8VSpoRj5F/bmSe2NmbBEHxPwMa1MSAQIECBAgMA4BwcI40JxCgAABAgSyFTgx7k8vjVwr2/oeL+ya9PGIHRtQpxIJECBAgACBUQQECy4RAgQIECBQgsBAfC6G4h8b18pQHJUe8Pj5xtWtYAIECBAgQODPAoIFFwMBAgQIEGiywEC8KQUKZ6YWmvx7+qKYErvGIfHLJo9C7QQIECBAoK0CTf4mpK0z0zcBAgQIEBgRGIjBFCqU9Hv5gvTxiByfC+GKI0CAAAECBFYhUNI3IwZNgAABAgTKFzgjJse8uCgFCi8uttm++FocHm8utj+NESBAgACBwgQEC4UNVDsECBAgULDAQPxnChQ+WHCHj7fWlzqNeF8KGD7bin41SYAAAQIEGiwgWGjw8JROgAABAi0RmBUbpA893N2Sbv+yzQXxlPSIxwda27/GCRAgQIBA5gKChcwHpDwCBAgQaLFAf/oP6ogb09/rt1hhWes3pR9sn57BsIgFAQIECBAgkJeAYCGveaiGAAECBAiMCPTHBemfe+J4ksBQnJFeT7kfFwIECBAgQCAfAcFCPrNQCQECBAgQiJgVr08fezgXxSgCfbFbev7CzzkRIECAAAEC9QsIFuqfgQoIECBAgEDE8bFdet/DdSg6Eng4Hb1D+njErR2d5WACBAgQIECgqwKCha5yWowAAQIECIxDoH/pcxS2HseZThkRuC6FCzvAIECAAAECBOoRECzU425XAgQIECDQlz72cGz62MNRKLom8B8pYPiXrq1mIQIECBAgQGBMAoKFMTE5iAABAgQIdFFgdrwqlsS3u7iipZYJ9MVQ+utVKWD4HhQCBAgQIECgNwKChd4424UAAQIECAy/6WG1xHB7+nttHJULzE0Pd1w3hoMGXwQIECBAgEClAoKFSnktToAAAQIEksAZ6bGMc+Py9KOdePRc4PIU4+we+6Z7RHwRIECAAAEClQgIFiphtSgBAgQIEHhMoD8+kH70CR41C/TFh9MdDB+vuQrbEyBAgACBIgUEC0WOVVMECBAgULtAf2yVbsK/Lt2KP6X2WhSwTGBRTItt46C4BQkBAgQIECDQPQHBQvcsrUSAAAECBCI+FavHWnFnolgLR7YCD8WC2CS9j+OBbCtUGAECBAgQaJCAYKFBw1IqAQIECGQuMBCnpLsU3pZ5lcpbJtAXZ6WPR+wDhAABAgQIEJiYgGBhYn7OJkCAAAECEbPjDenRgOegaKDA8Fsj+uKQOCxOamD1SiZAgAABAlkICBayGIMiCBAgQKCRArNi0xhc+nn9yY2sX9FPFFgc28S74rdYCBAgQIAAgc4EBAudeTmaAAECBAhEHB2TYuP4afqz7l1xFCbQF9emJ2Q8M814sLDOtEOAAAECBCoTECxURmthAgQIEChSoD/+O/X13iJ709TjAn3xzfT8hb2RECBAgAABAqMLCBZGN3IEAQIECBCIGIgXpDsUfoyidQJ/E0fE91rXtYYJECBAgEAHAoKFDrAcSoAAAQItFBh+feRT4uYUKqzfwu61PCIw/FrK7VPAcBcQAgQIECBA4C8FBAuuCgIECBAgsDKBWfHz9En75wIisFSgLx5MH49YiwYBAgQIECDwRAHBgiuCAAECBAg8WWAgDk53KMwBQ2AlAv+e7l74CB0CBAgQIEBgRECw4EogQIAAAQLLBGbH5rEkrk//Oh0KgVEEhtJLRl8Th8Z3SBEgQIAAgbYLCBbafgXonwABAgRGXh+5UdybKNbGQaBjgbtiarqGFnd8nhMIECBAgEAhAoKFQgapDQIECBAYp8BAfD597OHd4zzbaQSWCXwvxVKviX3TPS++CBAgQIBAywQECy0buHYJECBA4DGBE+P16QOBZ6d/m8SEQNcEJsV/xGHxL11bz0IECBAgQKABAoKFBgxJiQQIECDQRYFT0usjH1n6+kCBQhdZLfUkgcHYNN4Rd3AhQIAAAQJtEBAstGHKeiRAgACBEYGB+FH62MOLcRDokcA9aZ9t0xsk7u/RfrYhQIAAAQK1CAgWamG3KQECBAj0VGB2/Gf65PsHe7qnzQg8LnBRChdeDoQAAQIECJQqIFgodbL6IkCAAIGI/tgqMfwWBYEsBCbF36fnL3w1i1oUQYAAAQIEuiggWOgipqUIECBAIBOB/lgtVXJD+nuTTCpSBoFlAkPp6R47pYDhV0gIECBAgEApAoKFUiapDwIECBAYERiIH6bnKLwEB4HMBW6Nw2OL9GaSoczrVB4BAgQIEBhVQLAwKpEDCBAgQKARAiOvjzy3EbUqksAygaGYE0em+xdCwOCiIECAAIHmCggWmjs7lRMgQIDAsMCc2C4Wxy/Tj6YDIdBYgb54S7qD4fTG1q9wAgQIEGi1gGCh1ePXPAECBBou0B93pg42angXyiewTODhWJCu56PiASQECBAgQKBJAoKFJk1LrQQIECAwIjAQx6Ybx9+Dg0CRAn3x+xSZbRtHx8Ii+9MUAQIECBQnIFgobqQaIkCAQMECA7FvChS8rq/gEWttOYG++HT6eMQ/MSFAgAABArkLCBZyn5D6CBAgQGD4sXZ96S6FhxLF8GskfRFok8Dw6ylfkB7v+NM2Na1XAgQIEGiWgGChWfNSLQECBNolcFFMiRvjshQs7NyuxnVL4EkCfeljEY/Gpun5C39kQ4AAAQIEchMQLOQ2EfUQIECAwIjAQPxnChQ+iIMAgScIfD+OiFem/2WICwECBAgQyEVAsJDLJNRBgAABAiMCx8eWMTluSD+ajIQAgZUIDMWH48j4OB8CBAgQIJCDgGAhhymogQABAgSGA4W1U5Rwa6JYAwcBAmMUmJw+JnRoXDXGox1GgAABAgQqERAsVMJqUQIECBDoSKA/vpWOf3VH5ziYAIFlArfH/PR6yvfHI0gIECBAgEAdAoKFOtTtSYAAAQIjArPirTEYX8ZBgEAXBIbix+njES/qwkqWIECAAAECHQkIFjricjABAgQIdEVgTmwXi+O6rqxlEQIEnigwKQ5Mr6c8BQsBAgQIEOiVgGChV9L2IUCAAIGIM9JTFObFb9Lz7LfHQYBAhQLDr6eclD4ecWj8vsJdLE2AAAECBJYKCBZcCAQIECDQG4H+OCdt9IbebGYXAgQeE7g/Dk8PRu3zekpXBAECBAhUJyBYqM7WygQIECAwLDAQr0v/SfN1GAQI1CpwQhwR76y1ApsTIECAQLECgoViR6sxAgQI1CwwO9aJJXFzqmKtmiuxPQECwwLDdy30xZvT8xfOBkKAAAECBLopIFjopqa1CBAgQGDkOQpz4+5EsR4OAgSyFBhKVa2d7mC4P8vqFEWAAAECjRMQLDRuZAomQIBAxgID8ZH0Z6LHZFyh0ggQWCYwFL9O9xU9J/ZN9xb5IkCAAAECExAQLEwAz6kECBAg8JjArNg9BuN/07/5fcVFQaB5Aseluxfe3byyVUyAAAECuQj4BjCXSaiDAAECTRToj9VS2cO3U09pYvlqJkBgOYEpsVMcEr9kQoAAAQIEOhUQLHQq5ngCBAgQiKWPgJsVX0v/9+9wECBQlMC8WBCbx1HxQFFdaYYAAQIEKhUQLFTKa3ECBAgUKNAf70pdfaHAzrREgMAygb74aRwezwdCgAABAgTGIiBYGIuSYwgQIEAg4oTYIiYtfX2kLwIE2iIwKT174bA4ri3t6pMAAQIExicgWBifm7MIECDQHoFvxfS4La5NDT+9PU3rlACB5QQWpx+/KD3g8TIqBAgQIEBgRQKCBdcFAQIECKxcYCDOTc9ReD0iAgQIJIF70scjNkxPWBmiQYAAAQIElhcQLLgeCBAgQOAvBb4Ye8aiuAANAQIEViBwXrp74XVkCBAgQIDAMgHBgmuBAAECBB4XOCE2Sc9RuDH9DzOxECBAYJUCQ/GOODJOpESAAAECBAQLrgECBAgQGBHojxvSP7fBQYAAgQ4EFqRjN0h3MNzfwTkOJUCAAIHCBAQLhQ1UOwQIEOhYYFb8SwzGRzs+zwkECBBYJtAXv487Y9s4OhZCIUCAAIH2CQgW2jdzHRMgQGBEYFa8OAUKF6cf+b3ANUGAQLcEZqe7Fw7r1mLWIUCAAIFmCPhmshlzUiUBAgS6J3BGTI65S29bXr17i1qJAAECfxYYSu+NeGF6/sJPmBAgQIBAOwQEC+2Ysy4JECAQ6Rv9vvQchW+nf/4NDgIECPRAYEFMiS3jkPQhCV8ECBAgULSAYKHo8WqOAAECjwn0xwfSjz7BgwABAjUIXJ4+HrFrDfvakgABAgR6JCBY6BG0bQgQIFCLwCnxtHgk7k57+/W+lgHYlACBPwtMis+lpy+8hwgBAgQIlCfgG83yZqojAgQIRJwUM9Kz2X+bKDbBQYAAgawEJsUeKWC4JKuaFEOAAAECExIQLEyIz8kECBDIUKA/zkhV7ZNhZUoiQIDAMoE/pB/8VfqIxCIkBAgQINB8AcFC82eoAwIECIwIzImXxeL4AQ4CBAg0SODXKVz46wbVq1QCBAgQWIGAYMFlQYAAgaYL9MdWqYVr0t/Tmt6K+gkQaK3AO1PAcEJru9c4AQIEGi4gWGj4AJVPgEDLBfrj10ngmS1X0D4BAmUILEivxd05jlwalPoiQIAAgQYJCBYaNCylEiBA4M8CA/Ff6Rvw9xEhQIBAgQKPpp7W8vyFAierJQIEihUQLBQ7Wo0RIFCkwEC8OgUK3yqyN00RIEBgeYG++EocHvtDIUCAAIH8BQQL+c9IhQQIEIj09vfp6a87E8U6OAgQINAigaHU6zvS3Qv9LepZqwQIEGicgGChcSNTMAECrRI4OibFxnFVukvBU9NbNXjNEiDwFwIzYr04MO4jQ4AAAQL5CQgW8puJiggQIDAiMCs+HIPxMRwECBAg8GeBq2PteHbsG0uYECBAgEA+AoKFfGahEgIECIwIDMS26Q6F36QfTUVCgAABAisUOD19POItbAgQIEAgDwHBQh5zUAUBAgQiTonV45H4Q6JYHQcBAgQIjEFgSTw/3hk/HcORDiFAgACBCgUECxXiWpoAAQJjFjgxzoy+ePOYj3cgAQIECCwTeCgWxzPiXXEbEgIECBCoR0CwUI+7XQkQIDAi0J+edt4Xx6WPPvj12DVBgACBiQj0xc3p9ZRbTmQJ5xIgQIDA+AR8Izs+N2cRIEBgYgInxRaxMH0T7IsAAQIEuiswOT349tD4eHcXtRoBAgQIrEpAsOD6IECAQK8F+pc+mHHHXm9rPwIECLRGoG/pfWB/E4fFBa3pWaMECBCoUUCwUCO+rQkQaJnAQJyVvtV9U8u61i4BAgTqFHggvT3iKXUWYG8CBAi0QUCw0IYp65EAgXoF5sTL0oPFflBvEXYnQIBAqwUuirXjlbFvLGm1guYJECBQkYBgoSJYyxIgQCA9mHGjdIfCdel23LVoECBAgEAWAv8v3cHwsSwqUQQBAgQKEhAsFDRMrRAgkJHAQNyeQoVNMqpIKQQIECAwIjB818JfpYDhLiAECBAg0B0BwUJ3HK1CgACBEYFZ8a8xGP+GgwABAgQyF+iLeSkA3iIFDPdnXqnyCBAgkL2AYCH7ESmQAIFGCAzEnukb1O+mWic1ol5FEiBAgMAygbNTuODBuq4HAgQITEBAsDABPKcSIEBgqUB/LEz/nEqDAAECBBosMCn2Sa+nPKvBHSidAAECtQkIFmqjtzEBAo0WODrdmbBxukNhKN2p4IsAAQIEyhHoi+3i8LihnIZ0QoAAgeoFBAvVG9uBAIHSBAbiIylQOKa0tvRDgAABAn8WuCY92vFZcXR6ao4vAgQIEBhVQLAwKpEDCBAg8JjAqem1kfM95Mv1QIAAgdYI9MVX0t0L+7emX40SIEBgnAKChXHCOY0AgRYJzIk108vJrk93KWzUoq61SoAAAQKPC/xtesDj+UAIECBAYMUCggVXBgECBFYl0B/fTj/9KkgECBAg0HKBoXggPap36zgq/thyCe0TIEDgLwQECy4KAgQIrEhgIF6X7lD4OhwCBAgQIPAEgb74U9wZ63v+guuCAAECjwsIFlwNBAgQWF6gP7ZP/3otFAIECBAgsEqBSSlaOMyDfF0lBAgQGBYQLLgOCBAgsEygf+nrxbYBQoAAAQIExigwlF4+/JIUMFwyxuMdRoAAgSIFBAtFjlVTBAh0INAXA3FC+tjDER2c41ACBAgQILC8wFD6lzXS7yQPYyFAgEAbBQQLbZy6ngkQGBHojzekf56DgwABAgQIdEng23FX/K3nL3RJ0zIECDRGQLDQmFEplACBrgmckf5UaW7cntZ7StfWtBABAgQIEFgmMJievfCOFC/4IkCAQEsEBAstGbQ2CRBIAv0xNf3zuvT3ljwIECBAgEDlAlNjqzg4bqp8HxsQIECgZgHBQs0DsD0BAj0SODH96VFffKRHu9mGAAECBAiMCPSll1POiG3jgJiPhAABAqUKCBZKnay+CBAYERiIXdODGX+SfjQZCQECBAgQqE2gL34Qh8cratvfxgQIEKhQQLBQIa6lCRCoUeCkeGosjPtSBZNqrMLWBAgQIEDgiQKTYp/0esqzsBAgQKAkAcFCSdPUCwECke5O6ItZ8c30f1+DgwABAgQIZCqwOP1utWO6g+GGTOtTFgECBDoSECx0xOVgAgSyFuiP/5Pq+3TWNSqOAAECBAgsExh+/sLhsQkQAgQINF1AsND0CaqfAIHh5yhsm+5QuB4FAQIECBBopEBfnJgChnc0snZFEyBAIAkIFlwGBAg0V+C/YmasHtekBrZobhMqJ0CAAAECfxbYN46IM3kQIECgaQKChaZNTL0ECIwIDMSl6S6FF+IgQIAAAQKFCTya+lk3BQwPF9aXdggQKFhAsFDwcLVGoEiBOfGmWOxp2kXOVlMECBAg8LhAX1wX28Sz4mXpdz1fBAgQyFxAsJD5gJRHgMBjAsfHljF56dOzJzMhQIAAAQItEvhkunvhgy3qV6sECDRQQLDQwKEpmUDrBAbivvSxh3Va17eGCRAgQIDAsEBf+l0w0t0Lh8fVQAgQIJCjgGAhx6moiQCBEYH++K/0z/fhIECAAAECBJYKPBxLYtN4Z8zlQYAAgZwEBAs5TUMtBAiMCJwYe6c/nfkGDgIECBAgQGAFAn1xYbp74ZVsCBAgkIuAYCGXSaiDAIGIM2Ja+jOYBSgIECBAgACBMQj0xf9JAcPw3X2+CBAgUKuAYKFWfpsTILBUoD+mpjsUfpo+QbozEQIECBAgQKAjgaH0WONd4tC4qqOzHEyAAIEuCggWuohpKQIExiEwEJ9JgcL7x3GmUwgQIECAAIFlAn3x+/T76TbpDRKLoBAgQKDXAoKFXovbjwCBEYHjYoeYEtfgIECAAAECBLoo0BcXpI9H7NXFFS1FgACBUQUEC6MSOYAAga4KHB9rp1s2b01rrtHVdS1GgAABAgQIPC7QFwekgOHLSAgQINALAcFCL5TtQYDAiEB//DD98yU4CBAgQIAAgZ4IPJIei7xlHBR392Q3mxAg0FoBwUJrR69xAj0UmJ0eKbUkZvVwR1sRIECAAAECjwvcE3fFJnF0LIZCgACBKgQEC1WoWpMAgRGB2fGcFChckX7k1xrXBAECBAgQqFugL76QPh7xj3WXYX8CBMoT8M1+eTPVEYH6Bc5IT1GYG7ekQjatvxgVECBAgAABAssJDKW4/w0pYPgGFQIECHRLQLDQLUnrECAwLNAXA3Fuet3V63AQIECAAAECWQssTn8MsEH6sOKfsq5ScQQINEJAsNCIMSmSQAME+uPAVOWXGlCpEgkQIECAAIHHBf433b3wovRHA0NQCBAgMF4BwcJ45ZxHgMCIwOdi/Zget6cfTUNCgAABAgQINFSgL/47BQzvb2j1yiZAoGYBwULNA7A9gcYKnJGChLlxc6p/48b2oHACBAgQIEDgiQJDsVMcGb/EQoAAgU4EBAudaDmWAIERgf70VOmId+EgQIAAAQIEihT4Q/pjgy1j73i4yO40RYBA1wUEC10ntSCBggVOjD3SZzB/mDr0a0fBY9YaAQIECBB4TODncUTsRoMAAQKjCfiPg9GE/DwBAhGz0lOjB+O2RDEVBwECBAgQINAygcnx9vT2iJNb1rV2CRDoQECw0AGWQwm0TmD4Tdez4kfpOdEval3vGiZAgAABAgQeF+iLhen1lLvFIZ6/4LIgQOAvBQQLrgoCBFYsMBCfSIHCB/AQIECAAAECBJYTuC99PGI9IgQIEFheQLDgeiBA4IkCJ8bz030K/4uFAAECBAgQILBSgb74Uno95UGECBAgMCwgWHAdECAwInBGzIx58ft0l8L6SAgQIECAAAECYxQ4LN3BMHuMxzqMAIFCBQQLhQ5WWwQ6EuiPK9Pxz+noHAcTIECAAAECBEYElsTasWbsG48AIUCgnQKChXbOXdcERgQG4p3pDoXjcBAgQIAAAQIEJizQFzek7yueme5gWDThtSxAgECjBAQLjRqXYgl0SeDEeEb6INQv0mpeH9klUssQIECAAAECjwn0xZz0/IVDeRAg0B4BwUJ7Zq1TAiMC/TE//XM1HAQIECBAgACBSgWWxPbp3sjrK93D4gQIZCEgWMhiDIog0AOBWfHlGIy39mAnWxAgQIAAAQIElgk8nL7/2DbeEXcgIUCgXAHBQrmz1RmBEYGBODJ93vEEHAQIECBAgACBGgWuTM9e2KXG/W1NgECFAoKFCnEtTaBWgVNjrfShh/trrcHmBAgQIECAAIHlBfriX9PzFz4KhQCBsgQEC2XNUzcEIo6OKbFx/DrdpbA9DgIECBAgQIBAlgJD8ZJ0T+WPsqxNUQQIdCwgWOiYzAkEMhboj9NSdftnXKHSCBAgQIAAAQLLBO5Jdy9smN5UNYSEAIFmCwgWmj0/1RMYEZgdu8WSuAwHAQIECBAgQKCBApfFXfGCdNflYANrVzIBAklAsOAyINBkgf7YLJV/bfrb6yObPEe1EyBAgAABAhGT4t1xWByHggCB5gkIFpo3MxUTGBHoj9+kf+6IgwABAgQIECBQkMCCmBzbxaHx+4J60gqB4gUEC8WPWIPFCQzEMemTiB8pri8NESBAgAABAgQeF3g41o71Yt94BAoBAvkLCBbyn5EKCYwIzI5XpecofCv9yP/fuiYIECBAgACBdgj0xSnpAY8HtqNZXRJoroD/QGnu7FTeFoEz0g2Bc+Oe1O46bWlZnwQIECBAgACB5QSG0t2aB6TXU55KhQCBPAUEC3nORVUEIoYDhXlxafqNdHccBAgQIECAAAECSwU2jiPSOyR8ESCQlYBgIatxKIbAYwID6RkKQ+lZCr4IECBAgAABAgSeLPCb9PyFndLzF5agIUAgDwHBQh5zUAWBEYETYov0qqUb0o+mIiFAgAABAgQIEFiFQF98JT1/YX9GBAjULyBYqH8GKiAw/OrIpySG29Lfa+IgQIAAAQIECBDoQGBq+tjowXFZB2c4lACBLgsIFroMajkCHQv0xzfSOXt3fJ4TCBAgQIAAAQIElgncn+763C4Oiz8gIUCg9wKChd6b25HAiEB/vCO9OPK49CwF/3/omiBAgAABAgQIdEfgjvRwx027s5RVCBAYq4D/oBmrlOMIdEvgpNg+Fsa13VrOOgQIECBAgAABAn8h8KEUMPwnFwIEeiMgWOiNs10IxNI7Ewbi+kSxDQ4CBAgQIECAAIHKBYbSDq9IAcNFle9kAwItFxAstPwC0H6PBAbi/BQsvKZHu9mGAAECBAgQIEDgcYFHU7gwEwgBAtUJCBaqs7UygYg58bpYHF9HQYAAAQIECBAgULPAUHw37k5/0HN0DNZcie0JFCcgWChupBrKQmBWemjQ4NLnKKyRRT2KIECAAAECBAgQGBGYFB9Kb4/w/AXXA4EuCggWuohpKQJLBfrj/vTPtWgQIECAAAECBAhkKzAUM2L9ODDuy7ZChRFokIBgoUHDUmrmArPik+kuhX/KvErlESBAgAABAgQIPC5wT0yJreOQeBAKAQLjFxAsjN/OmQRGBAbiTenBjGekH01CQoAAAQIECBAg0ECBvvRMrMPjDQ2sXMkEshAQLGQxBkU0UuCilG/fEIsaWbuiCRAgQIAAAQIEViTwd+kNEueiIUCgMwHBQmdejiYQ6d6EyTEvfpTuUngBDgIECBAgQIAAgcIE+tJ3eRHbpzsYbiisM+0QqExAsFAZrYWLFOiPz6e+3l1kb5oiQIAAAQIECBBYXuDaFC7sGCNBgy8CBFYhIFhweRAYi8DxsWW6T+F3YznUMQQIECBAgAABAgUJ9MWcFDAcWlBHWiHQdQHBQtdJLViUwMmxbjy69Da4dYrqSzMECBAgQIAAAf4e27cAACAASURBVAKdCSyJ18c74xudneRoAu0QECy0Y866HI9Af/w8nfbc8ZzqHAIECBAgQIAAgQIF+tKTtoZii/SAx/sL7E5LBMYtIFgYN50TixWYlW52G4z+YvvTGAECBAgQIECAwEQF7oi1Y/PYN5ZMdCHnEyhBQLBQwhT10B2Bgdg1JdA/685iViFAgAABAgQIECheYFIcHYfFMcX3qUECowgIFlwiBIYFToy70hN/N4RBgAABAgQIECBAoEOBwZgSL4pD4icdnudwAsUICBaKGaVGOhY4OibFRksfwPPajs91AgECBAgQIECAAIHlBfpiYXro9/pxVDwAhkDbBAQLbZu4fkcEBuLI9LGHE3AQIECAAAECBAgQ6LLAeemJXa9Pd8MOdXldyxHIVkCwkO1oFFaJwP/EevFg3JbWnlHJ+hYlQIAAAQIECBAgMCLwwfT2iE/CINAGAcFCG6asx4j/ipmxetyRKNbGQYAAAQIECBAgQKBnAn2xXbqD4Yae7WcjAjUICBZqQLdljwUGYk66Ee3gHu9qOwIECBAgQIAAAQLLBG6J+fGMeH88goRAiQKChRKnqqcRgRPjNemzbd9MP3KduyYIECBAgAABAgRyEPh++njEnjkUogYC3RTwH1zd1LRWHgInxybpiby351GMKggQIECAAAECBAg8SaAv3pw+HvE1LgRKERAslDJJfUT6uMOk9LaHnyeKnXEQIECAAAECBAgQyFxgYfrudfs4LG7OvE7lERhVQLAwKpEDGiHQH7NSnYc2olZFEiBAgAABAgQIEHhc4K708YiNgRBosoBgocnTU3tEf7woMVyCggABAgQIECBAgECjBfri0+njEf/U6B4U31oBwUJrR9/wxr8Q68a09NqeoVin4Z0onwABAgQIECBAgMDjAkPxhjgyvo6EQJMEBAtNmpZaRwT64870z41wECBAgAABAgQIEChSYCgWx8JYI46KBUX2p6niBAQLxY204IYG0pt/h+IzBXeoNQIECBAgQIAAAQLLC1wRa8fzYt9YgoVAzgKChZyno7YRgdnxwvRL6aU4CBAgQIAAAQIECLRU4FPpAY8faGnv2m6AgGChAUNqbYlHpxfwbJRuA4twnbb2ItA4AQIECBAgQIDAnwUmxZZeT+l6yFHAf7DlOJW21zQcKGwYZ6c44fVtp9A/AQIECBAgQIAAgScJzE3//vR0B8P9ZAjkIiBYyGUS6hgRODE+lAKF/8BBgAABAgQIECBAgMAqBS5M4cIrGRHIQUCwkMMU1BDx+dg4vT7yDhQECBAgQIAAAQIECHQk8PYUMJzc0RkOJtBlAcFCl0Et16HAcek1OlPiunTWJh2e6XACBAgQIECAAAECBEYEht8asVsKGK4EQqAOAcFCHer2HBEYiPPT6yNfg4MAAQIECBAgQIAAga4I3BZ3xRZxdAx2ZTWLEBijgGBhjFAO66LA7Ng7Zarf6OKKliJAgAABAgQIECBA4HGBr6W7F94MhECvBAQLvZK2T0R/bJUezHh9ukthMg4CBAgQIECAAAECBCoWGIoD48g4peJdLE8g/WeeLwJVCwyl62xW3JACha2r3sr6BAgQIECAAAECBAgsJ9AXD6fvwzf2ekpXRZUCgoUqda3dl+5SOC4xvAMFAQIECBAgQIAAAQK1CtySdt82BQyLaq3C5kUKCBaKHGsGTZ0Yr0/3KZybQSVKIECAAAECBAgQIEBgmUBffDYOj/cCIdBNAcFCNzWtFTEn1ozFcWeiWAMHAQIECBAgQIAAAQJZCgzGpHhhHBY/zbI6RTVOQLDQuJFlWnB/TE2VXZv+3irTCpVFgAABAgQIECBAgMATBRakf900fTziXjAEJiIgWJiInnNHBPrjY+mfH8ZBgAABAgQIECBAgEADBfrix+njES9qYOVKzkRAsJDJIBpZRn/snOq+PP3tOmrkABVNgAABAgQIECBAYDmBSfGf6eMRH2JCoFMB/0HYqZjjI46PtWNy3JUopuMgQIAAAQIECBAgQKAwgcnpDxAPjasK60o7FQoIFirELXDpvhiIb6f34P5Ngb1piQABAgQIECBAgACBxwXuTC+n3Dxelh7N7ovAKAKCBZfI2AQG4v+lQOHfx3awowgQIECAAAECBAgQKETgJ+nhji8opBdtVCQgWKgItphlB2KnFCi4DaqYgWqEAAECBAgQIECAwDgEJsWB6fkLp4zjTKe0QECw0IIhj6vFM2JmzIsbUqiw6bjOdxIBAgQIECBAgAABAqUJLIgp8ew4JK4vrTH9TExAsDAxvzLP7o8fpsZeUmZzuiJAgAABAgQIECBAYEICffFgej3lWhNaw8lFCQgWihrnBJuZFW+NwfjyBFdxOgECBAgQIECAAAEC7RA4OT1/4e3taFWXqxIQLLg+Ivpjq8RwTfp7Gg4CBAgQIECAAAECBAh0IDCUjj0oBQwnd3COQwsTECwUNtAO2xl+feSf0nMUntrheQ4nQIAAAQIECBAgQIDAEwW2jaleT9nOi0Kw0M65R8yKz6aPPRzV1vb1TYAAAQIECBAgQIBABQJ98av0x5Y7x76xpILVLZmpgGAh08FUVtas2C8FCqdXtr6FCRAgQIAAAQIECBAg0Bdz0gMeDwXRDgHBQjvmHHFqemrr/PQCyQgzb8vM9UmAAAECBAgQIECgboFpsUN6AsN1dZdh/2oF/Edmtb71r35GTE5xwk/ScxR2rb8YFRAgQIAAAQIECBAg0EKBh1LP26YHPN7Vwt5b0bJgoeQxD8QJKVA4suQW9UaAAAECBAgQIECAQEME+uIX6eMRz2lItcrsQECw0AFWYw6dFbuk5yhc3ph6FUqAAAECBAgQIECAQHsEpsQH4pD4VHsaLr9TwUJJMz4+1k4ffLgpteT1kSXNVS8ECBAgQIAAAQIEShPoS/dWD8Ue6eMRl5bWWhv7ESyUMvWBuCz9P+ZupbSjDwIECBAgQIAAAQIEWiFwTwoXNmhFpwU3KVho+nAH4j0pUDi26W2onwABAgQIECBAgACBFgsMxQ/i7nhlHJ0+1O2rcQKChcaN7LGCj4/d08cehm8bmtzUFtRNgAABAgQIECBAgACBJwm8J93B8DkqzRIQLDRrXpESvEmxUcryItZvWunqJUCAAAECBAgQIECAwBgEFsSU2DI94PHOMRzrkAwEBAsZDGGMJfTFrDgn3Rj0+jEe7zACBAgQIECAAAECBAg0WeCBmBkbxwExv8lNtKF2wUITpjwQ/5ieo+B2oCbMSo0ECBAgQIAAAQIECHRb4OT08Yi3d3tR63VPQLDQPcvur/SFWDemLr39Z1r3F7ciAQIECBAgQIAAAQIEGiMwlCrdLwUMZzam4hYVKljIcdgnxYxYGDel0jbKsTw1ESBAgAABAgQIECBAoEaBzVPAcGuN+9v6SQKChdwuif74UirpwNzKUg8BAgQIECBAgAABAgQyErgy7opdvZ4yj4kIFvKYQ8RJ8ap0l8K3UjlmkstM1EGAAAECBAgQIECAQO4Cp6a7F96We5Gl1+c/YuuecH9slkr4bfp7at2l2J8AAQIECBAgQIAAAQKNFJgSL06vp7y0kbUXULRgoc4h9scVafud6yzB3gQIECBAgAABAgQIEChEYG7649rt4uD4YyH9NKYNwUIdoxqIE9PrI4+oY2t7EiBAgAABAgQIECBAoHCBu9N/bXkQfg+HLFjoIXbMjlfEkriwl1vaiwABAgQIECBAgAABAq0U6Iv/E4fHf7Wy9x43LVjoBfjnYnr66/a01Xq92M4eBAgQIECAAAECBAgQIJAE+tK94tPS8xfeHj/mUZ2AYKE625GVB+LGdClvXfU21idAgAABAgQIECBAgACBlQgMBwyHxyQ+1QgIFqpxjeiPD6SlP1HV8tYlQIAAAQIECBAgQIAAgQ4FhuKcuDveHEfHYIdnOnwVAoKFbl8eJ8Zz05I/SbfcTOn20tYjQIAAAQIECBAgQIAAgS4I9MWH0x0MH+/CSpZIAoKFbl0G/enFJkPxsEChW6DWIUCAAAECBAgQIECAQMUCU+NpXk85cWPBwsQNh5+jcHYKFf6uG0tZgwABAgQIECBAgAABAgR6KnB7zIzt44CY39NdC9pMsDCRYfbHP6XTPzmRJZxLgAABAgQIECBAgAABAhkI9KXnLxweb8ygksaVIFgYz8hOSbfLPBJ/GM+pziFAgAABAgQIECBAgACBjAWmxqvSxyO+m3GF2ZUmWOhkJJ+L6emva9MpT+/kNMcSIECAAAECBAgQIECAQKMEht8asW0cEb9rVNU1FStYGCv8QHwrPUfh1WM93HEECBAgQIAAAQIECBAg0HiB69LHI56RHtI/1PhOKmxAsDAa7hdjz1gUF4x2mJ8nQIAAAQIECBAgQIAAgUIFJsWxcVi8r9DuJtyWYGFlhCfGNimV+lX66RkTVrYAAQIECBAgQIAAAQIECDRfYHK8Lg6N85rfSHc7ECysyLM/fp/+5826S201AgQIECBAgAABAgQIEGi8wFA8kP4QeqP0/IWHG99LlxoQLCwPOZBubxmK93TJ1jIECBAgQIAAAQIECBAgUK7ANbF2/HXsG0vKbXFsnQkWhp36Y5/0zzPGRuYoAgQIECBAgAABAgQIECDwmEBf/H/pAY//1maPdgcLQ+kGloF4MF0Aq7f5ItA7AQIECBAgQIAAAQIECExAoC/dtTCY7l44Mq6ZwCqNPbWdwUJ/TE2Rws/Sxx52auzkFE6AAAECBAgQIECAAAECuQkMP3dh4/T8hftzK6zKetoXLAzEp1Kg8H+rRLU2AQIECBAgQIAAAQIECLRa4LwULryuLQLtCRa+GM+IRUtfHzm5LcPVJwECBAgQIECAAAECBAjUKNAX70rPXzi+xgp6snX5wUJ/rJckb09/T++JqE0IECBAgAABAgQIECBAgMAygb50z/yi2DFFDNeWilJ2sDAQF6QR7lnq8PRFgAABAgQIECBAgAABAo0R+F2qdIf0EYlFjal4jIWWGSz0xwdS/58Yo4HDCBAgQIAAAQIECBAgQIBAbwSG4rvp7RGv6s1mvdmlrGBhVnq9x2D8sjd0diFAgAABAgQIECBAgAABAuMU6Is3pucvnDPOs7M6rYxg4eiYFhvFdUn26VnpKoYAAQIECBAgQIAAAQIECKxMoC/mpw9GbJ2ev3B3k5GaHyz0x8/SAHZt8hDUToAAAQIECBAgQIAAAQKtFrgnPXthg6YKNDdYmB37x5I4ranw6iZAgAABAgQIECBAgAABAk8QmBSfisOWPjOwUV/NCxZmpY87DMbVSXlmo6QVS4AAAQIECBAgQIAAAQIERhcYjCnx6jgkvjf6oXkc0Zxg4YyYHHPjkcQ2NQ86VRAgQIAAAQIECBAgQIAAgcoElqSnCa4RB8Wjle3QpYWbESwMxHExFO/sUs+WIUCAAAECBAgQIECAAAECTRH4UXp7xEujL/1XcaZfeQcLA7FvovtqpnbKIkCAAAECBAgQIECAAAECvRHoi4+ngOHDvdmss13yDBaOS7d7TIkHO2vF0QQIECBAgAABAgQIECBAoHiBrdMbJH6XU5d5BQv96fkJfXFpuktht5yQ1EKAAAECBAgQIECAAAECBDISuCfWji3SPf7DzyGs/SufYGEg5qRA4eDaRRRAgAABAgQIECBAgAABAgSaIfD9dPfCnnWXWn+wMCeeHYvjF3VD2J8AAQIECBAgQIAAAQIECDRSYDDeEu+I0+uqvb5goT/WS03flP5es67m7UuAAAECBAgQIECAAAECBAoRWJgeLbBzesDj1b3up55goX/pHQrP7nWz9iNAgAABAgQIECBAgAABAoUL3JY+HrFZL3vsbbDQH0el5j7bywbtRYAAAQIECBAgQIAAAQIEWicwFF+KI+OgXvTdm2ChP56XmvlpLxqyBwECBAgQIECAAAECBAgQIPCYwKR4WxwWp1bpUW2wcEZMjrlxT2pgnSqbsDYBAgQIECBAgAABAgQIECCwUoFH0usp163q9ZTVBAtHx6TYKM5PLb3KYAkQIECAAAECBAgQIECAAIEsBG6Iu2LHODq9m7GLX90PFgbiH2MoPtfFGi1FgAABAgQIECBAgAABAgQIdEugLz378PB4b/eW69ZKJ8WGsTBuTctN7daS1iFAgAABAgQIECBAgAABAgQqERhMnzV4Tnr+wq8muvrE71joj9XSuzLvSHcpPHWixTifAAECBAgQIECAAAECBAgQ6KFAX8yPJbFlvGPp8xHH9TWxYKE/Tkm7vm1cOzuJAAECBAgQIECAAAECBAgQyEOgL36YPh7xsvEUM75gYXZ6KOOS+PZ4NnQOAQIECBAgQIAAAQIECBAgkKnAYOyd7l74ZifVdRYsfC6mp7/mpg1mdrKJYwkQIECAAAECBAgQIECAAIHGCMxNdy+smx57MDSWisceLAzEkWnJE8ayqGMIECBAgAABAgQIECBAgACBBgv0pc8pDKWXNBwR947WxdiChYG4JS24+WiL+XkCBAgQIECAAAECBAgQIECgIIGZsUEcsOoHO44eLPTHo4lkekEsWiFAgAABAgQIECBAgAABAgTGKjAUr06fYfjOyg5fdbDQH/enE9ca616OI0CAAAECBAgQIECAAAECBAoUmBI7xSHxyxV1tvJgYSAG08cfRr+joUAvLREgQIAAAQIECBAgQIAAAQJPErgrJsfRKSt40teKg4MT43cpUtgSIgECBAgQIECAAAECBAgQIEDgMYEl6WGOU0YPFgbinelOheOwESBAgAABAgQIECBAgAABAgSeJHBRChdevvz/9sQ7Fo5OycNGsQgbAQIEJiIwZdKUmDl5Zmy11lbx91v9fey31X6x+RrdebHM/EXz4xu//0Z849ZvxPdu/148uuTReHTxoykPHdMrdifSlnMJECBAgEDPBSb3TY7pk6fH1ElTY9PVN41d1t8lnrX2s2KLNbeI9WasF0+d9tSlNT246MG4f+H9cfMDN8f1918fl997eVw/7/pYNLho6e+VS4aW9Lx2GxIgULDApPirOCxuX9bhE4OF/vh9+onNCm5fawQIdFlgszU2i7023Sv232r/eOnGL+3y6p0tNzg0GN+67Vvx9Vu+HpfcfUnccP8NnS3gaAIECBAgUIPAcHiw29N2i5du9NLYa5O94vkbPD+mTZ5WSSW3PnRrnHnTmXH+refHj+7+UQz/3umLAAEC4xI44vFnMj4eLPTH1LTYwnEt6CQCBFojsP1Tt4/jX3R87Lb+brHalNWy73v4ToabH7w5vvn7b8bRVxwd8xbOy75mBRIgQIBA2QJPX/Pp8dkXfDae97Tnxfoz1q+92ZseuCm+cM0X4thfH1t7LQogQKBBAtNi2zgobhyuePlg4e707xs0qA2lEiDQA4E1p64ZH9rpQ/HPO/1zD3br3RYX3XlRvP3it8dd8++KxUOLe7exnQgQIECgdQJrTF0jPvjsD8a/POdfGtH7xXddHPtcuE/c++i9jahXkQQI1CZwf3rWwtLPY40EC8OvlRx+vaQvAgQIJIENZ24Yn9r9U/EPW/9DazxOvvHkOO7q4+LyP17emp41SoAAAQLVCcycMjM+s/tn4sgdjqxukx6s/NWbvhrv/vG7475H7+vBbrYgQKBxAtNiZrpr4dGRYGEgPpLChWMa14SCCRDoqsBpLz8t9nn6PjH88MU2f93zyD3x0as+Gl+4+gttZtA7AQIECIxD4IBtDojjXnhcrD519XGcne8p8xfPj4MvPnjp8xl8ESBAYDmB/053Lbx/WbCwIAUL1TwhhjkBAlkLPGPtZ8Qv3/TLGH5wlK8VCwx/5vRjv/iYP61xgRAgQIDACgWGH7T41Zd/NV6/xetbIfTvV/17HHPFMR782Ippa5LAKAJ9KUk4PCb1xdExKb1i0vtnXDEEWibw8d0+vvTznr46Exh+xeUHfvaB+NV9v+rsREcTIECAQHECw6H8Ba+5oPa3ItUFe8I1J8S7fvyuura3LwECuQisHVP6on/p6yWHXzPpiwCBFgj88G9/GHtstEcLOq2+xavnXh27nrPr0veD+yJAgACBdglc/neXx87r7dyuplfS7ed/8/l4z0/ew4IAgbYKDMbThx/a+KF088J/tNVA3wTaIDD8JypnvfKseP3m7bhFs46ZHnPlMfGxqz4Wiwe9YaIOf3sSIECgVwLu+Fu59PPOfV78/I8/79Uo7EOAQD4CHxm+Y2H4boXhuxZ8ESBQoMCnd/90vP9Z7y+wszxbuvH+G+ONF7wxhu9m8EWAAAEC5Qjsuv6u8b+v/1/PJBplpHfMvyM2+5/N0p9bDpUzfJ0QIDCawG3DwYL/rx+Nyc8TaKDA7k/bfek3QL7qEVg4uDD2+/5+8fVbvl5PAXYlQIAAga4J3P4Pt8fGq23ctfXasNA7L31nnHjtiW1oVY8ECCQBwYLLgEBhAjMmz4h7D7g3VpuyWmGdNbedgy4+KE6+4eTmNqByAgQItFRgp3V3iivfeGVLu59428PPIFrzpDVjyZDnxE9c0woE8hYQLOQ9H9UR6Ejgo8/9aHz4OR/u6BwH907gXy//16XPYfBFgAABAvkLnP6K02PfLffNv9AGVLjbubvF5X+8vAGVKpEAgfEKCBbGK+c8ApkJPHLwIzF98vTMqlLOigQOvOjA+PJvvwyHAAECBDIVePjgh2P4DkBf3ROYfd3sOPySw7u3oJUIEMhKQLCQ1TgUQ6Bzgb/d7G/jG3/zjc5PdEbtAjueuWNcO+/a2utQAAECBAiMCGy42oZx5z/ciaMigd898LvY5qvbVLS6ZQkQqFNAsFCnvr0JTFDgR3v/KF604YsmuIrT6xQY/ibrmWc9MxYsWVBnGfYmQIBA6wVe/VevjvNfdX7rHaoGeGjRQ7HWl9aqehvrEyDQYwHBQo/BbUegWwILD1kYUyZN6dZy1qlZ4Kybz4p9L/RZ3prHYHsCBFoq8Jat3hKnvfy0lnZfT9uTZk2qZ2O7EiBQiYBgoRJWixKoTmCj1TaKO/7hjuo2sHJtAkNDQ/GMs54R18+7vrYabEyAAIG2CXx01/Tg4508+LiOua97yroxd8HcOra2JwECXRYQLHQZ1HIEqhTYc9M943uv/l6VW1g7A4Gf/OEn8cJvvDCDSpRAgACBsgWOff6xcdQzjyq7ycy7W+2Lq8Xwayl9ESDQbAHBQrPnp/oWCRyy3SExa49ZLepYqxucukH88ZE/giBAgACBCgQ+tNOH4mO7egVwBbQdLzl9zvRYNLio4/OcQIBAPgKChXxmoRICKxUYvkVz+FZNX+0TOPOmM2O/7+/XvsZ1TIAAgQoFDtruoJizx5wKd7B0pwJrnLRGPLz44U5PczwBApkICBYyGYQyCKxM4PMv/Hy86xnvAtRigeEnaK//5fW9OaLF14DWCRDonsDLN355XPjaC7u3oJW6IjAUQzF51uSurGURAgR6LyBY6L25HQmMWeCfn/3P8R+7/ceYj3dg2QIvOe8lccndl5TdpO4IECBQocAaU9eIB97+QIU7WHoiAsOvXp75xZkTWcK5BAjUJCBYqAnetgRGEzh4u4Nj9h6zRzvMz7dM4MI7Loy9vrVXy7rWLgECBLojMHjYYHcWskplAlfde1Xscs4ula1vYQIEqhEQLFTjalUCExLYdf1d47I3XDahNZxcrsDwRyPW+tJa5TaoMwIECFQgcM/b7on1ZqxXwcqW7LbAR6/8aHzkio90e1nrESBQoYBgoUJcSxMYj8DwNz3D3/z4IjCawManbRx3P3z3aIf5eQIECLRe4PgXHR9H7nBk6x2aBODNSE2alloJRAgWXAUEMhKY1DcpFh+6OKOKlJK7wAE/PCBOvfHU3MtUHwECBGoT2GT1TeK2/W+rbX8bj09g+GGOU2dPjcEhH18Zn6CzCPRWQLDQW2+7EVilwCMHPxLTJ0+nRKAjgbNuPiv2vXDfjs5xMAECBNoi4LkKzZ307fNvj83+Z7PmNqByAi0SECy0aNhazVvg63t9PfbefO+8i1RdtgLXz7s+djhzh2zrUxgBAgTqELjijVfEc9Z9Th1b27NLAm+96K3xP7/9ny6tZhkCBKoSECxUJWtdAh0IPP9pz48fv/7HHZzhUAJ/KTB/8fxY86Q10RAgQIBAEtjhqTvE1ftczaIAgUmzJhXQhRYIlC0gWCh7vrprgEBfetTJksOWNKBSJTZBYOHgwpgxZ0YTSlUjAQIEKhVYdOiimNw3udI9LN4bgT888ofY6NSNerOZXQgQGJeAYGFcbE4i0D2B+QfPj5mTZ3ZvQSsRSALD4cJwyOCLAAECbRT44E4fjI/v+vE2tl5sz2/83hvj3N+fW2x/GiPQdAHBQtMnqP5GC+y16V7xnVd/p9E9KD5fgad+6anxwKIH8i1QZQQIEKhIwAMbK4KteVkfiah5ALYnsAoBwYLLg0CNAsMfgRj+KIQvAlUIDL+qa92T1415C+dVsbw1CRAgkKXARX97Ubxko5dkWZuiJiYw57o5cdglh01sEWcTIFCJgGChElaLEhhd4Csv/0rst9V+ox/oCAITFFjvlPXiTwv+NMFVnE6AAIH8BaZNmhaPHvJo/oWqcNwC7loYN50TCVQqIFiolNfiBFYu4DZNV0cvBTY9bdO48+E7e7mlvQgQINBzgQtfe2G8fOOX93xfG/ZO4LJ7Lovnf/35vdvQTgQIjElAsDAmJgcR6K7AwkMWxpRJU7q7qNUIjCLgzgWXCAECpQsI7Uuf8Eh/0+ZMi8WDi9vRrC4JNERAsNCQQSmzHIGNVtso7viHO8ppSCeNEljrS2vFQ4sealTNiiVAgMBYBM77m/PitZu9diyHOqbhAhffdXG87Jsva3gXyidQloBgoax56qYBAne+9c7YcOaGDahUiaUKrH7S6vHI4kdKbU9fBAi0VMDdCu0a/LTZ6a6FIXcttGvqus1ZQLCQ83TUVpzAIqmb5gAAIABJREFU5mtsHje/5ebi+tJQ8wSmzJ4Sg0ODzStcxQQIEFiBwJE7HBnHv+h4Ni0SOPuWs+PNF7y5RR1rlUDeAoKFvOejusIE7nrrXbHBzA0K60o7TRXwZO2mTk7dBAg8WeDBtz8Yq09dHUzLBPw+1rKBazdrAcFC1uNRXGkCbtMsbaLN7mf4wVfDD8DyRYAAgSYLPG3m0+Lut97d5BbUPk6B/X+wf5z+u9PHebbTCBDopoBgoZua1iKwCoGr33x17LD2DowIZCUwd8HcWPeUdbOqSTEECBDoROCkl54UB25zYCenOLYQgeGHEQ8/lNgXAQL1CwgW6p+BCloi4G6Flgy6gW1ede9Vscs5uzSwciUTIEAgwu+v7b4KnvKlp8SDix5sN4LuCWQgIFjIYAhKKF/g77b4u/jaK79WfqM6bKzA+beeH3t/d+/G1q9wAgTaKyBYaO/shzv/7G8+G+/7yfvajaB7AhkICBYyGIISyhe4bf/bYpPVNym/UR02WuDtP3x7nHLjKY3uQfEECLRL4ILXXBCv2OQV7Wpat38h4CGOLgoC9QsIFuqfgQoKF5jcNzkWHbqo8C61V4rAFl/ZIm596NZS2tEHAQKFCyw+dHFM6ptUeJfaG01gxpwZsXBw4WiH+XkCBCoUECxUiGtpAsMCr9v8dXHuXufCINAYAX/y05hRKZRA6wV8DKL1l8BSgIFrB+LIS4+EQYBAjQKChRrxbd0OgUcOfiSmT57ejmZ1WYTAosFFMX2Oa7aIYWqCQMEC+2+9f5z6slML7lBrnQgIxTvRciyB7gsIFrpvakUCTxDwpykuiCYKXDPvmnjmmc9sYulqJkCgJQKXvu7SeMEGL2hJt9ocTUCwMJqQnydQrYBgoVpfq7dcYPhOheE7FnwRaKLAqTeeGgf88IAmlq5mAgRaICC4b8GQO2hxz2/tGT+44wcdnOFQAgS6KSBY6KamtQg8SeDivS+OF2/4Yi4EGivwmu+8Jr5z23caW7/CCRAoU6Av+mLJYUvKbE5X4xL48d0/jhef53uuceE5iUAXBAQLXUC0BIGVCTx68KMxbfI0QAQaLfD0rzw9fv/Q7xvdg+IJEChLYPunbh/X7HNNWU3pZkICng80IT4nE5iwgGBhwoQWILByAbdpujpKEBiKoZg2e1osGfKngyXMUw8EShB4/1+/Pz79vE+X0IoeuijgOQtdxLQUgQ4FBAsdgjmcwFgF1puxXtzztnvGerjjCGQv4Bu27EekQAKtERi+W2H4rgVfBJYX2Pr0reOmB2+CQoBADQKChRrQbdkOgf/71/83Pvm8T7ajWV22QuD6+6+PHc7YoRW9apIAgbwF3BGY93zqqu4t339LfPWmr9a1vX0JtFpAsNDq8Wu+SoELX3thvHzjl1e5hbUJ9Fzg2F8fG+//6ft7vq8NCRAgsLyAYMH1sCKBr938tdjnwn3gECBQg4BgoQZ0W7ZDwIMb2zHnNnb5gq+/IH56z0/b2LqeCRDIRECwkMkgMitjcGgwpsyekllVyiHQDgHBQjvmrMsaBHzTUwO6LXsmsN4p68WfFvypZ/vZiAABAssL+D3W9bAyAc8Dcm0QqEdAsFCPu11bIOCbnhYMucUtDr8pYvKsyS0W0DoBAnUJ9EVfLDnMW2rq8s99X8FC7hNSX6kCgoVSJ6uvWgW8EaJWfpv3SODRJY/Gal9crUe72YYAAQIjAi/e8MVx8d4X4yCwQgHBgguDQD0CgoV63O1auMB2T90urt3n2sK71B6BiGvnXRs7nrkjCgIECPRM4H3Pel98ZvfP9Gw/GzVLQLDQrHmpthwBwUI5s9RJRgIv3OCFccnrLsmoIqUQqE7ghGtOiHf9+F3VbWBlAgQILCdw6stOjf233p8JgRUKCBZcGATqERAs1ONu18IFjtrxqDj2BccW3qX2CDwu8NLzXho/uvtHSAgQIFC5wC/e9Iv463X+uvJ9bNBMAcFCM+em6uYLCBaaP0MdZCjw+Rd+Pt71DH+Cm+FolFShwNTZU2PJkAeqVUhsaQIEksCtb7k1Nl1jUxYEViggWHBhEKhHQLBQj7tdCxf4zqu/E3ttulfhXWqPwF8K+IbOVUGAQNUC9x1wX6w9fe2qt7F+QwX8PtTQwSm78QKChcaPUAM5CrhNM8epqKkXAn9a8KdY75T1erGVPQgQaKnAnw78Uzx12lNb2r22RxMQLIwm5OcJVCMgWKjG1aotF/jdfr+Lp6/19JYraL+tAj/7489i93N3b2v7+iZAoGIBwULFwA1fXrDQ8AEqv7ECgoXGjk7hOQv84W1/iPVnrJ9ziWojUKnAMVccE8dceUyle1icAIF2CggW2jn3sXYtWBirlOMIdFdAsNBdT6sRWCpw7wH3xjrT16FBoNUCL/1melPEXd4U0eqLQPMEKhAQLFSAWtCSgoWChqmVRgkIFho1LsU2RUCw0JRJqbNqgeHnLQw/d8EXAQIEuiUgWOiWZJnrCBbKnKuu8hcQLOQ/IxU2UECw0MChKbkyAd/kVUZrYQKtFBAstHLsY27a7zljpnIgga4KCBa6ymkxAiMCggVXAoHHBRYMLoiZc2YiIUCAQFcEBAtdYSx2EcFCsaPVWOYCgoXMB6S8ZgoIFpo5N1VXJ3DZPZfF87/+/Oo2sDIBAq0RECy0ZtTjalSwMC42JxGYsIBgYcKEFiDwlwKCBVcFgb8U+ODPPhif+uWn0BAgQGBCAoKFCfEVf7JgofgRazBTAcFCpoNRVrMFBAvNnp/qqxPY7dzd4vI/Xl7dBlYmQKB4AcFC8SOeUIOChQnxOZnAuAUEC+OmcyKBlQsIFlwdBFYusMZJa8TDix9GRIAAgXEJCBbGxdaakwQLrRm1RjMTECxkNhDllCEgWChjjrqoTmDq7KmxZGhJdRtYmQCBYgUEC8WOtiuNCRa6wmgRAh0LCBY6JnMCgdEFBAujGzmi3QIPLXoo1vrSWu1G0D0BAuMSECyMi601JwkWWjNqjWYmIFjIbCDKKUNAsFDGHHVRrcA1c6+JZ571zGo3sToBAsUJCBaKG2lXGxIsdJXTYgTGLCBYGDOVAwmMXUCwMHYrR7Zb4Jgrj4ljrjim3Qi6J0CgIwHBQkdcrTtYsNC6kWs4EwHBQiaDUEZZAoKFsuapm2oFnnvOc+PKe6+sdhOrEyBQjIBgoZhRVtKIYKESVosSGFVAsDAqkQMIdC4gWOjczBntFvCNYLvnr3sCnQgIFjrRat+xfj9p38x1nIeAYCGPOaiiMAHBQmED1U7lAoNDgzF9znRviqhc2gYEmi8gWGj+DKvsQLBQpa61CaxcQLDg6iBQgYBgoQJUSxYvcN+j98X6X16/+D41SIDAxAQECxPzK/1swULpE9ZfrgKChVwno65GCwgWGj0+xdcocNMDN8XWX926xgpsTYBA7gKChdwnVG99goV6/e3eXgHBQntnr/MKBQQLFeJauniBf7vy3+LoK44uvk8NEiAwPgHBwvjc2nKWYKEtk9ZnbgKChdwmop4iBAQLRYxREzUK7HHeHnHp3ZfWWIGtCRDIVUCwkOtk8qhLsJDHHFTRPgHBQvtmruMeCAgWeoBsi+IFZn5xZixYsqD4PjVIgEBnAoKFzrzadrRgoW0T128uAoKFXCahjqIEBAtFjVMzNQr4BrFGfFsTyFRAsJDpYDIpy+8bmQxCGa0TECy0buQa7oWAYKEXyvZog8C8BfNinVPWaUOreiRAYIwCgoUxQrX0MMFCSwev7doFBAu1j0ABJQoIFkqcqp7qErjq3qtil3N2qWt7+xIgkJmAYCGzgWRWjmAhs4EopzUCgoXWjFqjvRQQLPRS215tEPCmiDZMWY8ExiYgWBibU1uPEiy0dfL6rltAsFD3BOxfpIBgocixaqpmgT3P3zN+cOcPaq7C9gQI1C0gWKh7AnnvL1jIez6qK1dAsFDubHVWo4BgoUZ8WxctsM7J68S8hfOK7lFzBAisWkCw4ApZlYBgwfVBoB4BwUI97nYtXECwUPiAtVergG8aa+W3OYHaBQQLtY8g6wL8HpH1eBRXsIBgoeDhaq0+AcFCffZ2Ll9g0eCimD5nevmN6pAAgRUKCBZcGO5YcA0QyE9AsJDfTFRUgIBgoYAhaiFrgV/c94vY+eyds65RcQQIVCMgWKjGtZRV3bFQyiT10TQBwULTJqbeRggIFhoxJkU2XOCTv/xk/PPP/rnhXSifAIFOBQQLnYq163jBQrvmrdt8BAQL+cxCJQUJCBYKGqZWshZ47jnPjSvvvTLrGhVHgEB3BQQL3fUsbTXBQmkT1U9TBAQLTZmUOhslIFho1LgU23ABb4po+ACVT6BDAcFCh2AtO1yw0LKBazcbAcFCNqNQSEkCgoWSpqmX3AWGYihmzJkRww919EWAQPkCgoXyZzyRDgULE9FzLoHxCwgWxm/nTAIrFRAsuDgI9FZgwZIFMfOLM3u7qd0IEKhFQLBQC3tjNhUsNGZUCi1MQLBQ2EC1k4eAYCGPOaiiXQJ3PXxXbHLaJu1qWrcEWiggWGjh0DtoWbDQAZZDCXRRQLDQRUxLEVgmIFhwLRCoR+ALV38hjvrfo+rZ3K4ECPREQLDQE+bGbiJYaOzoFN5wAcFCwweo/DwFBAt5zkVV7RDY47w94tK7L21Hs7ok0EIBwUILh95By4KFDrAcSqCLAoKFLmJaisAyAcGCa4FAvQLrnrJuzF0wt94i7E6AQCUCgoVKWItZVLBQzCg10jABwULDBqbcZggIFpoxJ1WWKzA0NBRT50yNwaHBcpvUGYGWCggWWjr4MbYtWBgjlMMIdFlAsNBlUMsRGBYQLLgOCNQvsHhwcUybM63+QlRAgEBXBQQLXeUsbjHBQnEj1VBDBAQLDRmUMpslIFho1rxUW67AzQ/eHFudvlW5DeqMQAsFBAstHHoHLQsWOsByKIEuCggWuohpKQLLBAQLrgUC+Qic+ttT44CLDsinIJUQIDAhAcHChPiKP1mwUPyINZipgGAh08Eoq9kCgoVmz0/15Qm8+YI3x9m3nF1eYzoi0EIBwUILh95By4KFDrAcSqCLAoKFLmJaisAyAcGCa4FAfgKbnLZJ3PXwXfkVpiICBDoSECx0xNW6gwULrRu5hjMRECxkMghllCUgWChrnropR8A3nOXMUiftFRAstHf2Y+ncr/NjUXIMge4LCBa6b2pFAt4K4RogkKmAN0VkOhhlEehAQLDQAVYLDxUstHDoWs5CQLCQxRgUUZqAOxZKm6h+ShK4Zu418cyznllSS3oh0CoBwUKrxt1xs4KFjsmcQKArAoKFrjBahMATBQQLrggCeQucedOZsd/398u7SNURILBCAcGCC2NVAoIF1weBegQEC/W427VwAcFC4QPWXhECb7rgTXHOLecU0YsmCLRJQLDQpml33qtgoXMzZxDohoBgoRuK1iDwJAHBgkuCQDMEtvnqNvG7B37XjGJVSYDAUgHBggthVQKCBdcHgXoEBAv1uNu1cAHBQuED1l5RAtPmTIvhhzr6IkCgGQKChWbMqa4qBQt1ydu37QKChbZfAfqvRECwUAmrRQlUJuAb0cpoLUyg6wKCha6TFrWgX8+LGqdmGiQgWGjQsJTaHAHBQnNmpVICwwK3PnRrbPGVLWAQINAAAcFCA4ZUY4mChRrxbd1qAcFCq8ev+aoEBAtVyVqXQHUCp/32tHjbRW+rbgMrEyDQFQHBQlcYi11EsFDsaDWWuYBgIfMBKa+ZAoKFZs5N1QT2/s7ecf5t54MgQCBjAcFCxsPJoDTBQgZDUEIrBQQLrRy7pqsWECxULWx9AtUJbH/G9nHD/TdUt4GVCRCYkIBgYUJ8xZ8sWCh+xBrMVECwkOlglNVsAcFCs+en+nYLDMVQzJgzIxYNLmo3hO4JZCogWMh0MJmUJVjIZBDKaJ2AYKF1I9dwLwQEC71QtgeBagV8c1qtr9UJjFdAsDBeuXac59fudsxZl/kJCBbym4mKChAQLBQwRC20XmDugrmx7inrtt4BAIHcBAQLuU0kr3oEC3nNQzXtERAstGfWOu2hgGChh9i2IlChwLdv+3a89juvrXAHSxMg0KmAYKFTsXYdL1ho17x1m4+AYCGfWaikIAHBQkHD1ErrBQ65+JA46YaTWu8AgEAuAoKFXCaRZx2ChTznoqryBQQL5c9YhzUICBZqQLclgQoFNj1t07jz4Tsr3MHSBAiMVUCwMFapdh4nWGjn3HVdv4Bgof4ZqKBAAcFCgUPVUusFfLPa+ksAQCYCgoVMBpFpGX6tznQwyipeQLBQ/Ig1WIeAYKEOdXsSqFZgydCSmD5negwODVa7kdUJEFilgGDBBbIqAcGC64NAPQKChXrc7Vq4gGCh8AFrr7UCdz98d2x82sat7V/jBHIQECzkMIV8axAs5DsblZUtIFgoe766q0lAsFATvG0J9EDgV3/6Vez0tZ16sJMtCBBYkYBgwXXhjgXXAIH8BAQL+c1ERQUICBYKGKIWCKxC4L0/eW987jefY0SAQA0CgoUa0Bu0pTsWGjQspRYlIFgoapyayUVAsJDLJNRBoDqBHc/aMa6de211G1iZAIEVCggWXBirEhAsuD4I1CMgWKjH3a6FCwgWCh+w9gg8JjB59uQYGhriQYBADwUECz3EbuBWgoUGDk3JRQgIFooYoyZyExAs5DYR9RCoRmD4TRFTZ0+tZnGrEiCwQgHBggtjVQKCBdcHgXoEBAv1uNu1cAHBQuED1h6B5QT+8MgfYqNTN2JCgECPBAQLPYJu6DaChYYOTtmNFxAsNH6EGshRQLCQ41TURKA6gUvvvjT2OG+P6jawMgECfxYQLLgYViUgWHB9EKhHQLBQj7tdCxcQLBQ+YO0RWIHAP132T/GZX32GDQECFQsIFioGbvjygoWGD1D5jRUQLDR2dArPWUCwkPN01EagOoHdz909fvbHn1W3gZUJEAjBgovAHQuuAQL5CQgW8puJigoQECwUMEQtEBinwJonrRnzF88f59lOI0BgNAHBwmhC7f55dyy0e/66r09AsFCfvZ0LFhAsFDxcrREYg4BvbMeA5BAC4xQQLIwTriWn+fW3JYPWZnYCgoXsRqKgEgQECyVMUQ8Exi8wb8G8WOeUdca/gDMJEFipgGDBxbEqAcGC64NAPQKChXrc7Vq4gGCh8AFrj8AYBL5/5/fjlee/cgxHOoQAgU4EBAudaLXvWMFC+2au4zwEBAt5zEEVhQkIFgobqHYIjFPgQz/7UHzil58Y59lOI0BgRQKCBdfFqgQEC64PAvUICBbqcbdr4QKChcIHrD0CHQg8+2vPjl//6dcdnOFQAgRWJSBYcH0IFlwDBPITECzkNxMVFSAgWChgiFog0EWBtU9eO+5feH8XV7QUgfYKCBbaO/uxdO6OhbEoOYZA9wUEC903tSKBECy4CAgQWF5gKIZi6uypMTg0CIYAgQkKCBYmCFj46YKFwgesvWwFBAvZjkZhTRYQLDR5emonUI3AwsGFMWPOjGoWtyqBFgkIFlo07HG0KlgYB5pTCHRBQLDQBURLEHiygGDBNUGAwIoErrrvqtjl7F3gECAwAQHBwgTwWnCqYKEFQ9ZilgKChSzHoqimCwgWmj5B9ROoTuCYK4+JY644proNrEygcAHBQuEDnmB7goUJAjqdwDgFBAvjhHMagVUJCBZcHwQIrEpgy9O3jFsevAUSAQLjEBAsjAOtRacIFlo0bK1mJSBYyGociilFQLBQyiT1QaA6gXVOXifmLZxX3QZWJlCogGCh0MF2qS3BQpcgLUOgQwHBQodgDicwFgHBwliUHEOg3QJLhpbE9DnTvSmi3ZeB7schIFgYB1qLThEstGjYWs1KQLCQ1TgUU4qAYKGUSeqDQLUCw6+fnDJ7SrWbWJ1AYQKChcIG2uV2BAtdBrUcgTEKCBbGCOUwAp0ICBY60XIsgXYL3PzgzbHV6Vu1G0H3BDoQECx0gNXCQwULLRy6lrMQECxkMQZFlCYgWChtovohUK3AZ3/z2XjfT95X7SZWJ1CIgGChkEFW1IZgoSJYyxIYRUCw4BIhUIGAYKECVEsSKFxgj/P2iEvvvrTwLrVHYOICgoWJG5a8gmCh5OnqLWcBwULO01FbYwUEC40dncIJ1Cqw5klrxvzF82utweYEchcQLOQ+oXrrEyzU62/39goIFto7e51XKCBYqBDX0gQKFhiKoZg8a3LBHWqNwMQFBAsTNyx5BcFCydPVW84CgoWcp6O2xgoIFho7OoUTqF1gwZIFMfOLM2uvQwEEchUQLOQ6mTzqEizkMQdVtE9AsNC+meu4BwKChR4g24JAwQJX3XtV7HLOLgV3qDUC4xcQLIzfrg1nChbaMGU95iggWMhxKmpqvIBgofEj1ACB2gW+fOOX48AfHlh7HQogkJuAYCG3ieRVj2Ahr3mopj0CgoX2zFqnPRQQLPQQ21YEChZ47XdeG9++7dsFd6g1Ap0LCBY6N2vTGYKFNk1brzkJCBZymoZaihEQLBQzSo0QqF1g49M2jrsfvrv2OhRAIBcBwUIuk8izDsFCnnNRVfkCgoXyZ6zDGgQECzWg25JAwQK+US54uFrrWECw0DFZq07w62Wrxq3ZjAQECxkNQynlCAgWypmlTgjkILBwcGHMmDMjh1LUQKB2AcFC7SPIugDBQtbjUVzBAoKFgoertfoEBAv12duZQKkCV8+9Op511rNKbU9fBMYsIFgYM1UrDxQstHLsms5AQLCQwRCUUJ6AYKG8meqIQA4CX7z+i3Hojw7NoRQ1EKhNQLBQG30jNhYsNGJMiixQQLBQ4FC1VL+AYKH+GaiAQKkCe31rr7jwjgtLbU9fBEYVECyMStTqAwQLrR6/5msUECzUiG/rcgUEC+XOVmcEchDY8vQt45YHb8mhFDUQ6LmAYKHn5I3aULDQqHEptiABwUJBw9RKPgKChXxmoRICJQoMxVBMmz0tlgwtKbE9PRFYpYBgwQWyKgHBguuDQD0CgoV63O1auIBgofABa49AJgK+gc5kEMroqYBgoafcjdvMr4uNG5mCCxEQLBQySG3kJSBYyGseqiFQqsBND9wUW39161Lb0xeBFQoIFlwY7lhwDRDIT0CwkN9MVFSAgGChgCFqgUBDBGZdNyuOuOSIhlSrTAITFxAsTNyw5BXcsVDydPWWs4BgIefpqK2xAoKFxo5O4QQaKfCqb70qvnfH9xpZu6IJdCogWOhUrF3HCxbaNW/d5iMgWMhnFiopSECwUNAwtUKgIQIbnrph3PPIPQ2pVpkExi8gWBi/XRvOFCy0Ycp6zFFAsJDjVNTUeAHBQuNHqAECjRTwDXUjx6boDgUECx2Ctexwvw62bODazUZAsJDNKBRSkoBgoaRp6oVAcwQWDS6KGXNmpJdRDjWnaJUS6FBAsNAhWMsOFyy0bODazUZAsJDNKBRSkoBgoaRp6oVAswRufejW2OIrWzSraNUS6EBAsNABVgsPFSy0cOhazkJAsJDFGBRRmoBgobSJ6odAswTOvvnsePOFb25W0aolMEYBwcIYoVp6mGChpYPXdu0CgoXaR6CAEgUECyVOVU8EmiXwxgveGOfecm6zilYtgTEICBbGgNTiQwQLLR6+1msVECzUym/zUgUEC6VOVl8EmiXwlC89JR5c9GCzilYtgVEEBAsukVUJCBZcHwTqERAs1ONu18IFBAuFD1h7BBokMGX2lBgcGmxQxUolsGoBwYIrRLDgGiCQn4BgIb+ZqKgAAcFCAUPUAoFCBOYvnh9rnrRmId1og0CEYMFVIFhwDRDIT0CwkN9MVFSAgGChgCFqgUBBAjfef2Nsd8Z2BXWklTYLCBbaPP3Re/dRiNGNHEGgCgHBQhWq1my9gGCh9ZcAAALZCZx8w8lx0MUHZVeXggh0KiBY6FSsXccLFto1b93mIyBYyGcWKilIQLBQ0DC1QqAggTdd8KY455ZzCupIK20UECy0cepj71mwMHYrRxLopoBgoZua1iLwmIBgwaVAgECuAn/1P38Vd8y/I9fy1EVgVAHBwqhErT5AsNDq8Wu+RgHBQo34ti5XQLBQ7mx1RqAEgcmzJsdQ+ssXgSYKCBaaOLXe1SxY6J21nQgsLyBYcD0QqEBAsFABqiUJEOiawPDrJ4dfQ+mLQBMFBAtNnFrvahYs9M7aTgQEC64BAhULCBYqBrY8AQITFrhu3nXxjDOfMeF1LECg1wKChV6LN2s/wUKz5qXacgTcsVDOLHWSkYBgIaNhZFjK9DnT49FDHo2+9JcvAnUKHPvrY+P9P31/nSXYm0DHAoKFjsladYJgoVXj1mxGAoKFjIahlHIEBAvlzLKKToa/6Xnhhi+MS/a+pIrlrUmgI4FXf/vV8d3bv9vROQ4mUKeAYKFO/fz3FizkPyMVlikgWChzrrqqWUCwUPMAMt9+2Tc9g4cNZl6p8toisO4p68bcBXPb0q4+Gy4gWGj4ACsuX7BQMbDlCaxEQLDg0iBQgYBgoQLUgpZc9k3PmlPXjPvffn9BnWmlyQLDH9FZNLioyS2ovSUCgoWWDHqcbQoWxgnnNAITFBAsTBDQ6QRWJCBYcF2sSmD5b3rets3b4uSXngyMQO0Cjy55NFb74mq116EAAqMJCBZGE2r3zwsW2j1/3dcnIFioz97OBQsIFgoebhdae/I3PefudW68bvPXdWFlSxCYmMCdD98Zm5626cQWcTaBigUECxUDN3x5wULDB6j8xgoIFho7OoXnLCBYyHk69de2om967nnbPbHejPXqL04FrRf43G8+F+/9yXtb7wAgXwHBQr6zyaEywUIOU1BDGwUEC22cup4rFxAsVE7c6A1W9k3P4kMXx6S+SY3uTfFlCLzkvJfEJXd7a0kZ0yyvC8FCeTPtZkeChW5qWovA2AUEC2O3ciSBMQsIFsZM1coDV/ZNz+S+ybHoUA/Pa+VFkWHTvjnPcChKWiqeJLlwAAAgAElEQVQgWHAhrErAr12uDwL1CAgW6nG3a+ECgoXCBzzB9lb1Tc9ma2wWt7zllgnu4HQCExcYiqGYNntaLBlaMvHFrECgiwKChS5iFriUYKHAoWqpEQKChUaMSZFNExAsNG1iva13tG963rDFG+LsV57d26LsRmAFAvMWzot1Tl6HDYGsBAQLWY0ju2JG+z02u4IVRKAQAcFCIYPURl4CgoW85pFbNWP5pmf4FZTDr6L0RaBugVsevCW2PH3LusuwP4E/CwgWXAyrEhjL77EECRDovoBgofumViQQggUXQTe+6bnp72+KLdbcAiaB2gU+/ouPx7/8/F9qr0MBBIYFBAuug278HkuRAIHuCggWuutpNQJLBQQLLoRufdMzeNggTAJZCLzi/FfERXdelEUtimi3gGCh3fMfrXt3LIwm5OcJVCMgWKjG1aotFxAstPwCGKX9Tr7p8aYI11JOAmt+ac2Yv2h+TiWppYUCgoUWDr2Dljv5PbaDZR1KgMAoAoIFlwiBCgQECxWgFrRkp9/0bPuUbeO6fa8rSEArTRbo9Pptcq9qz1NAsJDnXHKpyq9RuUxCHW0TECy0beL67YmAYKEnzI3dZDzf9Lzp6W+KM/c8s7E9K7wcgXkL0psiTvGmiHIm2rxOBAvNm1kvKx7P77G9rM9eBEoVECyUOll91SogWKiVP/vNx/tNz3CwMBww+CJQt8DwsxaGn7ngi0AdAv8/e/cBb1dV5n38ObemJwQSUghNAUORHoSA9N6RFkBCGkVHURhB/ajDFBwUEedFSnpAygjSBOkKgyKhE2IElCKkEBJCQtq9yW3vPsEo5ZZ9ztlrr2c963f56Iyy91rP83027MXfe+8hWPChHs6e5b5jw+mQShHQKUCwoHMuVBW4AMFC4AN0XH4lh545J82R4f2GO66Q5RHoWuDbT39bfjzrx11fyBUIZCxAsJAxqLHlKnnHGqOgHQRyFSBYyJWbzWIRIFiIZdLl9VnpoadhbIPUV9eXtzl3IZChwM537CyzlszKcEWWQqBrAYKFro1ivqLSd2zMdvSOQCUCBAuV6HEvAh0IECzwaHQmkMWhh4+h5BnTItB7evJJEc18UoSWecRQB8FCDFMuv8cs3rHl786dCMQrQLAQ7+zp3KEAwYJDXANLZ3HoGdxjsMw/fb4BDVoIXaBN2qRmck3y722ht0L9gQgQLAQyKE9lZvGO9VQ62yIQtADBQtDjo3itAgQLWiejo66sDj0nb3my/O+B/6ujKaqIWmB182rpNb1X1AY0n58AwUJ+1iHulNU7NsTeqRkBnwIECz712dusAMGC2dFm0liWh57bD75djt/8+EzqYhEEKhF4YuETss89+1SyBPcikEqAYCEVU7QXZfmOjRaRxhEoQ4BgoQw0bkGgKwGCha6E4v7zWR96Xj35Vdmq71Zxo9K9CoELZ14oV86+UkUtFGFXgGDB7myz6Czrd2wWNbEGAjEIECzEMGV6zF2AYCF38qA2zPrQU5CCrBm3RmqqaoJyoFibAoN+MUgWNS6y2RxdqRAgWFAxBrVFZP2OVdsohSGgTIBgQdlAKMeGAMGCjTm66sLVoadlQksSMRRclc26CKQW6D0j+aSIJj4pIjUYF5YkQLBQEld0F7t6x0YHScMIlChAsFAiGJcjkEaAYCGNUrzXuDr0bNhtQ1n85cXxwtK5GoGm1ibpNq2btLXxSRFqhmKoEIIFQ8N00Iqrd6yDUlkSAVMCBAumxkkzWgQIFrRMQmcdLg89Bw89WB484kGdjVNVVAINzQ3Sc3rPqHqm2XwECBbycQ51F5fv2FBNqBuBPAQIFvJQZo/oBAgWoht5SQ27PvRM/uJkGbfNuJJq4mIEXAjMfn+27Hj7ji6WZs2IBQgWIh5+itZdv2NTlMAlCEQpQLAQ5dhp2rUAwYJr4bDXz+PQM//0+TK4x+CwoajehMAPnv2B/NcL/2WiF5rQIUCwoGMOWqvI4x2rtXfqQsCnAMGCT332NitAsGB2tJk0ltehp3VCayb1sggClQrscscu8uKSFytdhvsRWCdAsMCD0JlAXu9YpoAAAh8XIFjgiUDAgQDBggNUQ0vmdegpfvxk49hGqSpUGdKjlVAFekzrIY0tjaGWT92KBAgWFA1DYSl5vWMVtk5JCHgVIFjwys/mVgUIFqxONpu+8jz0DOk5ROadNi+bwlkFgQoEWttapWZKTQUrcCsCHwoQLPAkdCaQ5zuWSSCAwD8FCBZ4GhBwIECw4ADV0JJ5H3q23WBb+dOJfzIkSCuhCqxuXi29pvcKtXzqViJAsKBkEErLyPsdq5SBshDIXYBgIXdyNoxBgGAhhimX36OPQ8//7Pk/8rXtv1Z+0dyJQEYCj7/zuOx3734ZrcYyMQoQLMQ49fQ9+3jHpq+OKxGwK0CwYHe2dOZRgGDBI34AW/s69Mw+cbZst8F2AQhRonWBn8z6iVz09EXW26Q/RwIEC45gjSzr6x1rhI82EChbgGChbDpuRKBjAYIFno7OBHweeprHN/PLHHk8VQjsdfdeMnPRTBW1UERYAgQLYc0r72p9vmPz7pX9ENAkQLCgaRrUYkaAYMHMKJ004vPQUygUpGV8i5O+WBSBUgX639Bflq1ZVuptXB+5AMFC5A9AF+37fMcyGQRiFiBYiHn69O5MgGDBGa2JhX0fegb1GCQLTl9gwpImwhfw/ddD+ILxdUCwEN/MS+mYv6eUosW1CGQnQLCQnSUrIfAPAYIFHobOBDQceg4fdrj85rDfMCgEvAs0NDdIz+k9vddBAeEIECyEMysflWp4x/romz0R8C1AsOB7AuxvUoBgweRYM2tKy6Hnqr2ukq9u99XM+mIhBMoVeHLRkzLy7pHl3s59kQkQLEQ28BLb1fKOLbFsLkcgeAGCheBHSAMaBQgWNE5FT02aDj3Pn/C87LThTnpwqCRagUtfuFS+/+z3o+2fxtMLECykt4rxSk3v2Bj96TleAYKFeGdP5w4FCBYc4hpYWtuhZ+WYldKjpocBWVoIXWCXO3aRF5e8GHob1O9YgGDBMXDgy2t7xwbOSfkIpBYgWEhNxYUIpBcgWEhvFeOVGg89rRNaYxwFPSsUGHLTEFm4eqHCyihJiwDBgpZJ6KxD4ztWpxRVIZCtAMFCtp6shsA6AYIFHoTOBDQeevrW9ZWlo5cyOAS8C7S2tUrd1Dop/l++EGhPgGCB5yK0dywTQyAGAYKFGKZMj7kLECzkTh7UhhqDhSLgIZscIg8c/kBQlhRrV0DrXyd2xcPpjGAhnFn5qJS/d/hQZ08ERAgWeAoQcCBAsOAA1dCSmg89V3zhCvnmDt80pE0roQr8eemfZftfbR9q+dTtUIBgwSGugaU1v2MN8NICAh0KECzwcCDgQIBgwQGqoSW1H3peP/V12aL3FobEaSVUgZ/N/plcMPOCUMunbkcCBAuOYI0sq/0da4SZNhD4lADBAg8FAg4ECBYcoBpaMoRDz/Kzlkuv2l6G1GklVIF97tlHnlj4RKjlU7cDAYIFB6iGlgzhHWuIm1YQ+IcAwQIPAwIOBAgWHKAaWjKEQ091oVrWjFsjVYUqQ/K0EqrA4BsHy7sN74ZaPnVnLECwkDGoseVCeMcaI6cdBNYJECzwICDgQIBgwQGqoSVDOfTUV9dLw9gGQ/K0EqpAm7RJzeSa5N/bQm2BujMUIFjIENPgUqG8Yw3S01LkAgQLkT8AtO9GgGDBjauVVUM69IwYOEJmHjvTCj19BCzQ3NYsdVPqAu6A0rMSIFjIStLmOiG9Y21OgK5iFSBYiHXy9O1UgGDBKW/wi4d26LlsxGVy0Y4XBe9OA+ELzF81X4bdPCz8RuigIgGChYr4zN8c2jvW/EBoMBoBgoVoRk2jeQoQLOSpHd5eIR563hr1lgzrxT/Qhfe02av4jjfvkBMfOdFeY3SUWoBgITVVlBeG+I6NclA0bU6AYMHcSGlIgwDBgoYp6K0h1EPPijErpGdNT72wVBaNwCm/PUVue+O2aPql0Y8LECzwRHQmEOo7lqkiELoAwULoE6R+lQIECyrHoqaoUA89NVU1snbcWjWOFBK3QP/r+8uytcviRoi0e4KFSAefsu1Q37Ep2+MyBNQKECyoHQ2FhSxAsBDy9NzXHvKhh0+KcP98sEN6gZD/WkrfJVd+UoBggWeC71jgGUBAnwDBgr6ZUJEBAYIFA0N02ELo/zC020a7ydPHP+1QiKURSCewpmWN9JjWg4+hTMdl5iqCBTOjdNJI6O9YJygsikAOAgQLOSCzRXwCBAvxzbyUji0cer6z03fk0t0vLaVtrkXAicDcVXNls5s3c7I2i+oUIFjQORctVVl4x2qxpA4EShEgWChFi2sRSClAsJASKtLLrBx6nj7uadltwG6RTpG2NQk8u/hZGXHXCE0lUYtDAYIFh7gGlrbyjjUwClqITIBgIbKB024+AgQL+TiHuoulQ8/qsaulW3W3UEdB3YYEzv3DuTLp5UmGOqKVjgQIFng2OhOw9I5l0giEJECwENK0qDUYAYKFYEblpVBrh57WCa1eHNkUgU8KDL9tuLy67FVgjAsQLBgfcIXtWXvHVsjB7QjkJkCwkBs1G8UkQLAQ07RL79XaoadPbR9ZdhYf+1f6k8AdLgRqp9RKS1uLi6VZU4kAwYKSQSgtw9o7VikzZSHwKQGCBR4KBBwIECw4QDW0pMVDz36D95PfHfU7Q1OilVAFWttapWZKTajlU3cKAYKFFEgRX2LxHRvxOGk9IAGChYCGRanhCBAshDMrH5VaPfRctONFctmIy3yQsicCHxN4t+FdGXzjYFSMChAsGB1sRm1ZfcdmxMMyCDgTIFhwRsvCMQsQLMQ8/a57t3zo4ZMiup4/V+Qj8OiCR+XA3xyYz2bskqsAwUKu3MFtZvkdG9wwKDgqAYKFqMZNs3kJECzkJR3mPtYPPYu+vEg26rZRmMOhalMC33rqW3LFS1eY6olmRAgWeAo6E7D+jmX6CGgVIFjQOhnqClqAYCHo8Tkv3vqhpyAFaZnAL89z/iCxQSqBPe7aQ55Z/Eyqa7koDAGChTDm5KtK6+9YX67si0BXAgQLXQnx5xEoQ4BgoQy0iG6J4dBTXaiWpvFNEU2VVjUL9J3RV1Y0rdBcIrWVIECwUAJWhJfG8I6NcKy0HIAAwUIAQ6LE8AQIFsKbWZ4Vx3Lo2XPjPeWJY57Ik5a9EOhQIJa/7mJ4BAgWYphy+T3y13r5dtyJQCUCBAuV6HEvAh0IECzwaHQmENOh5we7/EAu2fUSHggEvAsUv2Oh+J0LfIUvQLAQ/gxddhDTO9alI2sjUKoAwUKpYlyPQAoBgoUUSBFfEtuhZ9aXZskO/XeIeOK0rkXgiXefkH1+vY+WcqijTAGChTLhIrkttndsJGOlzQAECBYCGBIlhidAsBDezPKsOMZDD58UkecTxl6dCVz6wqXy/We/D1LAAgQLAQ8vh9JjfMfmwMoWCHQpQLDQJREXIFC6AMFC6WYx3RHjoaeqULXulzkWPzGCLwR8C+x+5+7y3HvP+S6D/csUIFgoEy6S22J8x0YyWtpULkCwoHxAlBemAMFCmHPLq+pYDz18UkReTxj7pBHY+Bcby+LGxWku5RplAgQLygairJxY37HKxkA5EQoQLEQ4dFp2L0Cw4N445B1iPvRs3397eelLL4U8Pmo3JFA3pU6a25oNdRRHKwQLccy53C5jfseWa8Z9CGQhQLCQhSJrIPAJAYIFHonOBGI/9Fz4+Qvl8j0u5yFBwLtAS1uL1E6p9V4HBZQmQLBQmldsV8f+jo1t3vSrR4BgQc8sqMSQAMGCoWE6aIVDj8jvj/m9jNx4pANdlkSgNIHXPnhNtr5169Ju4mqvAgQLXvnVb847Vv2IKNCoAMGC0cHSll8BggW//tp359Dz4YRWjV0l3au7ax8X9UUg8PM5P5ev//HrEXRqo0WCBRtzdNUF71hXsqyLQOcCBAs8IQg4ECBYcIBqaEkOPf8cZuuEVkOTpZWQBfa8e095atFTIbcQTe0EC9GMuqxGeceWxcZNCFQsQLBQMSELIPBpAYIFnorOBDj0/FOnd21v+eCsD3hgEFAhsMlNm8iC1QtU1EIRHQsQLPB08I7lGUBAnwDBgr6ZUJEBAYIFA0N02ALBwsdxt9tgO5l94myH4iyNQDqBtrY26TatmzS1NqW7gau8CBAseGEPZlPescGMikKNCRAsGBso7egQIFjQMQetVXDo+fRkxn1unEzeZ7LWkVFXZAL8Nap74AQLuufjuzr++vU9AfaPVYBgIdbJ07dTAYIFp7zBL86hp/0RPnj4g3LwJgcHP18aCF9gSeMSGfCLAeE3YrQDggWjg82oLd6xGUGyDAIlChAslAjG5QikESBYSKMU7zUcejqe/dLRS6VvXd94Hw46VyNw+5u3y0mPnKSmHgr5pwDBAk9DZwK8Y3k+EPAjQLDgx51djQsQLBgfcIXtcejpHLBlQosUkj/4QsC3wBmPniE3v3az7zLY/xMCBAs8EgQLPAMI6BMgWNA3EyoyIECwYGCIDlsgWOgcl0+KcPjwsXTJAsNuGibzV88v+T5ucCdAsODO1sLKvGMtTJEeQhQgWAhxatSsXoBgQf2IvBbIoadr/u032F5eOvGlri/kCgRyEKiZXCOtyR986RAgWNAxB61V8I7VOhnqsi5AsGB9wvTnRYBgwQt7MJty6Ek3qn/9/L/Kj/f4cbqLuQoBhwLFj6GsmVojxf/Ll38BggX/M9BcAe9YzdOhNssCBAuWp0tv3gQIFrzRB7Exh570Y/r1ob+WozY9Kv0NXImAI4F3Vr8jQ28a6mh1li1FgGChFK34ruUdG9/M6ViHAMGCjjlQhTEBggVjA824HQ49pYHOP32+DO4xuLSbuBoBBwKzlsySne/Y2cHKLFmKAMFCKVrxXcs7Nr6Z07EOAYIFHXOgCmMCBAvGBppxOxx6SgdtHt8sVYWq0m/kDgQyFrj46Yvl8lmXZ7wqy5UiQLBQilZ81/KOjW/mdKxDgGBBxxyowpgAwYKxgWbcDoee0kGLHz9Z/BhKvhDQILDbnbvJ8+89r6GUKGsgWIhy7Kmb5h2bmooLEchUgGAhU04WQ+BDAYIFnoTOBDj0lPd8DO83XOacNKe8m7kLgYwF+Os4Y9ASliNYKAErwkv5azPCodOyCgGCBRVjoAhrAgQL1iaabT8cesr3vGCHC+QnX/hJ+QtwJwIZCbRJ8kkRycdQFv8vX/kKECzk6x3abrxjQ5sY9VoRIFiwMkn6UCVAsKBqHOqK4dBT2UgePuJhOXDogZUtwt0IZCCwqGGRDLpxUAYrsUQpAgQLpWjFdy3v2PhmTsc6BAgWdMyBKowJECwYG2jG7XDoqRx02VnLpE9tn8oXYgUEKhR46f2XZKfbd6pwFW4vRYBgoRSt+K7lHRvfzOlYhwDBgo45UIUxAYIFYwPNuB0OPdmANoxtkPrq+mwWYxUEKhD4z+f/U/7tuX+rYAVuLUWAYKEUrfiu5R0b38zpWIcAwYKOOVCFMQGCBWMDzbgdDj3ZgBZDhWK4wBcCGgQOu/8weWjeQxpKMV8DwYL5EVfUIO/Yivi4GYGyBQgWyqbjRgQ6FiBY4OnoTIBDT3bPR/HHIYo/FsEXAhoE+l/fX5at5Xl0PQuCBdfCYa/POzbs+VF9uAIEC+HOjsoVCxAsKB6OgtI49GQ7hDFbj5Gp+07NdlFWQ6BMAf76LhOuhNsIFkrAivBS/hqMcOi0rEKAYEHFGCjCmgDBgrWJZtsPh55sPYur3X3I3XL0ZkdnvzArIlCiQENLg/Sc1rPEu7i8FAGChVK04ruWd2x8M6djHQIECzrmQBXGBAgWjA0043Y49GQM+vflWia0SCH5gy8EfAu8vPRl2e5X2/kuw+z+BAtmR5tJY7xjM2FkEQRKFiBYKJmMGxDoWoBgoWujmK/g0ONu+mvGrZHaqlp3G7AyAikFfvLST+Sipy5KeTWXlSJAsFCKVnzX8o6Nb+Z0rEOAYEHHHKjCmADBgrGBZtwOh56MQT+yXM+anrJizAp3G7AyAiUIHPfQcfLrt35dwh1cmkaAYCGNUrzX8I6Nd/Z07leAYMGvP7sbFSBYMDrYjNri0JMRZAfL9K/vL8W/BvlCQIPAwF8MlPcaeR6znAXBQpaa9tbiHWtvpnQUhgDBQhhzosrABAgWAhtYzuVy6HEPfuZWZ8qM/Wa434gdEEghUD+1Xppam1JcySVpBAgW0ijFew3v2HhnT+d+BQgW/Pqzu1EBggWjg82oLQ49GUF2scxN+98koz47Kp/N2AWBTgRa2lqkdgq/+yOrh4RgIStJm+vwjrU5V7rSL0CwoH9GVBigAMFCgEPLsWQOPflhLzh9gQzqMSi/DdkJgQ4EFqxeIJvctAk+GQgQLGSAaHgJ3rGGh0trqgUIFlSPh+JCFSBYCHVy+dTNoScf5/W78DGU+XqzW8cCN752o5z56JkQVShAsFAhoPHbeccaHzDtqRUgWFA7GgoLWYBgIeTpua+dQ49744/uUF9dLw1jG/LdlN0Q6EDg5N+eLL9641f4VCBAsFABXgS38o6NYMi0qFKAYEHlWCgqdAGChdAn6LZ+Dj1ufdtbffPem8sbp76R/8bsiEA7AoNvHCzvNryLTZkCBAtlwkVyG+/YSAZNm+oECBbUjYSCLAgQLFiYorseOPS4s+1s5dFbj5bp+073szm7IvAJgT4z+sjKppW4lCFAsFAGWkS38I6NaNi0qkqAYEHVOCjGigDBgpVJuumDQ48b1zSr3rj/jXLaZ09LcynXIOBUoPjxk8WPoeSrdAGChdLNYrqDd2xM06ZXTQIEC5qmQS1mBAgWzIzSSSMcepywpl70b6P+Jpv22jT19VyIgCuB5tZmqZta52p5s+sSLJgdbSaN8Y7NhJFFEChZgGChZDJuQKBrAYKFro1ivoJDj//pN45tlLpq/oHO/ySo4L6375OjHjwKiBIECBZKwIrwUt6xEQ6dllUIECyoGANFWBMgWLA20Wz74dCTrWc5q1UXqqVpfFM5t3IPApkLfOUPX5HrXr4u83WtLkiwYHWy2fTFOzYbR1ZBoFQBgoVSxbgegRQCBAspkCK+hEOPjuEP7TlU5p42V0cxVBG9wCY3bSILVi+I3iENAMFCGqV4r+EdG+/s6dyvAMGCX392NypAsGB0sBm1xaEnI8gMljn9s6fLL/b/RQYrsQQClQv0mNZDGlsaK1/I+AoEC8YHXGF7vGMrBOR2BMoUIFgoE47bEOhMgGCB56MzAQ49up6Pew69R47c9EhdRVFNlAItbS1SO6U2yt5LaZpgoRSt+K7lHRvfzOlYhwDBgo45UIUxAYIFYwPNuB0OPRmDZrBc8Uciij8awRcCvgVWNK2QvjP6+i5D9f4EC6rH47043rHeR0ABkQoQLEQ6eNp2K0Cw4NY39NU59Oic4Kqxq6R7dXedxVFVVAIzF82Uve7eK6qeS2mWYKEUrfiu5R0b38zpWIcAwYKOOVCFMQGCBWMDzbgdDj0Zg2a0HJ8UkREky2Qi8O/P/bv8+/P/nsla1hYhWLA20Wz74R2brSerIZBWgGAhrRTXIVCCAMFCCVgRXsqhR+/Qe9X2kuVnLddbIJVFJTDirhHy7OJno+o5TbMEC2mU4r2Gd2y8s6dzvwIEC3792d2oAMGC0cFm1BaHnowgHS1z/ObHy+0H3+5odZZFoDSBmik10trWWtpNxq8mWDA+4Arb4x1bISC3I1CmAMFCmXDchkBnAgQLPB+dCXDo0f983HTATTLqM6P0F0qFUQjw94yPj5lgIYrHvuwm+eulbDpuRKAiAYKFivi4GYH2BQgWeDIIFsJ/BuadPk+G9BgSfiN0ELzAksYlMuAXA4LvI6sGCBaykrS5DsGCzbnSlX4BggX9M6LCAAUIFgIcWo4lc+jJEbvCrZrGN0nxlzryhYBvgacWPSV73r2n7zJU7E+woGIMaovgHat2NBRmXIBgwfiAac+PAMGCH/dQduXQE8qkRArJHy0TWsIpmEpNC/xs9s/kgpkXmO4xTXMEC2mU4r2Gd2y8s6dzvwIEC3792d2oAMGC0cFm1BaHnowgc1qm+OMQxR+L4AsBDQIH/OYAeWzBYxpK8VYDwYI3+iA25h0bxJgo0qAAwYLBodKSfwGCBf8z0FwBhx7N02m/tv2H7C+/PfK34RVOxSYFNrphI3l/zfsme0vTFMFCGqV4r+EdG+/s6dyvAMGCX392NypAsGB0sBm1xaEnI8icl7l65NVy3rbn5bwr2yHQvkDMfx8hWOCvis4EYv5rgycDAZ8CBAs+9dnbrADBgtnRZtIYh55MGL0s8vJJL8s2/bbxsjebIvBRgdXNq6XX9F5RohAsRDn21E3zjk1NxYUIZCpAsJApJ4sh8KEAwQJPAv9rit1noHVCq93m6CwogReXvCi73LFLUDVnUSzBQhaKdtcgWLA7WzrTLUCwoHs+VBeoAMFCoIPLqWwOPTlBO9qmqlAlzeObHa3OsgiUJvDDF38o33vme6XdFPjVBAuBD9Bx+bxjHQOzPAIdCBAs8Ggg4ECAYMEBqqElOfSEP8zNem0mb456M/xG6MCEwKH3HSoPz3/YRC9pmiBYSKMU7zW8Y+OdPZ37FSBY8OvP7kYFCBaMDjajtjj0ZATpeZnDhh0m9x12n+cq2B6BDwUG/WKQLGpcFAUHwUIUYy67Sd6xZdNxIwIVCRAsVMTHzQi0L0CwwJPRmQCHHjvPx4z9ZsiZW51ppyE6CVqgdkqttLS1BN1DmuIJFtIoxXsN79h4Z0/nfgUIFvz6s7tRAYIFo4PNqC0OPRlBKlnm+ROel5023ElJNZQRs0BzW7PUTakzT0CwYH7EFTXIO7YiPm5GoGwBgoWy6bgRgY4FCBZ4OjoT4NBj7/lYNWaVdK/pbq8xOgpO4JVlr8i2t4VmzJ8AACAASURBVG0bXN2lFEywUIpWfNfyjo1v5nSsQ4BgQcccqMKYAMGCsYFm3A6HnoxBlSzHx1AqGQRlyBUvXSHfeupbZiUIFsyONpPGeMdmwsgiCJQsQLBQMhk3INC1AMFC10YxX8Ghx+b0+9f3l+Jf+3whoEHggHsPkMfeeUxDKZnXQLCQOampBXnHmhonzQQkQLAQ0LAoNRwBgoVwZuWjUg49PtTz2fPITY+Uew69J5/N2AWBLgS6T+sua1rWmHMiWDA30kwb4h2bKSeLIZBagGAhNRUXIpBegGAhvVWMV3LosT316ftOl9Fbj7bdJN0FI1A/tV6aWpuCqTdNoQQLaZTivYZ3bLyzp3O/AgQLfv3Z3agAwYLRwWbUFoeejCAVLzPnpDkyvN9wxRVSWiwCK5tWSp8ZfUy1S7BgapyZN8M7NnNSFkQglQDBQiomLkKgNAGChdK8YruaQ08cE187bq3UVNXE0SxdqhZYsmaJDLhhgOoaSymOYKEUrfiu5R0b38zpWIcAwYKOOVCFMQGCBWMDzbgdDj0Zgypernl8s1QVqhRXSGmxCEx8eaKc94fzTLRLsGBijM6a4B3rjJaFEehUgGCBBwQBBwIECw5QDS3JocfQMLtoZYP6DWTJmUviaZhOVQsc8+Axcu/b96quMU1xBAtplOK9hndsvLOnc78CBAt+/dndqADBgtHBZtQWh56MIANZZuSgkfL7o38fSLWUaV2gbkqdNLc1B90mwULQ43NePO9Y58RsgEC7AgQLPBgIOBAgWHCAamhJDj2GhpmylWv3vlbOGX5Oyqu5DAG3ArVTaqWlrcXtJg5XJ1hwiGtgad6xBoZIC0EKECwEOTaK1i5AsKB9Qn7r49Dj19/X7m+Pels26bWJr+3ZF4F/CKxoWiF9Z/QNVoRgIdjR5VI479hcmNkEgU8JECzwUCDgQIBgwQGqoSU59BgaZomttE5oLfEOLkfAjcC8VfNk05s3dbO441UJFhwDB74879jAB0j5wQoQLAQ7OgrXLECwoHk6/mvj0ON/Br4qqK2qlcZxjVJI/uALAd8CoX5SBMGC7ydH9/68Y3XPh+rsChAs2J0tnXkUIFjwiB/A1hx6AhiSwxKH9Bgi806f53AHlkYgvcApvz1FbnvjtvQ3KLiSYEHBEBSXwDtW8XAozbQAwYLp8dKcLwGCBV/yYezLoSeMObmscsTAETLz2Jkut2BtBFILDLpxkCxqWJT6et8XEiz4noDu/XnH6p4P1dkVIFiwO1s68yhAsOARP4CtOfQEMKQcSrx65NVy3rbn5bATWyDQtUBIf18iWOh6njFfEdKzHPOc6N2eAMGCvZnSkQIBggUFQ1BcAocexcPJubTZJ86W7TbYLudd2Q6BTws0tzZL3dS6IGgIFoIYk7ciecd6o2fjyAUIFiJ/AGjfjQDBghtXK6ty6LEyyWz6aB7fLFWFqmwWYxUEKhCYs3SO7PCrHSpYIZ9bCRbycQ51F96xoU6OukMXIFgIfYLUr1KAYEHlWNQUxaFHzSjUFMLHUKoZRfSFXDn7Srlw5oWqHQgWVI/He3G8Y72PgAIiFSBYiHTwtO1WgGDBrW/oq3PoCX2C2dfPJ0Vkb8qK5Qsc8JsD5LEFj5W/gOM7CRYcAwe+PO/YwAdI+cEKECwEOzoK1yxAsKB5Ov5r49DjfwYaKzjlM6fILQfcorE0aopQYMMbNpSla5aq7JxgQeVY1BTFO1bNKCgkMgGChcgGTrv5CBAs5OMc6i4cekKdnPu6p+87XUZvPdr9RuyAQAqB+qn10tTalOLKfC8hWMjXO7TdeMeGNjHqtSJAsGBlkvShSoBgQdU41BXDoUfdSFQV9NdT/iqf6fMZVTVRTJwCjS2N0mNaD3XNEyyoG4mqgnjHqhoHxUQkQLAQ0bBpNT8BgoX8rEPciUNPiFPLt+bVY1dLt+pu+W7Kbgi0I/DWyrdki1u2UGVDsKBqHOqK4R2rbiQUFIkAwUIkg6bNfAUIFvL1Dm03Dj2hTSz/eosfP1n8GEq+ENAgcPmsy+Xipy/WUMq6GggW1IxCZSG8Y1WOhaIiECBYiGDItJi/AMFC/uYh7cihJ6Rp+au1X12/df8AxRcCGgR2vmNnmbVkloZSCBZUTEFvEbxj9c6GymwLECzYni/deRIgWPAEH8i2HHoCGZSCMo/f4ni5/aDbFVRCCQiI9JnRR1Y2rfROwXcseB+B6gJ4x6oeD8UZFiBYMDxcWvMnQLDgzz6EnTn0hDAlPTXySRF6ZhF7JS1tLVI3pU7akj98fhEs+NTXvzfvWP0zokKbAgQLNudKV54FCBY8D0D59hx6lA9IYXkfnPWB9K7trbAySopNYHXzauk1vZfXtgkWvPKr35x3rPoRUaBRAYIFo4OlLb8CBAt+/bXvzqFH+4R01rdyzErpUaPvo/90alGVS4Hn3ntOdr9zd5dbdLo2wYI3+iA25h0bxJgo0qAAwYLBodKSfwGCBf8z0FwBhx7N09FbW311vRQ/hrKQ/MEXAr4FfvjiD+V7z3zPSxkEC17Yg9mUd2wwo6JQYwIEC8YGSjs6BAgWdMxBaxUcerRORn9d3Wu6y6oxq/QXSoVRCOxx1x7yzOJncu+VYCF38qA25B0b1Lgo1pAAwYKhYdKKHgGCBT2z0FgJhx6NUwmnpkM2OUQeOPyBcAqmUtMCxd+3UPy9C3l+ESzkqR3eXrxjw5sZFdsQIFiwMUe6UCZAsKBsIMrK4dCjbCABlnP1yKvlvG3PC7BySrYokPff0wgWLD5F2fWU9/OYXeWshEDYAgQLYc+P6pUKECwoHYySsjj0KBlE4GXMPW2uDO05NPAuKN+CwPK1y6Xf9f1ya4VgITfqIDfiHRvk2CjagADBgoEh0oI+AYIFfTPRVBGHHk3TCLuWxnGNUldVF3YTVG9C4P6598uRDxyZSy8EC7kwB7sJ79hgR0fhgQsQLAQ+QMrXKUCwoHMuWqri0KNlEuHXUVtVK2vGrQm/ETowIXD+H8+Xq+Zc5bwXggXnxEFvwDs26PFRfMACBAsBD4/S9QoQLOidjYbKOPRomIKdGvrV9ZPiP2jxhYAGgS1u2ULeWvmW01IIFpzyBr8479jgR0gDgQoQLAQ6OMrWLUCwoHs+vqvj0ON7Avb2P3qzo+XuQ+621xgdBSlQ/H0Lxd+74OqLYMGVrI11ecfamCNdhCdAsBDezKg4AAGChQCG5LFEDj0e8Q1v/eM9fiz/+vl/NdwhrYUi0NLWIrVTap2VS7DgjNbEwrxjTYyRJgIUIFgIcGiUrF+AYEH/jHxWyKHHp77tvf904p9k2w22td0k3QUh0CZtUj252kmtBAtOWM0syjvWzChpJDABgoXABka5YQgQLIQxJ19VcujxJR/Hvg1jG6S+uj6OZulStcBdf7tLTnj4hMxrJFjInNTUgrxjTY2TZgISIFgIaFiUGo4AwUI4s/JRKYceH+px7dk6oTWuhulWrcCo342SX77+y0zrI1jIlNPcYrxjzY2UhgIRIFgIZFCUGZYAwUJY88q7Wg49eYvHt9+AbgPk3S+/G1/jdKxSoM+MPrKyaWVmtREsZEZpciHesSbHSlMBCBAsBDAkSgxPgGAhvJnlWTGHnjy1492LT4qId/YaOy/+MsfiL3XM4otgIQtFu2vwjrU7WzrTLUCwoHs+VBeoAMFCoIPLqWwOPTlBs438fK+fy1e2+woSCHgXaGhukJ7Te2ZSB8FCJoxmF+Eda3a0NKZcgGBB+YAoL0wBgoUw55ZX1Rx68pJmn6LAnJPmyPB+w8FAwLvAa8tfk61/uXXFdRAsVExoegHesabHS3OKBQgWFA+H0sIVIFgId3Z5VM6hJw9l9vioAP8gxvOgReDqP18tX3viaxWVw/NcEZ/5m3nHmh8xDSoVIFhQOhjKCluAYCHs+bmunkOPa2HW/6RAVaFKmsc3A4OACoFD7ztUHp7/cNm1ECyUTRfFjbxjoxgzTSoUIFhQOBRKCl+AYCH8GbrsgEOPS13W7kigIAVpmZDNL89DGYFKBTa8YUNZumZpWcsQLJTFFs1NvGOjGTWNKhMgWFA2EMqxIUCwYGOOrrrg0ONKlnW7Eth/yP7y2yN/29Vl/HkEchEo9++FBAu5jCfYTcp9roJtmMIRUCJAsKBkEJRhS4BgwdY8s+6GQ0/WoqxXisDPRyafFLEtnxRRihnXuhFY1bxKek/vXfLiBAslk0V1A+/YqMZNs4oECBYUDYNS7AgQLNiZpYtOOPS4UGXNUgReP/V12aL3FqXcwrUIOBH43YLfyUG/OaiktQkWSuKK7mLesdGNnIaVCBAsKBkEZdgSIFiwNc+su+HQk7Uo65UjsOKsFdKztmc5t3IPApkKnP/H8+WqOVelXpNgITVVlBfyjo1y7DStQIBgQcEQKMGeAMGCvZlm2RGHniw1WatcgUIh+WWO4/lljuX6cV+2AhvdsJG8v+b9VIsSLKRiivYi3rHRjp7GPQsQLHgeANvbFCBYsDnXrLri0JOVJOtUKtCjpoesHLOy0mW4H4FMBHrP6C2rmlZ1uRbBQpdEUV/AOzbq8dO8RwGCBY/4bG1XgGDB7myz6IxDTxaKrJGVwM4b7SzPHf9cVsuxDgJlC6xpWSPdp3Xv8n6ChS6Jor6Ad2zU46d5jwIECx7x2dquAMGC3dlm0RmHniwUWSNLge/s9B25dPdLs1yStRAoS6CxpVF6TOvR6b0EC2XRRnMT79hoRk2jygQIFpQNhHJsCBAs2Jijqy449LiSZd1KBP547B/lCwO/UMkS3ItAJgJ3vHmHnPjIiR2uRbCQCbPZRXjHmh0tjSkXIFhQPiDKC1OAYCHMueVVNYeevKTZp1SBtePXSk2hptTbuB6BzAVO/93pcsvrt7S7LsFC5tymFuQda2qcNBOQAMFCQMOi1HAECBbCmZWPSjn0+FBnz7QCLRNapJD8wRcCvgU6+qQIggXfk9G9P+9Y3fOhOrsCBAt2Z0tnHgUIFjziB7A1h54AhhRxif3q+8n7Z6b72L+ImWg9J4HqydXSlvzx0S+ChZzwA92Gd2ygg6Ps4AUIFoIfIQ1oFCBY0DgVPTVx6NEzCyppX2CH/jvIrC/NggcB7wKrmldJ7+m9CRa8TyKcAnjHhjMrKrUlQLBga550o0SAYEHJIJSWwaFH6WAo62MCX9nuK/LzvX6OCgLeBWa/P1t2vH3Hf9TBdyx4H4nqAnjHqh4PxRkWIFgwPFxa8ydAsODPPoSdOfSEMCVqLArcd9h9ctiww8BAwLvAcQ8dJ79+69fr6iBY8D4O1QXwjlU9HoozLECwYHi4tOZPgGDBn30IO3PoCWFK1LheYMmZS2SD+g0AQcC7QM2UGmltayVY8D4J3QXwjtU9H6qzK0CwYHe2dOZRgGDBI34AW3PoCWBIlPgxAT4pggdCg0BTa5N0m9pNloxeIv3q+mkoiRoUCvCOVTgUSopCgGAhijHTZN4CBAt5i4e1H4eesOZFtSK9anvJ8rOWQ4GAd4G/rfibFD+5hGDB+yjUFsA7Vu1oKMy4AMGC8QHTnh8BggU/7qHsyqEnlElR50cFhvcbLnNOmgMKAgggoFqAd6zq8VCcYQGCBcPDpTV/AgQL/uxD2JlDTwhTosb2BM7f/ny5cs8rwUEAAQTUCvCOVTsaCjMuQLBgfMC050eAYMGPeyi7cugJZVLU2Z7AHQffIcdtfhw4CCCAgEoB3rEqx0JREQgQLEQwZFrMX4BgIX/zkHbk0BPStKi1PYH5p8+XwT0Gg4MAAgioE+Adq24kFBSJAMFCJIOmzXwFCBby9Q5tNw49oU2MetsTWDt+rdQUasBBAAEEVAnwjlU1DoqJSIBgIaJh02p+AgQL+VmHuBOHnhCnRs2fFChIQYofQ8kXAgggoEmAd6ymaVBLTAIECzFNm15zEyBYyI06yI049AQ5NopuR2Dz3pvLG6e+gQ0CCCCgRoB3rJpRUEhkAgQLkQ2cdvMRIFjIxznUXTj0hDo56m5P4OzhZ8t1e18HDgIIIKBCgHesijFQRIQCBAsRDp2W3QsQLLg3DnkHDj0hT4/a2xO48+A75djNjwUHAQQQ8C7AO9b7CCggUgGChUgHT9tuBQgW3PqGvjqHntAnSP3tCfD3PZ4LBBDQIMA7VsMUqCFGAYKFGKdOz84FOGA7Jw56Aw49QY+P4jsRWDVmlXSv6Y4RAggg4E2Ad6w3ejaOXIBgIfIHgPbdCBAsuHG1siqHHiuTpI9PCtRV1UnjuEZgEEAAAW8CvGO90bNx5AIEC5E/ALTvRoBgwY2rlVU59FiZJH20J1BdqJam8U3gIIAAAl4EeMd6YWdTBJIPoZ4obTgggEC2AgQL2XpaW41Dj7WJ0s8nBU7Y/AT51cG/AgYBBBDIXYB3bO7kbIjAOgGCBR4EBBwIECw4QDW0JIceQ8OklQ4Fpu87XUZvPRohBBBAIFcB3rG5crMZAv8QIFjgYUDAgQDBggNUQ0ty6DE0TFrpVKBhXIPUV9WjhAACCOQmwDs2N2o2QuBjAgQLPBAIOBAgWHCAamhJDj2GhkkrXQrwSRFdEnEBAghkKMA7NkNMlkKgBAGChRKwuBSBtAIEC2ml4ryOQ0+cc4+16/rqemkY2xBr+/SNAAI5C/COzRmc7RD4uwDBAo8CAg4ECBYcoBpakkOPoWHSSiqB7jXdpfidC3whgAACrgV4x7oWZn0E2hcgWODJQMCBAMGCA1RDS3LoMTRMWkktcMCQA+SRIx9JfT0XIoAAAuUI8I4tR417EKhcgGChckNWQOBTAgQLPBSdCXDo4fmIVeAnX/iJXLDDBbG2T98IIJCDAO/YHJDZAoF2BAgWeCwQcCBAsOAA1dCSHHoMDZNWShZ4+aSXZZt+25R8HzcggAACaQR4x6ZR4hoEshcgWMjelBUREIIFHoLOBDj08HzELtA0vkmqC9WxM9A/Agg4EOAd6wCVJRFIIUCwkAKJSxAoVYBgoVSxuK7n0BPXvOn20wLFUKEYLvCFAAIIZC3AOzZrUdZDIJ0AwUI6J65CoCQBgoWSuKK7mENPdCOn4XYENqzfUBafuRgbBBBAIFMB3rGZcrIYAqkFCBZSU3EhAukFCBbSW8V4JYeeGKdOz+0JHDj0QHn4iIfBQQABBDIT4B2bGSULIVCSAMFCSVxcjEA6AYKFdE6xXsWhJ9bJ03d7Aj/Y5Qdyya6XgIMAAghkIsA7NhNGFkGgZAGChZLJuAGBrgUIFro2ivkKDj0xT5/e2xN45vhnZNeNdgUHAQQQqFiAd2zFhCyAQFkCBAtlsXETAp0LECzwhHQmwKGH5wOBTwt8cNYH0ru2NzQIIIBARQK8Yyvi42YEyhYgWCibjhsR6FiAYIGng2CBZwCB0gVaJ7SWfhN3IIAAAh8RIFjgcUDAjwDBgh93djUuQLBgfMAVtsehp0JAbjcr0LeurywdvdRsfzSGAALuBXjHujdmBwTaEyBY4LlAwIEAwYIDVENLcugxNExayVzgi4O/KI8d9Vjm67IgAgjEIcA7No4506U+AYIFfTOhIgMCBAsGhuiwBQ49DnFZ2oTAD3f/oXx7p2+b6IUmEEAgXwHesfl6sxsC6wUIFngWEHAgQLDgANXQkhx6DA2TVpwJPHnsk7LHwD2crc/CCCBgU4B3rM250pV+AYIF/TOiwgAFCBYCHFqOJXPoyRGbrYIWWHjGQhnYfWDQPVA8AgjkK8A7Nl9vdkNgvQDBAs8CAg4ECBYcoBpakkOPoWHSinOBlgktUkj+4AsBBBBII8A7No0S1yCQvQDBQvamrIiAECzwEHQmwKGH5wOB9AKFQkFaxrekv4ErEUAgagHesVGPn+Y9ChAseMRna7sCBAt2Z5tFZxx6slBkjZgEduy/o7zwpRdiapleEUCgTAHesWXCcRsCFQoQLFQIyO0ItCdAsMBz0ZkAhx6eDwRKF/jOTt+RS3e/tPQbuQMBBKIS4B0b1bhpVpEAwYKiYVCKHQGCBTuzdNEJhx4XqqwZg8AfjvmD7LXxXjG0So8IIFCmAO/YMuG4DYEKBQgWKgTkdgTaEyBY4LnoTIBDD88HAuULLB29VPrW9S1/Ae5EAAHTArxjTY+X5hQLECwoHg6lhStAsBDu7PKonENPHsrsYVmgeXyzVBWqLLdIbwggUKYA79gy4bgNgQoFCBYqBOR2BNoTIFjguehMgEMPzwcClQnUV9dLw9iGyhbhbgQQMCnAO9bkWGkqAAGChQCGRInhCRAshDezPCvm0JOnNntZFdik5yby9mlvW22PvhBAoEwB3rFlwnEbAhUKECxUCMjtCLQnQLDAc9GZAIceng8EshE4a+uzZNq+07JZjFUQQMCEAO9YE2OkiQAFCBYCHBol6xcgWNA/I58Vcujxqc/e1gTuPuRuOXqzo621RT8IIFCmAO/YMuG4DYEKBQgWKgTkdgTaEyBY4LnoTIBDD88HAtkKrBm3RmqrarNdlNUQQCBIAd6xQY6Nog0IECwYGCIt6BMgWNA3E00VcejRNA1qsSKwdtxaqamqsdIOfSCAQJkCvGPLhOM2BCoUIFioEJDbEWhPgGCB56IzAQ49PB8IZC/Qs6anrBizIvuFWREBBIIS4B0b1Lgo1pAAwYKhYdKKHgGCBT2z0FgJhx6NU6EmCwJDew6VuafNtdAKPSCAQJkCvGPLhOM2BCoUIFioEJDbEWhPgGCB56IzAQ49PB8IuBM4drNj5c5D7nS3ASsjgIBqAd6xqsdDcYYFCBYMD5fW/AkQLPizD2FnDj0hTIkaQxaYsd8MOXOrM0NugdoRQKBMAd6xZcJxGwIVChAsVAjI7Qi0J0CwwHPRmQCHHp4PBNwLvH3a27JJz03cb8QOCCCgSoB3rKpxUExEAgQLEQ2bVvMTIFjIzzrEnTj0hDg1ag5RoHl8s1QVqkIsnZoRQKBMAd6xZcJxGwIVChAsVAjI7Qi0J0CwwHPRmQCHHp4PBPIRqK2qlTXj1uSzGbsggIAKAd6xKsZAEREKECxEOHRadi9AsODeOOQdOPSEPD1qD01gcI/BMv/0+aGVTb0IIFCmAO/YMuG4DYEKBQgWKgTkdgTaEyBY4LnoTIBDD88HAvkKnPqZU+XmA27Od1N2QwABLwK8Y72wsykCQrDAQ4CAAwGCBQeohpbk0GNomLQSjMDVI6+W87Y9L5h6KRQBBMoT4B1bnht3IVCpAMFCpYLcj0A7AgQLPBadCXDo4flAwI/Aa6e8Jlv22dLP5uyKAAK5CPCOzYWZTRD4lADBAg8FAg4ECBYcoBpakkOPoWHSSnACq8asku413YOrm4IRQCCdAO/YdE5chUDWAgQLWYuyHgKJAMECj0FnAhx6eD4Q8CdQSH4KtGVCi78C2BkBBJwK8I51ysviCHQoQLDAw4GAAwGCBQeohpbk0GNomLQSpEC/un7y/uj3g6ydohFAoHMB3rE8IQj4ESBY8OPOrsYFCBaMD7jC9jj0VAjI7QhkIHDsZsfKnYfcmcFKLIEAApoEeMdqmga1xCRAsBDTtOk1NwGChdyog9yIQ0+QY6NogwLX7H2NnDv8XIOd0RIC8Qrwjo139nTuV4Bgwa8/uxsVIFgwOtiM2uLQkxEkyyCQgcBbo96SYb2GZbASSyCAgAYB3rEapkANMQoQLMQ4dXp2LkCw4Jw46A049AQ9Poo3KLB09FLpW9fXYGe0hEB8Arxj45s5HesQIFjQMQeqMCZAsGBsoBm3w6EnY1CWQ6BCgepCtawdvzb5vIhChStxOwII+BbgHet7AuwfqwDBQqyTp2+nAgQLTnmDX5xDT/AjpAGDAnwMpcGh0lKUArxjoxw7TSsQIFhQMARKsCdAsGBvpll2xKEnS03WQiA7gS8O/qI8dtRj2S3ISgggkLsA79jcydkQgXUCBAs8CAg4ECBYcIBqaEkOPYaGSSvmBP57xH/LxTtebK4vGkIgFgHesbFMmj61CRAsaJsI9ZgQIFgwMUZnTXDocUbLwghkIvDGqW/I5r03z2QtFkEAgXwFeMfm681uCKwXIFjgWUDAgQDBggNUQ0ty6DE0TFoxK/DBWR9I79reZvujMQSsCvCOtTpZ+tIuQLCgfULUF6QAwUKQY8utaA49uVGzEQJlCxQ/KaJpfFPZ93MjAgj4EeAd68edXREgWOAZQMCBAMGCA1RDS3LoMTRMWjEtUF9dLw1jG0z3SHMIWBPgHWttovQTigDBQiiTos6gBAgWghpX7sVy6MmdnA0RKFtgh/47yKwvzSr7fm5EAIF8BXjH5uvNbgisFyBY4FlAwIEAwYIDVENLcugxNExaiULgGzt8Q376hZ9G0StNIhC6AO/Y0CdI/aEKECyEOjnqVi1AsKB6PN6L49DjfQQUgEDJAo8f/bjsPWjvku/jBgQQyFeAd2y+3uyGwHoBggWeBQQcCBAsOEA1tCSHHkPDpJWoBNaOWys1VTVR9UyzCIQmwDs2tIlRrxUBggUrk6QPVQIEC6rGoa4YDj3qRkJBCKQWaJ3QmvpaLkQAgfwFeMfmb86OCBQFCBZ4DhBwIECw4ADV0JIcegwNk1aiE+hT20eWnbUsur5pGIFQBHjHhjIp6rQmQLBgbaL0o0KAYEHFGNQWwaFH7WgoDIFUAjtvuLM8d8Jzqa7lIgQQyFeAd2y+3uyGwHoBggWeBQQcCBAsOEA1tCSHHkPDpJVoBc7a5iyZ9sVp0fZP4whoFeAdq3Uy1GVdgGDB+oTpz4sAwYIX9mA25dATzKgoFIFOBR44/AE5ZJNDUEIAAUUCvGMVDYNSohIgWIhq3DSblwDBQl7SYe7DoSfMuVE1Au0JLDxjoQzsPhAcBBBQIsA7VskgKCM6AYKF6EZOw3kIECzkoRzuHhx6wp0dlSPQngCfFMFzgYAeAd6xemZBJXEJECzENW+6zUmAYCEn6EC34dAT6OAoG4EOBOqr66VhbAM+CCCgQIB3rIIhUEKU5wRu3gAAIABJREFUAgQLUY6dpl0LECy4Fg57fQ49Yc+P6hFoT2CH/jvIrC/NAgcBBDwL8I71PAC2j1aAYCHa0dO4SwGCBZe64a/NoSf8GdIBAu0JXPj5C+XyPS4HBwEEPArwjvWIz9ZRCxAsRD1+mnclQLDgStbGuhx6bMyRLhBoT4BPiuC5QMCvAO9Yv/7sHq8AwUK8s6dzhwIECw5xDSzNocfAEGkBgU4E5p8+Xwb3GIwRAgh4EOAd6wGdLRFIBAgWeAwQcCBAsOAA1dCSHHoMDZNWEOhAoGl8k1QXqvFBAIGcBXjH5gzOdgj8XYBggUcBAQcCBAsOUA0tyaHH0DBpBYEOBKoKVdI8vhkfBBDIWYB3bM7gbIcAwQLPAALuBAgW3NlaWJlDj4Up0gMCXQts1XcrefXkV7u+kCsQQCAzAd6xmVGyEAIlCfAdCyVxcTEC6QQIFtI5xXoVh55YJ0/fMQp8dduvylUjr4qxdXpGwIsA71gv7GyKAL9jgWcAARcCBAsuVO2syaHHzizpBIE0Avcffr8cusmhaS7lGgQQqFCAd2yFgNyOQJkCfMdCmXDchkBnAgQLPB+dCXDo4flAID6BFWetkJ61PeNrnI4RyFmAd2zO4GyHwN8FCBZ4FBBwIECw4ADV0JIcegwNk1YQKEFgzbg1UltVW8IdXIoAAqUK8I4tVYzrEchGgGAhG0dWQeBjAgQLPBCdCXDo4flAIE6BHjU9ZOWYlXE2T9cI5CTAOzYnaLZB4BMCBAs8Egg4ECBYcIBqaEkOPYaGSSsIlCiwUbeNZNGXF5V4F5cjgEBaAd6xaaW4DoFsBQgWsvVkNQTWCRAs8CB0JsChh+cDgbgFRn12lNy0/01xI9A9Ao4EeMc6gmVZBLoQIFjgEUHAgQDBggNUQ0ty6DE0TFpBoEyB2w66Tb60xZfKvJvbEECgIwHesTwbCPgRIFjw486uxgUIFowPuML2OPRUCMjtCBgRWDVmlXSv6W6kG9pAQIcA71gdc6CK+AQIFuKbOR3nIECwkANywFtw6Al4eJSOQMYCa8evlZpCTcarshwC8Qrwjo139nTuV4Bgwa8/uxsVIFgwOtiM2uLQkxEkyyBgQIBPijAwRFpQJcA7VtU4KCYiAYKFiIZNq/kJECzkZx3iThx6QpwaNSPgTmBwj8Ey//T57jZgZQQiEuAdG9GwaVWVAMGCqnFQjBUBggUrk3TTB4ceN66sikDIAqO3Hi3T950ecgvUjoAKAd6xKsZAEREKECxEOHRadi9AsODeOOQdOPSEPD1qR8CdwA373SBnbHWGuw1YGYEIBHjHRjBkWlQpQLCgciwUFboAwULoE3RbP4cet76sjkDIAvNOnydDegwJuQVqR8CrAO9Yr/xsHrEAwULEw6d1dwIEC+5sLazMocfCFOkBAXcCrRNa3S3OyggYF+Ada3zAtKdWgGBB7WgoLGQBgoWQp+e+dg497o3ZAYGQBaoKVdI8vjnkFqgdAW8CvGO90bNx5AIEC5E/ALTvRoBgwY2rlVU59FiZJH0g4E5gyz5bymunvOZuA1ZGwKgA71ijg6Ut9QIEC+pHRIEhChAshDi1/Grm0JOfNTshELLA2cPPluv2vi7kFqgdgdwFeMfmTs6GCKwTIFjgQUDAgQDBggNUQ0ty6DE0TFpBwLHAvYfeK0dseoTjXVgeATsCvGPtzJJOwhIgWAhrXlQbiADBQiCD8lQmhx5P8GyLQKACvFMCHRxlexHgHeuFnU0R4DsWeAYQcCHAIdCFqp01OfTYmSWdIJCXQMPYBqmvrs9rO/ZBIFgB3rHBjo7CAxfgOxYCHyDl6xQgWNA5Fy1VcejRMgnqQCAcgbrqOmkc2xhOwVSKgCcB3rGe4Nk2egGChegfAQBcCBAsuFC1syaHHjuzpBME8hTYsH5DWXzm4jy3ZC8EghPgHRvcyCjYiADBgpFB0oYuAYIFXfPQVg2HHm0ToR4EwhGY8LkJMnGfieEUTKUI5CzAOzZncLZD4O8CBAs8Cgg4ECBYcIBqaEkOPYaGSSsIeBB46IiH5KChB3nYmS0R0C/AO1b/jKjQpgDBgs250pVnAYIFzwNQvj2HHuUDojwEAhBYOnqp9K3rG0CllIhAvgK8Y/P1ZjcE1gsQLPAsIOBAgGDBAaqhJTn0GBomrSDgSaCQfLDXmnFrpKaqxlMFbIuATgHesTrnQlX2BQgW7M+YDj0IECx4QA9oSw49AQ2LUhFQLNCtupusHrtacYWUhkD+Arxj8zdnRwSKAgQLPAcIOBAgWHCAamhJDj2GhkkrCHgWGNpzqMw9ba7nKtgeAT0CvGP1zIJK4hIgWIhr3nSbkwDBQk7QgW7DoSfQwVE2AkoFRm89WqbvO11pdZSFQL4CvGPz9WY3BNYLECzwLCDgQIBgwQGqoSU59BgaJq0goETgzoPvlGM3P1ZJNZSBgD8B3rH+7Nk5bgGChbjnT/eOBAgWHMEaWZZDj5FB0gYCygQWnrFQBnYfqKwqykEgXwHesfl6sxsC6wUIFngWEHAgQLDgANXQkhx6DA2TVhBQJtA6oVVZRZSDQL4CvGPz9WY3BAgWeAYQcChAsOAQ18DSHHoMDJEWEFAqUF9dLw1jG5RWR1kIuBfgHevemB0QaE+A71jguUDAgQDBggNUI0suX7tc+l3fz0g3tIEAAhoFdt5oZ3nu+Oc0lkZNCDgXIFhwTswGCLQrQLDAg4GAA4F3z3hXBnQf4GBllgxd4Ddv/0aOfvDo0NugfgQQUC4w4XMTZOI+E5VXSXkIZCvQ2tYqNVNqsl2U1RBAIJUAwUIqJi5CoDSBt0a9JcN6DSvtJq6OQuC7z3xXLnvxsih6pUkEEPArcOuBt8qJW57otwh2RyBHgYWrF8qQm4bkuCNbIYDAegGCBZ4FBBwIzD5xtmy3wXYOVmbJ0AVG/nqkPPnuk6G3Qf0IIBCIwAsnvCA7brhjINVSJgKVCTz/3vOy2527VbYIdyOAQFkCBAtlsXETAp0LPHLEI3LA0ANgQuBTAj2n95SGZn6xGo8GAgjkJ1D8ZY7FX+rIFwLWBW5+7WY549EzrLdJfwioFCBYUDkWigpd4Pr9rpcvb/Xl0NugfgcCdVPrpLm12cHKLIkAAgh0LNAyoUUKyR98IWBZ4PvPfl8ufeFSyy3SGwJqBQgW1I6GwkIW+O5O35X/2v2/Qm6B2h0J8NuqHcGyLAIIdCrQt66vLB29FCUETAsc//Dxcvff7jbdI80hoFWAYEHrZKgraIHjNj9O7jj4jqB7oHg3AgQLblxZFQEEuhbYfcDu8tRxT3V9IVcgEKjALnfsIi8ueTHQ6ikbgbAFCBbCnh/VKxXYacOd5PkTnldaHWX5EljYkPy26hv5bdW+/NkXAQRELtv9Mrlop4ugQMCkQL/r+8nytctN9kZTCGgXIFjQPiHqC1Jg016byt9G/S3I2inancCVs6+UC2de6G4DVkYAAQRSCDx57JOyx8A9UlzJJQiEJcB3BYY1L6q1JUCwYGuedKNEoPjbt4u/hZsvBD4qcMC9B8hj7zwGCgIIIOBdYPlZy6VXbS/vdVAAAlkKECxkqclaCJQmQLBQmhdXI5BaoHVCa+pruTAOAQ48ccyZLhEIRYD3VCiTos40AgtWL5BNbtokzaVcgwACDgQIFhygsiQCRQEObDwHnxQgWOCZQAABTQL96/vLe2e+p6kkakGgbIEH5z0oh99/eNn3cyMCCFQmQLBQmR93I9ChwJuj3pTNem2GEALrBF5Z9opse9u2aCCAAAKqBM7d9ly5ZuQ1qmqiGATKETjmwWPk3rfvLedW7kEAgQwECBYyQGQJBNoTuGH/G+SMz54BDgLrBMY8Nkau/+v1aCCAAALqBGYeN1NGDBihri4KQqAUAb4rsBQtrkUgewGChexNWRGBdQJHDDtC7j2M5JzH4UMBDjw8CQggoFmgZUKLFJI/+EIgVAHes6FOjrqtCBAsWJkkfagTKB7Qigc1vhAgWOAZQAAB7QJVhSppHt+svUzqQ6BDAYIFHg4E/AoQLPj1Z3fjAvwvQMYHnLK9u/52l5zw8Akpr+YyBBBAwI/A8H7DZc5Jc/xszq4IVCBwxqNnyM2v3VzBCtyKAAKVChAsVCrI/Qh0IrBs9DLpU9cHo8gF+szoIyubVkauQPsIIBCCwEU7XiSXjbgshFKpEYF/CNRNrZPmVr7jhkcCAZ8CBAs+9dnbvMBJW54kvzzwl+b7pMHOBfj2TJ4QBBAISeDVk1+VrfpuFVLJ1Bq5AO/ZyB8A2lchQLCgYgwUYVmgdUKr5fborQuB6a9Ol3GPj8MJAQQQCEqA77gLalxRFzv5lclyzu/PidqA5hHQIECwoGEK1GBagGDB9Hi7bK7vjL6yomlFl9dxAQIIIKBJoKaqRtaMXSOFAp8UoWku1PJpgWE3D5P5q+ZDgwACngUIFjwPgO3tC/zHbv8h39v5e/YbpcNPCRQDhWKwwBcCCCAQokB9Vb00jGsIsXRqjkSgta1VaqbURNItbSKgW4BgQfd8qM6AQM+anrJiDP+LtYFRltzC2P8bKzP+MqPk+7gBAQQQ0CKw7+B95dGjHtVSDnUg8DGBqa9OlQmPT0AFAQQUCBAsKBgCJdgXWDp6qfSt43+5tj/pj3fIL5OKbeL0i4BNgeKnRBQ/LYIvBLQJ8J7VNhHqiVmAYCHm6dN7bgInbnGi3HrQrbntx0b+Baa9Ok3GPz7efyFUgAACCGQg8PLJL8s2fbfJYCWWQCAbAX4MIhtHVkEgKwGChawkWQeBLgT4JY5xPSL1U+ulqbUprqbpFgEETAssPGOhDOw+0HSPNBeOQL8Z/WR50/JwCqZSBIwLECwYHzDt6RG4du9r5ZzhfBySnom4q+S+uffJUQ8c5W4DVkYAAQQ8CBSkIKvGrpJu1d087M6WCPxTYG3rWuk2leeQZwIBTQIEC5qmQS3mBfiuBfMjXtcgP/MZx5zpEoFYBVrGt/AxlLEOX0nfe929l8xcNFNJNZSBAAJFAYIFngMEchS44gtXyDd3+GaOO7JV3gLPLn5WRtw1Iu9t2Q8BBBDIVYCgPFduNvuIAB/lzOOAgE4BggWdc6EqowLFbyNtmdBitDvaKgrw3Qo8BwggEINAj5oesnLMyhhapUdlApvevKnMWzVPWVWUgwACBAs8AwjkLHD+9ufLlXtemfOubJeHwBUvXSHfeupbeWzFHggggIB3gbqqOmkY15BE5gXvtVBAHAL8boU45kyXYQoQLIQ5N6oOXIBvIQ18gB2Uz3cr2JwrXSGAQMcCtVW1smbcGogQyEWg5/Se0tDckMtebIIAAqUJECyU5sXVCGQiUF9dLw1jeTFmgqlkkUPvP1QenvewkmooAwEEEMhPoFdtL1l+Fh/7l594nDv9fM7P5et//HqczdM1AgEIECwEMCRKtClw/X7Xy5e3+rLN5iLr6t2Gd2XwjYMj65p2EUAAgY8LNI9vlqpCFSwIZC7Q3NosdVPrMl+XBRFAIDsBgoXsLFkJgZIFit8+Wvw2Ur7CFuBHIMKeH9UjgEB2AsVf6Fj8xY58IZClQP8b+suyNcuyXJK1EEAgYwGChYxBWQ6BUgSG9Bgi807nNxuXYqbt2pMeOUluf/N2bWVRDwIIIOBFoPiLHN849Q3ZrPdmXvZnU3sCV86+Ui6ceaG9xugIAWMCBAvGBko74Qncc+g9cuSmR4ZXOBWv+7ir4sde8YUAAggg8HGB3x/zexm58UhYEKhIYOnapbLh9RtWtAY3I4BAPgIEC/k4swsCnQqsGrtKuld3RykggTZpk9optdLa1hpQ1ZSKAAII5CdwzvBz5Nq9r81vQ3YyJVB8vxZ/rwLvWVNjpRnDAgQLhodLa+EIdKvuJqvHrg6nYCqVjW/cWBY3LEYCAQQQQKATAX7kj8ejXIENrt9APlj7Qbm3cx8CCOQsQLCQMzjbIdCRwKGbHCr3H34/QAEI/GjWj+Q7T38ngEopEQEEENAhUPw4yuLHUvKFQBqBg+87WH47/7dpLuUaBBBQIkCwoGQQlIFAUeCWA2+RU7Y8BQzFAi+9/5LsdPtOiiukNAQQQECnwENHPCQHDT1IZ3FUpUbgRy8m4f0zhPdqBkIhCKQUIFhICcVlCOQl8M4Z78jG3TfOazv2KUGAz9EuAYtLEUAAgXYEdhuwmzx93NPYINCuwCPzH5FD7jsEHQQQCFCAYCHAoVGyfYGGsQ1SX11vv9HAOqyaXBVYxZSLAAII6BOoq6qTJaOXSM+anvqKoyJvAo8ueFQO/M2B3vZnYwQQqEyAYKEyP+5GwIlA8XPAWya0OFmbRcsT4JdIlefGXQgggEBHApO+OEnGbzMeIATkvrfvk6MePAoJBBAIWIBgIeDhUbptAT4pQs98CRX0zIJKEEDAlkDxR/+KPwLIV7wCD857UA6///B4AegcASMCBAtGBkkbNgX4mC7/cyVU8D8DKkAAAfsCjx/9uOw9aG/7jdLhxwT+7dl/k/984T9RQQABAwIECwaGSAu2BQb3GCzzT59vu0ml3W1+y+by9sq3lVZHWQgggIAtgW36bSNzTpwjVQV+n42tybbfzRH3HyEPzHsghlbpEYEoBAgWohgzTYYuUPzs7+JngPOVn0Cv6b1kdfPq/DZkJwQQQACBdQJXj7xaztv2PDQMC9ROqZWWNn6XlOER01qEAgQLEQ6dlsMUKIYLS0cvlepCdZgNBFJ1a1ur1EypCaRaykQAAQRsChQ/OeKNU9+QIT2H2Gww0q7ebXhXBt84ONLuaRsB2wIEC7bnS3fGBIqfFtE8oTn594KxznS0s7JppfS/ob80tzbrKIgqEEAAgcgFir93ofj7F/gKX+DHs34s33762+E3QgcIINCuAMECDwYCAQrMPW2uDO05NMDK9ZY8f9V8GXbzML0FUhkCCCAQscBFO14kl424LGKBsFvf+Bcby+LGxWE3QfUIINCpAMECDwgCgQpcueeVcv725wdava6yL376Yrl81uW6iqIaBBBAAIFPCdyw3w1yxlZnIBOIwBPvPiH7/HqfQKqlTAQQqESAYKESPe5FwLPA8H7DZc5JczxXEfb2Q24cIgsbFobdBNUjgAACEQkUCgW5cf8bZdRnRkXUdXitbv+r7eXPS/8cXuFUjAACZQkQLJTFxk0I6BJ4f/T70q+un66ilFfzyrJXZNvbtlVeJeUhgAACCHQmMPPYmTJi4AiQFAn88vVfyqjfEfooGgmlIJCLAMFCLsxsgoB7gWM2O0buOuQu9xsZ2GHPu/eUpxY9ZaATWkAAAQQQKAr89As/lW/s8A0wPAr89YO/yo637yiNLY0eq2BrBBDwJUCw4EuefRFwIFBVqFr3oxHb9N3GwerhL3nf3Pvk6AeOlrbkD74QQAABBOwJHLnpkXLPoffYa0xxR02tTeu+A/D15a8rrpLSEEDAtQDBgmth1kfAg0DPmp6y+MzF0q26m4fd9W1Z/BjJPjP66CuMihBAAAEEnAgUg/Z5p82TQT0GOVmfRUUamhtk05s3lSVrlsCBAAIICMECDwEChgX2H7K/PHTEQ1JdqDbcZcetFf9XlMPuP0weXfBolP3TNAIIIICAyDe2/4b8aI8fSW1VLRwZCLy98m057L7D5JUPXslgNZZAAAErAgQLViZJHwh0IrDHwD3kyWOfjMpo5N0j5clFcfUc1YBpFgEEEChRYIP6DaT4Uc1nbnVmiXdyeVHgsQWPyXEPHSfLm5YDggACCHxcoE0eLsgkeTT5ceP9sEEAAfsCg7oPklknzpIB3QaYbHb52uXrfnHUWyvfMtkfTSGAAAIIZCNQSL5p9/fH/F6KwXus39WXRnJV8yoZ93/j5NY3bk1zOdcggECsAjVyaEGulUOlSh6I1YC+EYhRoPizp8XfoP317b9uov3H33lcTv7tybKoYZGJfmgCAQQQQCA/ge7V3eXinS6WC3a4QHrV9spvY6U7FX/B8ZUvXSnfeupb/LJjpTOiLAQUCgwoyBTpLy3Cb11ROB1KQiAPgYHdB8qvDvqV7D1o7zy2y2yP4sFnv3v2kz8s/AMHn8xUWQgBBBBAYMs+W8r0fafLPoP2iQrjwpkXypRXpsiKphVR9U2zCCCQgcA5UiisW2Yin72WASdLIBC8QPE7GSbtM0m+tMWXpG9dX3X9zFs1T77x5DfkjjfvUFcbBSGAAAII2BT4TJ/PrHs37rzRztKvrp+JJou/3PjPS/8sp/3uNHl52csmeqIJBBDwJNAmb8i58pn1wcKzSRm7eiqFbRFAQKnA8H7D5bTPniZjthkjQ3oMyb3KxY2LZeLLE2XSy5OkGCrwhQACCCCAgG+Buqo6OWLTI+TYzY6V4zc/XvrU6f844+I7tPh7Ev739f+VZxcXj/18IYAAApkJHC/nyF0fBgvXJKFCtfB3mcxsWQgBmwLFX3BV/K3au260q/zLdv8iR256ZGaNLlu7TK7601Uy6ZVJsqRxiTS2NGa2NgshgAACCCDgUqCQfBNw39q+UvzxwvGfGy+jtxotA7rn/4uSW9pa5LY3bpMrZ18pry9/XYrv1ta2VpetszYCCMQukPwYRJHgw2Ch+DVRmpN/j/PD7mN/GOgfAQcCw3oNk+KnUKz/Kn5iw3uN78mSNfxKFwfcLIkAAgggEIBAt+pusuOGO8pmvTb78F+9N5ONum207scPe9f2lpqqmo91sbJppbzf+L580PSBzF05V/76wV/lr8v/Kq8se0WKf44vBBBAwLPA88l3K6z7yYd/BgvXyQXJf7rCc2FsjwACCCCAAAIIIIAAAggggAAC2gX+/t0KHw8Wiv+JX+KofXTUhwACCCCAAAIIIIAAAggggIBfgYI8KmfLAeuL+Od3LBT/m0myXfL5EH/yWyG7I4AAAggggAACCCCAAAIIIICAWoFzpCqpra39YOHDcOGJ5E/vpbYBCkMAAQQQQAABBBBAAAEEEEAAAT8CBTks+W6FBz+6+ce/Y2H9n+EXOfoZELsigAACCCCAAAIIIIAAAgggoFWgIK8locJWnyyv/WCheBW/b0HrKKkLAQQQQAABBBBAAAEEEEAAgXwF2mS5nCt929u0s2CheMOyfCtlNwQQQAABBBBAAAEEEEAAAQQQUCawRt6RHnKJtJYWLBSvbks+gHJS+zcqa5JyEEAAAQQQQAABBBBAAAEEEEAge4FWOUeqO1u24+9Y+OhdE+WD5D/2yb4+VkQAAQQQQAABBBBAAAEEEEAAAaUC85JQYVhXtaULFoqrTFz3Wx8P6WpB/jwCCCCAAAIIIIAAAggggAACCAQuUJBbkl/UeFqaLtIHC8XVpiVJRZO8nWZhrkEAAQQQQAABBBBAAAEEEEAAgcAECskvRaiRjWWsLE5beWnBwvpVJ8njyVb7pN2E6xBAAAEEEEAAAQQQQAABBBBAQLlAQf6QfJdCyf+sX16wULSYKBsl/z4v+Ve9chrKQwABBBBAAAEEEEAAAQQQQACBjgWakz+1afL7FN4pB6n8YGH9blNke2mRl5L/WPla5XTAPQgggAACCCCAAAIIIIAAAgggUJ5AtRwu4+WB8m7+8K7swoBJ8p/Jj0d8r5JiuBcBBBBAAAEEEEAAAQQQQAABBHIRmJR8h8I5WeyUXbBQrObW5LMtl8mTScCwexbFsQYCCCCAAAIIIIAAAggggAACCGQoUJD3pDb5YIYx0pjVqtkGC+urui/5vQtz5d3kP/bNqlDWQQABBBBAAAEEEEAAAQQQQACBsgXWSJVsJhPW/bN6pl9ugoX1JU6SfZPvXvhd8h+rMq2axRBAAAEEEEAAAQQQQAABBBBAIK3AvyQ/9HB12otLvc5tsLC+msnyDWmVK0stjusRQAABBBBAAAEEEEAAAQQQQKBsgd8kn/NwjFyS/BO5w698goX1DUySp5LvYBjhsB+WRgABBBBAAAEEEEAAAQQQQCB2gUVJoDA0CRSKHyPp/CvfYKHYznTpJ2vl9eT/6++8OzZAAAEEEEAAAQQQQAABBBBAICaBFtlTviIz82w5/2BhfXcTZYfk/30pz2bZCwEEEEAAAQQQQAABBBBAAAGTAgW5UM6Wn/rozV+wsL7bSXJF8uMRF/honj0RQAABBBBAAAEEEEAAAQQQCFzg+eQXM+7qswf/wUKx+0uST40YIr9PAoa9fGKwNwIIIIAAAggggAACCCCAAAKBCDRInWwpY2Sh73p1BAvrFW6UPrJa3k8ChmrfMOyPAAIIIIAAAggggAACCCCAgFKBXZPvUnheS226goX1KpPkoCRceCj5jzrr0zI96kAAAQQQQAABBBBAAAEEEIhHoCA3JL9HYbS2hnX/g/skuSwJGC7WhkY9CCCAAAIIIIAAAggggAACCOQo8CdZI7vJ15N/V/ilO1goghV//8LgdT8zMkChHyUhgAACCCCAAAIIIIAAAggg4E5glfRIPu6gwd0Gla+sP1hY3+PEJF5ok9eTH47oXnnbrIAAAggggAACCCCAAAIIIICAYoFC8kMPZ8tkxRX+o7RwgoX1JU+WE6VVbgsBlxoRQAABBBBAAAEEEEAAAQQQKEmgSqbKBBlf0j2eLw4vWFgPNlEeTv7fgzz7sT0CCCCAAAIIIIAAAggggAAClQsUku/RPzv5VQABfoUbLBSxJ0pt8u9/Sf61eYD2lIwAAggggAACCCCAAAIIIBC7QEHWJj/yv3vyXQovhUoRdrCwXn2yfD758YhZoQ6BuhFAAAEEEEAAAQQQQAABBCIUqF73Qw9TQu/cRrCwfgoT5VvJ//vj0IdC/QgggAACCCCAAAIIIIAAAqYFXpFzZLiVDm0FCx9OpSCT5KHkp1P4/QtWnlL6QAABBBBAAAEEEEAAAQRsCCxK2tgiCRVW22hn/T+EW+rmo71MkwHSJAuS/6rGaov0hQACCCCAAAIIIIAAAgggEIhAQUYkv5zxmUCqLalMi9+x8HGA6ckvwVgrTyXprdtQAAAgAElEQVT/pf1eSxo9FyOAAAIIIIAAAggggAACCDgXaJOr5Fz5uvN9PG4Qzz9sT5L/l/x4xNc8WrM1AggggAACCCCAAAIIIIBALAIFmZl8h8KeMbQbT7BQnOb/k/rkj78l/9+gGIZLjwgggAACCCCAAAIIIIAAArkLtCY/kD9Mxq370fwovuIKFtaP9BrZQKrXDblbFFOmSQQQQAABBBBAAAEEEEAAAdcCrckP4B+VfJfC/a430rZ+nMHC+ilMSj4ztC35DAm+EEAAAQQQQAABBBBAAAEEEChfYFLySQ/nlH972HfGHSwUZ3eJVMlguSv5/44Oe5RUjwACCCCAAAIIIIAAAgggkLPAQqlLPj5yjDTmvK+q7QgWPjqOifJu8h8HqpoQxSCAAAIIIIAAAggggAACCGgTaEx+j8LA5PcorNBWmI96CBY+qT5ZviCt8qSPYbAnAggggAACCCCAAAIIIICAcoGCnJf8HoXrlFeZa3kECx1xT5HzpUV+lus02AwBBBBAAAEEEEAAAQQQQECrwEPJb1E4LCmuTWuBvuoiWOhKfqLMTi7ZvqvL+PMIIIAAAggggAACCCCAAAImBRYl36EwKPnEBwKFDsZLsJDmuZ+Y/HpHkb8k/+qV5nKuQQABBBBAAAEEEEAAAQQQCF6gVarlizJengi+E8cNECyUAjxZdk1+/8KzpdzCtQgggAACCCCAAAIIIIAAAsEJXJT82MPlwVXtqWCChXLgJ8otyW2nlnMr9yCAAAIIIIAAAggggAACCKgVeDYJFHZXW53SwggWyh3MrcmnlS6VWcntnyt3Ce5DAAEEEEAAAQQQQAABBBBQINAmy5PfoLBV8nkPixRUE1wJBAuVjuwG6SkNsrLSZbgfAQQQQAABBBBAAAEEEEDAg0Cb7CTnrvsfjfkqU4BgoUy4T902Kfl4yjY+njIrTtZBAAEEEEAAAQQQQAABBJwKFGRa8mkP45zuEcniBAtZD3qi3J4seULWy7IeAggggAACCCCAAAIIIIBAJgIvywayg5wsLZmsxiLJJ3Hy5UKgIBOlKVm42sXirIkAAggggAACCCCAAAIIIFCWQM/klzOuLutObupQgGDB5cMxRUYmGdhjyRY1LrdhbQQQQAABBBBAAAEEEEAAgU4Fzk0ChYkYuREgWHDj+vFVJ8qFyX/xkzy2Yg8EEEAAAQQQQAABBBBAAIF/CNycBAqn4+FWgGDBre8nA4Y3k/9i8zy3ZC8EEEAAAQQQQAABBBBAIEKB5ckvZuyX/PB/W4S9594ywULe5FOld/LjEXOTx7tv3luzHwIIIIAAAggggAACCCBgXKA5+eetXeUr8pLxPlW1R7DgaxzXyWFJena/r+3ZFwEEEEAAAQQQQAABBBAwJvAvyY89XG2spyDaIVjwPSY+ntL3BNgfAQQQQAABBBBAAAEEQhYoJN+dcLbsGHILoddOsKBhgrcmH0u5VP6UlPI5DeVQAwIIIIAAAggggAACCCAQgMAS6SlbyhmyPIBaTZdIsKBpvJNk6+R3L7ySlMRcNM2FWhBAAAEEEEAAAQQQQECXQEFGJt+l8EddRcVbDf8Aq3H2E+W8pKxrNJZGTQgggAACCCCAAAIIIICAN4GCTE4ChbO97c/G7QoQLGh+MK6Te5LvXThKc4nUhgACCCCAAAIIIIAAAgg4F2iTF6S/7C4nJ5/5wJc6AYIFdSP5REET130s5TvJv7prL5X6EEAAAQQQQAABBBBAAIGMBVqlRobJOFmQ8bosl6EAwUKGmE6XmiI7J9ncM8ke1U73YXEEEEAAAQQQQAABBBBAQINAm5wq58ovNZRCDZ0LECyE9oRMlP9ISv5+aGVTLwIIIIAAAggggAACCCCQSqAgU5PfojA+1bVcpEKAYEHFGEosovjxlO/LnOT3L2xT4p1cjgACCCCAAAIIIIAAAghoFVgma2SQfD35d76CEiBYCGpcnyj2R9Jb+sn85L/tHXIb1I4AAggggAACCCCAAAJRCzQlP/b9OfmKvBG1QsDNEywEPLx/lD4p+eSItuQTJPhCAAEEEEAAAQQQQAABBEISaJOvJr9H4ZqQSqbWTwsQLFh6KibL/0hr8o1DfCGAAAIIIIAAAggggAACmgUK8pxMSD4+spD8T6R8BS9AsBD8CD/RQFvyl+YkmZ38t9tZa41+EEAAAQQQQAABBBBAIHiBhVInW8gYaQy+Exr4hwDBgtWH4VrZXKrkL0l7tVZbpC8EEEAAAQQQQAABBBAISKAg+yWf9vB/AVVMqSkFCBZSQgV72UTZP6n9d8HWT+EIIIAAAggggAACCCAQusC/yzlySehNUH/HAgQLsTwdk+Tm5KeXRsXSLn0igAACCCCAAAIIIICAd4Fnk0Bhd+9VUIBzAYIF58SKNrhP6mWuzEkq+oyiqigFAQQQQAABBBBAAAEEbAm0JO1smYQKb9tqi246EiBYiPHZuFH6yCr5IMbW6RkBBBBAAAEEEEAAAQQcChRkZPJ7FP7ocAeWVihAsKBwKLmVdK2cnvyCxxtz24+NEEAAAQQQQAABBBBAwKZAQW5IAoXRNpujq64ECBa6Eorhz0+Snya/f+GbMbRKjwgggAACCCCAAAIIIJCpwJvJd0NvJxdIQ6arslhQAgQLQY3LcbET5d1kh4GOd2F5BBBAAAEEEEAAAQQQCF+gVZqlr3xVVobfCh1UKkCwUKmgtfuvlaHJj0f8JWmrh7XW6AcBBBBAAAEEEEAAAQQyEfhK8osZr81kJRYxIUCwYGKMDpqYJEclPx5xj4OVWRIBBBBAAAEEEEAAAQRCFCjIrTJBTpVC8k8KfCHwEQGCBR6HzgUmyS3J3zZOhQkBBBBAAAEEEEAAAQQiFSgkv0XhbOkVafe0nUKAYCEFUvSXXJL8cMRgeT5x2DF6CwAQQAABBBBAAAEEEIhHoDX5Hxn3lnPlyXhaptNyBAgWylGL9Z6JsmnS+uvJv2piJaBvBBBAAAEEEEAAAQQiEeD3KEQy6CzaJFjIQjG2NSbLAdIqjyRt8/zENnv6RQABBBBAAAEEELAu8Fryixm3st4k/WUrwD8YZusZ12oTZWLS8NlxNU23CCCAAAIIIIAAAgiYFFiSdPW5JFR4z2R3NOVUgGDBKW8Ei0+U2qTL15J/FX9Mgi8EEEAAAQQQQAABBBAITaBGdpJxMiu0sqlXjwDBgp5ZhF3JndJPFsk7SRPdwm6E6hFAAAEEEEAAAQQQiESgIDOS7z8eE0m3tOlQgGDBIW6US0+WM5Lfv/CLKHunaQQQQAABBBBAAAEEwhB4NgkURiS/Ma0tjHKpUrsAwYL2CYVa3ySZkvxtalyo5VM3AggggAACCCCAAAImBWploIyVxSZ7oylvAgQL3ugj2LgtyUAnJx9P2SZbRNAtLSKAAAIIIIAAAgggoFWgLTmTj5Jz5ZdaC6SusAUIFsKeXxjVXyPbSLW8lBRbF0bBVIkAAggggAACCCCAgBGBgkxLfuyB7yQ2Mk6tbRAsaJ2MxbqmyJHSIvdabI2eEEAAAQQQQAABBBBQJrAi+Z/1Bia/mrFRWV2UY1CAYMHgUNW3dJ3ckfyQxPHq66RABBBAAAEEEEAAAQTCE2hMvlv4czJe3gqvdCoOVYBgIdTJhV73rUl+ulReTtrYMvRWqB8BBBBAAAEEEEAAARUCBflq8mMP16iohSKiEiBYiGrcCpudJgOkSRYprIySEEAAAQQQQAABBBAIQ6AgT8kE2ZOPjwxjXBarJFiwONUQe5oi5yS/f+G6EEunZgQQQAABBBBAAAEEvAi0ycLkj6FyibR62Z9NEfi7AMECj4IugUkyPfkonLN0FUU1CCCAAAIIIIAAAggoEigkJ+ZW2S/5+MjHFVVFKRELECxEPHy1rV8iVTJYPkjq66W2RgpDAAEEEEAAAQQQQMCHQEH+O/k9Ct/1sTV7ItCRAMECz4ZegWuSX+xYLX9OCqzXWySVIYAAAggggAACCCCQi8ALyQ8P75LLTmyCQIkCBAslgnG5B4GpyY9GNCc/IsEXAggggAACCCCAAALxCTQkZ+Ftks97mBtf63QcigDBQiiTok6RSfJo8tNk+0GBAAIIIIAAAggggEAUAlWyY/JpDy9F0StNBi1AsBD0+CIsfqLUJh+j82oSMGwRYfe0jAACCCCAAAIIIPD/27sXYEur6k7g69x+ICJIAyqgTIxEIRpUHAejRoRUMBnHTJWTCTGgPJu2kRGUwaEsnaRTmimjMVDKo8+5PNIE4tgk1qSSaExU0BjLRygRUEcGEQkPjUArT/t176zbjCNIP27fPo9v7/071rXKvufsvf6//dl9e/X37d2GwJp87OGkNqJKWYOAxkINq9hihn4clrGvz6+pFuPLTIAAAQIECBAgUKXAdzLVIdlU2FhlOqGqFdBYqHZpGwk2HafmUTuXNJJWTAIECBAgQIAAgToFNsX62DfOjPvrjCdV7QIaC7WvcCv5BvGxfDzi9a3ElZMAAQIECBAgQKASgV62E1bEhytJI0ajAhoLjS58lbEvjT1zx9zbMts+VeYTigABAgQIECBAoB6BXvyvbCj4h7F6VrTpJBoLTS9/peGn41n5eMTc82mLK00oFgECBAgQIECAQLkC67KhsG9uSD5bbgSVE3i8gMaCK6JegUGcm79dv6/egJIRIECAAAECBAgUJLA5mwkvz6bCVwqqWakE5iWgsTAvJm8qWKAXq+MT+Zv4rxecQekECBAgQIAAAQJlC5ydJz2cV3YE1RPYtoDGgqujDYFr8rGIm+NfM+yyNgJLSYAAAQIECBAg0AGB67OhcHgH6lACgZEKaCyMlNfgnRO4KF4Vi+LarGuqc7UpiAABAgQIECBAoBaBH8WT4uA4Me6tJZAcBLYnoLHg+mhToB9vz+B/0mZ4qQkQIECAAAECBEYmMJX7KJwWXxzZ+AYm0EEBjYUOLoqSxijQj+tytpeMcUZTESBAgAABAgQI1CjQiz/NjRlPrjGaTAR2JKCxsCMh369f4JLYJzbHbRl0z/rDSkiAAAECBAgQIDBkga/H8+LFcXRsGvK4hiNQjIDGQjFLpdCRC1wSR2SD4Usjn8cEBAgQIECAAAECNQjM5q5dB+RjD9+vIYwMBHZFQGNhV/R8tk6BflyQwc6oM5xUBAgQIECAAAECuyzQi1PzsYfLdnkcAxCoREBjoZKFFGPIAmvz7Ih1WzbdeemQRzYcAQIECBAgQIBAqQK9uCIbCieWWr66CYxKQGNhVLLGrUOgH0/NIPfll+Mp61hRKQgQIECAAAECCxF4OJblf46NDQv5sM8QqF1AY6H2FZZvOALT8Z9iNv4iv/x/ZjiiRiFAgAABAgQIlCCwOYs8PN4cN5ZQrBoJTErAX5ImJW/eMgUG8eFsLvyXMotXNQECBAgQIECAwE4InJUNhQ/txPu9lUCzAhoLzS694AsWWLVl/9978vPLFjyGDxIgQIAAAQIECHRV4OvZUDgsi5vtaoHqItA1AY2Frq2IesoRuCwOio1xcxb8pHKKVikBAgQIECBAgMA2BO6JxfGcPO/hAUIECOycgMbCznl5N4EnCgzi+OxnX4mGAAECBAgQIECgUIGpODpOi2sLrV7ZBCYuoLEw8SVQQDUC/fhkZnlNNXkEIUCAAAECBAjUL3BBPvbw1vpjSkhgtAIaC6P1NXprAmtjaayLb2XsZ7cWXV4CBAgQIECAQDECs/HP8b14WayKmWJqViiBDgtoLHR4cZRWsEA/N/zpxdccT1nwGiqdAAECBAgQqFFgJpbkPwCdEv9SYziZCExKQGNhUvLmbUOgH6dn0IvaCCslAQIECBAgQKDDArPxH2JlfLzDFSqNQLECGgvFLp3CixJYHX+ddzC8rqiaFUuAAAECBAgQqEGgF1fEijixhigyEOiqgMZCV1dGXfUJnBd7x5O33Hb3lPrCSUSAAAECBAgQ6JzAutg9jwc/IR7qXGUKIlCZgMZCZQsqTgEC/Tg0q/x6fk0VUK0SCRAgQIAAAQKlCWyMTfFv4ozcntGLAIGxCGgsjIXZJAS2IjCI38vNHf+ADQECBAgQIECAwJAEpuLtcVqcP6TRDEOAwDwFNBbmCeVtBEYisDYW5fGU1+XYLxrJ+AYlQIAAAQIECLQg0MtNGe+K33R8ZAuLLWMXBTQWurgqampPYG0+Abhuy+16e7UXXmICBAgQIECAwAIFenFf3qGwX26SPbvAEXyMAIEhCGgsDAHREASGJjCIX88/Fv9uaOMZiAABAgQIECBQq8BUHJ1NhWtrjScXgZIENBZKWi21tiMwHe+NmXhXO4ElJUCAAAECBAjMU6AX78jjI/94nu/2NgIExiCgsTAGZFMQWLDAIL6ZdzDMnSLhRYAAAQIECBBoW6CXPxetiOe3jSA9gW4KaCx0c11UReCnAhfm+ctL4pZsMCzFQoAAAQIECBBoUODhWB+HxJlxR4PZRSZQhIDGQhHLpEgCKdDP5wgjPsOCAAECBAgQINCMwFS8NPdRmDtBy4sAgQ4LaCx0eHGURmCrAoP4WN698Ho6BAgQIECAAIFqBXrxkXzs4bhq8wlGoDIBjYXKFlScRgT+JI+n3CNuyrTPaSSxmAQIECBAgEAbAjfF3fFvY1VsaCOulATqENBYqGMdpWhV4MLYPxbnH79eBAgQIECAAIHSBdbHU3MfhftLj6F+Ai0KaCy0uOoy1ycwiLPy8Yjz6wsmEQECBAgQIFC1QC9/gpmK02N57iblRYBAsQIaC8UuncIJ/IzAbPRiEB/NX/1tNgQIECBAgACBAgTWxJvjpALqVCIBAjsQ0FhwiRCoTWBVPhxxYPw4+/+LaosmDwECBAgQIFCFwEw+yLlb7qOwqYo0QhAgkP/C6UWAQJ0Cl+bxTJvjy9lg8P/zOldYKgIECBAgUJrA+nzs4Yg8PvKG0gpXLwEC2xfwFw5XCIHaBVbH2dla+GDtMeUjQIAAAQIEOi3wlnzs4eJOV6g4AgQWLKCxsGA6HyRQmEA/vp8VP72wqpVLgAABAgQIlC1wczYUDik7guoJENiRgMbCjoR8n0BNAhfFstyB4ZZ8PGKfmmLJQoAAAQIECHRO4J5YH8/K4yPXd64yBREgMHQBjYWhkxqQQAECF8dR+YzjNQVUqkQCBAgQIECgNIGpODL3UfjH0spWLwECCxfQWFi4nU8SKF9gEJfm3QunlB9EAgIECBAgQGDiAr24KFbEGROvQwEECIxdQGNh7OQmJNAxgVV578IB8c9Z1eEdq0w5BAgQIECAQAkCvbguGwovLaFUNRIgMBoBjYXRuBqVQHkCl8VBsTFuL69wFRMgQIAAAQITEtgYm+LgvEfhXyY0v2kJEOiIgMZCRxZCGQQ6IzAdr42Z+Jusx+8PnVkUhRAgQIAAgU4JzOajlK+NlfF3napKMQQITEzAXxwmRm9iAh0XGMSa/KHhhI5XqTwCBAgQIEBgvAJr8vjIk8Y7pdkIEOi6gMZC11dIfQQmKXBF7BGPbLm9cdkkyzA3AQIECBAgMHGBu+OhfOzh7PzJwIsAAQI/I6Cx4JIgQGDHAtPxjHw8Ym7/haU7frN3ECBAgAABAtUI9GLDlm2el8d91WQShACBoQtoLAyd1IAEKhbox9sy3XkVJxSNAAECBAgQ+InAVLw9TovzgRAgQGBHAhoLOxLyfQIEHi/w6PGUn8hffA0aAgQIECBAoEqBT+U+CsdUmUwoAgRGIqCxMBJWgxJoRGAQ/5obPD6tkbRiEiBAgACB2gXuy12Vnh7Hxubag8pHgMBwBTQWhutpNALtCayOI/Ngys+2F1xiAgQIECBQjcBM3o94TD728JlqEglCgMBYBTQWxsptMgIVCwzi3Lx74X0VJxSNAAECBAjUJzAV78qGwv+oL5hEBAiMU0BjYZza5iLQgkA/bsyYv9RCVBkJECBAgEDBAtfnPgqHF1y/0gkQ6JCAxkKHFkMpBKoRuDz2z8Opbs48e1aTSRACBAgQIFCDQC8eyB0UfiFOz32SvAgQIDAkAY2FIUEahgCBrQhcHodlg+EGNgQIECBAgEAHBHrxylgRX+hAJUogQKAyAY2FyhZUHAKdFJiONTETJ3SyNkURIECAAIHaBWbjqlgZb6w9pnwECExOQGNhcvZmJtCWwKpYHAfEVzO0/RfaWnlpCRAgQGBSAr24JfaOF+TxkRsmVYJ5CRBoQ0BjoY11lpJAdwSuiD3ikXiwOwWphAABAgQIVCiwKPaN5XFfhclEIkCggwIaCx1cFCURaEKgn3tR9+LiPKLS70NNLLiQBAgQIDAmgbfmn7AXjGku0xAgQGCLgB/oXQgECExWoB9XZAFvmmwRZidAgAABAsULXJ0NhWOLTyEAAQJFCmgsFLlsiiZQoUB/y/OfSypMJhIBAgQIEBilwPo86WH3/OfC2VFOYmwCBAhsT0BjwfVBgEB3BFbHi/IHoy9nQUu7U5RKCBAgQIBAJwU2x6J4Re6jMPfnphcBAgQmKqCxMFF+kxMgsFWBfpyRv+75UJcHAQIECBDYusDZ+djDeXAIECDQFQGNha6shDoIEHiiQD9uzF90PKVrgwABAgQIzAnMHR+5Ip4LgwABAl0T0Fjo2oqohwCBxwuszedGfxjfzSdHn4aGAAECBAg0KnB/bI5nx1tiXaP5xSZAoOMCGgsdXyDlESDw/wSm41UxE5/jQYAAAQIEGhP41Xzs4ZrGMotLgEBhAhoLhS2Ycgk0L7A6LsxbQd/SvAMAAgQIEKhbYDauipXxxrpDSkeAQC0CGgu1rKQcBFoSmM3WwiC+lJH/XUuxZSVAgACBJgS+GnfHEbEqNjWRVkgCBKoQ0FioYhmFINCowIVxUB61dWu2GRY3KiA2AQIECNQl8HP52MPtdUWShgCBFgQ0FlpYZRkJ1C6wOn4zmwt/lTH9nlb7WstHgACBGgWWxHFxSnykxmgyESDQhoAfwttYZykJtCHQjysy6JvaCCslAQIECFQg8Gd5h8IJFeQQgQCBxgU0Fhq/AMQnUJ3A3PGU67bcRrpfddkEIkCAAIFaBB7MIM/IpsLDtQSSgwCBtgU0Ftpef+kJ1CtwcTwzpuI7GXBJvSElI0CAAIHCBDbm3kDPj+VxS2F1K5cAAQLbFdBYcIEQIFC3QD/elgHPqzukdAQIECBQgMDb8w6F8wuoU4kECBDYaQGNhZ0m8wECBIoTePR4yk9n3UcXV7uCCRAgQKBsgV58JfaOl8exsbnsIKonQIDAtgU0FlwdBAi0I/Ch2C3/c0cGtv9CO6suKQECBCYlcG+sz8fyzsz/9iJAgEDlAhoLlS+weAQIbEXg0rxzYVN8hg0BAgQIEBiJwGz8WqzccqecFwECBJoQ0FhoYpmFJEBgqwKDeE/MxrvpECBAgACBIQm8J/dR+L0hjWUYAgQIFCOgsVDMUimUAIGRCfTj+hz7RSMb38AECBAgULvA17Kh8OLaQ8pHgACBbQloLLg2CBAgMCdwaRyYj0fMHU+5FAgBAgQIEJinwOY82vi5cdqWPz+8CBAg0KyAxkKzSy84AQJbFejHr+Sv/yMdAgQIECCwXYGlcWSc7M8LVwkBAgTmBDQWXAcECBDYmsDquDJ/hzweDgECBAgQ+BmBq/Oxh2OpECBAgMBPBTQWXA0ECBDYlsDa2D3Wxf/Jbz8TEgECBAg0L/DtWBaHZUvhkeYlABAgQOBnBDQWXBIECBDYkcCfx37xQPxgR2/zfQIECBCoVGBZ7JYNhQ2VphOLAAECuyygsbDLhAYgQKAZgel4W8zEec3kFZQAAQIEzsrHHj6EgQABAgS2L6Cx4AohQIDAzgjM5s4L0/GXMRuv35mPeS8BAgQIFCXwl7Eifjt/x58tqmrFEiBAYEICGgsTgjctAQKFC6zKA8YOzOdsZx1PWfhKKp8AAQKPFdiYdyg4dtg1QYAAgZ0U0FjYSTBvJ0CAwOMEpuOXs7nwhfzy+6lLgwABAuUKbMpH3Y6K0+Ofyo2gcgIECExOwA/Ck7M3MwECNQkM4pxsLnygpkiyECBAoAmB2TgzVsaHm8gqJAECBEYkoLEwIljDEiDQqMAgvpMNhmc3ml5sAgQIlCRwaz72cHBJBauVAAECXRXQWOjqyqiLAIFyBS6M/WNJ3JwNhj3LDaFyAgQIVCtwbzwlnhvHx7pqEwpGgACBMQtoLIwZ3HQECDQkMIhXZ3Ph2oYSi0qAAIFuC/TilXnawxe6XaTqCBAgUJ6AxkJ5a6ZiAgRKExjExxxPWdqiqZcAgaoEevFn2VA4oapMwhAgQKBDAhoLHVoMpRAgULFAPx+OiLguvw6rOKVoBAgQ6JrAjbmPwgu7VpR6CBAgUJuAxkJtKyoPAQLdFrg0DoxNcWe3i1QdAQIEiheYzeMjD8rjI/1+W/xSCkCAQAkCGgslrJIaCRCoT+DSOCkbDJfXF0wiAgQITFRgNhbFcbE8/udEqzA5AQIEGhPQWGhswcUlQKBjAv34SFb0ho5VpRwCBAiUKHBlPvbwphILVzMBAgRKF9BYKH0F1U+AQPkCV8Qe8Ujcn0Gmyg8jAQECBMYuMHds5LOyqfDw2Gc2IQECBAhsEdBYcCEQIECgKwL9ODRLuSG/5jZ69CJAgACB7QtsyHbswXFa3AGKAAECBCYroLEwWX+zEyBA4IkCgzgnj6f8ABoCBAgQ2KbA2XmHwnl8CBAgQKAbAhoL3VgHVRAgQODxAmtz+7F1W46nfBEaAgQIEPj/Al+KFfHyvOd2lgkBAgQIdEdAY6E7a6ESAgQIPFFgbSzNBsPccWn74SFAgEDDAvdk9gPzLoWNDRuIToAAgc4KaCx0dmkURoAAgccITMcxeSb73zMhQIBAUwJzdyb04tdyH4XPNJVbWAIECBQmoLFQ2IIplwCBxgUGcX7+mH1W4wriEyDQgkAv3p+PPZzbQlQZCRAgULqAxkLpK6h+AgTaFOjHTRn8BW2Gl5oAgcoFbu3eVPIAAA7tSURBVMhHHuwvU/kii0eAQF0CGgt1rac0BAi0JHBRPCe3ePxWRl7cUmxZCRCoVuCR2D2P3T0hbq82oWAECBCoVEBjodKFFYsAgYYEVseR+QzyZxtKLCoBArUJLM2THk6OL9YWSx4CBAi0IqCx0MpKy0mAQP0Cg/iL3H/ht+oPKiEBAtUI9OIjuY/CcdXkEYQAAQKNCmgsNLrwYhMgUKlAP56cdy98IxsMP1dpQrEIEKhD4LZYFofEsbGhjjhSECBAoG0BjYW21196AgRqFbgmnhQ3x0MZb6rWiHIRIFCkwGzuDbNfLI/7iqxe0QQIECCwVQGNBRcGAQIEahaYjnfETB7Z5kWAAIHJC5yTpz18cPJlqIAAAQIEhi2gsTBsUeMRIECgiwKD+Kt8POI/drE0NREgULlALz6e+yi8LlPOVp5UPAIECDQroLHQ7NILToBAkwL9eDhz795kdqEJEBi3wIPZUHhq7vsyM+6JzUeAAAEC4xXQWBivt9kIECAweYFHj6f8dBayePLFqIAAgQoFZnIfhaNzH4XPVZhNJAIECBDYioDGgsuCAAECrQoM4py8MfkDrcaXmwCBEQhMxTvjtHjfCEY2JAECBAh0WEBjocOLozQCBAiMRWCw5XjKXxzLXCYhQKBOgV58Mx97eH6d4aQiQIAAgR0JaCzsSMj3CRAg0ILAVXmi/INxS0bdp4W4MhIgMDSBh/JQ24PzLoXvD21EAxEgQIBAcQIaC8UtmYIJECAwQoFL4pWxOT4/whkMTYBALQIzuY/C6XFtLXHkIECAAIGFC2gsLNzOJwkQIFCvQD/+NMOdWG9AyQgQWLBAL9bmYw+/s+DP+yABAgQIVCegsVDdkgpEgACBIQnM5tkRg7guRzt8SCMahgCBsgVuyvJfEm+OjWXHUD0BAgQIDFtAY2HYosYjQIBAbQKXx/6xIe7MWFO1RZOHAIF5CkzFQbmPwh3zfLe3ESBAgEBjAhoLjS24uAQIEFiwwCDekKdH/Hl+3p8dC0b0QQLFCazMOxT6xVWtYAIECBAYq4AfDsfKbTICBAhUIDCINdlgOKGCJCIQILBtgY9mQ+F389uzkAgQIECAwI4ENBZ2JOT7BAgQIPBEgcvjSfl4xN35jb3xECBQlcD6TLNPNhUeriqVMAQIECAwUgGNhZHyGpwAAQKVC1yYz10vjlsy5dLKk4pHoG6BXh40G/HSPO3h+rqDSkeAAAECoxDQWBiFqjEJECDQmsAg3po3TH+otdjyEqhE4Jy8Q+GDlWQRgwABAgQmIKCxMAF0UxIgQKBSgbnjKT+fDYZXVJpPLAJ1CfTi23FXPC9WxUxdwaQhQIAAgXELaCyMW9x8BAgQqF3g0f0Xbs+YT6s9qnwEChW4J9bHwXFm3F9o/comQIAAgY4JaCx0bEGUQ4AAgWoELotXx6a4Ju9g8GdNNYsqSPECvTgm91H4VPE5BCBAgACBTgn4Ya9Ty6EYAgQIVCgwHe/KG63fW2EykQiUI9CLi7KhcEY5BauUAAECBEoS0FgoabXUSoAAgZIF+vHFLP9lJUdQO4ECBW7IhsKL876h2QJrVzIBAgQIFCKgsVDIQimTAAECVQhcHM+MRXk85Wzuw+BFgMCoBX4hT3v49qgnMT4BAgQIENBYcA0QIECAwPgFpuNV+XjE58Y/sRkJNCBgH4UGFllEAgQIdEtAY6Fb66EaAgQItCXQj+kMvLyt0NISGJnAR/MOhTeMbHQDEyBAgACBbQhoLLg0CBAgQGCyAmtjaayLb2YRz5lsIWYnUKhAL36QjxgdHKfGA4UmUDYBAgQIFC6gsVD4AiqfAAEC1QhcGXvFQ3FP5llSTSZBCIxWYFPuVrJ/nBj3jnYaoxMgQIAAge0LaCy4QggQIECgWwLTcULuv7CmW0WphkDnBM7Nxx7e37mqFESAAAECTQpoLDS57EITIECgAIFBXJqnR5xSQKVKJDA+gV58Mu6K18aqbL95ESBAgACBjghoLHRkIZRBgAABAlsRmI1eDOJ7+Z2n8yHQuMADeYfCXo0biE+AAAECHRXQWOjowiiLAAECBB4j0I9D83/dmF+LuRBoTGA279w5JlbGpxvLLS4BAgQIFCSgsVDQYimVAAECzQsM4vj8S9aVzTsAaEXgnXmXwvtaCSsnAQIECJQroLFQ7tqpnAABAu0KDOKabDAc1S6A5JUL3JYNhZ+vPKN4BAgQIFCRgMZCRYspCgECBJoSWBtPiXXx7cxs/4WmFr7qsA/m8ZGH5vGRd1adUjgCBAgQqE5AY6G6JRWIAAECjQlcGL+YOy98o7HU4tYm0IsjYkV8pbZY8hAgQIBAGwIaC22ss5QECBCoX2B1vDvPkHhP/UElrEzg6nzs4djKMolDgAABAo0JaCw0tuDiEiBAoGqBueMpp+Nvc/+Ff191TuFqEPhGLIsXZkthcw1hZCBAgACBtgU0Ftpef+kJECBQp8CFuf/C4tyBwfGUda5v6amW5L4gp8QPSo+hfgIECBAg8BMBjQXXAgECBAjUKzCIV+TdC5/PgP68q3eVS0p2dj72cF5JBauVAAECBAjMR8APWvNR8h4CBAgQKFugH6sywO+XHUL1xQr04trcmPHoYutXOAECBAgQ2IGAxoJLhAABAgTaEFgVU3HAluMpn91GYCk7IDATe+ROCm+M+ztQixIIECBAgMDIBDQWRkZrYAIECBDopMAFsW8siVuztr06WZ+iahFYmY899GsJIwcBAgQIENiegMaC64MAAQIE2hQY5MkRs/HxNsNLPTKBXvx9PvbwGzn+7MjmMDABAgQIEOiYgMZCxxZEOQQIECAwZoHp/FflmfyroBeBXROYiaX54MPJ8eNdG8anCRAgQIBAeQIaC+WtmYoJECBAYNgCc/svHBhfzX9jfuGwhzZeAwK93EVhRVzVQFIRCRAgQIDAVgU0FlwYBAgQIEDgJwKX58aOG+OWbDAsgkJgHgJrch+Fk/N9HnuYB5a3ECBAgEC9AhoL9a6tZAQIECCwUIFL8hn5zfGJhX7c56oXmMmGguZT9cssIAECBAjMV0BjYb5S3keAAAEC7QkM4sr8t+jj2wsu8TYFenFUPvbwWUIECBAgQIDATwU0FlwNBAgQIEBgewL9eHL04rZsMDwNVNMCq/IuhT9oWkB4AgQIECCwDQGNBZcGAQIECBCYj8Ca2Df3+/9+vtUt8PPxquc9P8qGwt71xJGEAAECBAgMX0BjYfimRiRAgACBmgUG8Za8e+HCmiPKlgK9eCjPCnlBLI/v8iBAgAABAgS2L6Cx4AohQIAAAQI7K/Do8ZRz+y/87s5+1PuLEHhd3qXwt0VUqkgCBAgQINABAY2FDiyCEggQIECgUIHZ/HftQdyb1S8rNIGyHyvQi3/KjRl/BQoBAgQIECCwcwIaCzvn5d0ECBAgQOCJApfHYbEhrs9vTOEpUKCXjzvsHc+LY3MVvQgQIECAAIGdFtBY2GkyHyBAgAABAtsQ6Mdx+Z2r+BQksDgOjVPjWwVVrFQCBAgQINA5AY2Fzi2JgggQIECgeIF+fDYzHFl8jroDvDv3UfjDuiNKR4AAAQIExiOgsTAeZ7MQIECAQGsCV8Qe8UjcnLEPbC16p/POxidjZfxGp2tUHAECBAgQKExAY6GwBVMuAQIECBQmsDqem1s8zjUYvCYrsCGWxjPi5PjhZMswOwECBAgQqE9AY6G+NZWIAAECBLoo0I//mmX9cRdLq7ymjbEoXhLL46bKc4pHgAABAgQmJqCxMDF6ExMgQIBAcwJzx1NOx9UxG7/VXPZJBF4U52ZD4f2TmNqcBAgQIECgJQGNhZZWW1YCBAgQ6IZAP56chdyXX7t1o6DKqujF5+OueHWsipnKkolDgAABAgQ6KaCx0MllURQBAgQINCFwWTw/NsaNmXWqibyjD/m9POnhgNFPYwYCBAgQIEDgsQIaC64HAgQIECAwaYFBnJWPR5w/6TKKnn8mXhanx5eLzqB4AgQIECBQqIDGQqELp2wCBAgQqExgVd61cGDckA2GF1SWbLRxZuKN2VC4arSTGJ0AAQIECBDYnoDGguuDAAECBAh0SeDR/Rduza9ndKmsztXSi3+IFfGaztWlIAIECBAg0KCAxkKDiy4yAQIECBQgcHEckfcwfKmASsdd4ndjU/xSnBEPjnti8xEgQIAAAQJbF9BYcGUQIECAAIEuC0zH2/Jsg/O6XOLYatsUe2oojE3bRAQIECBAYN4CGgvzpvJGAgQIECAwQYFBXJP7Lxw1wQomN/WiOCmWx5rJFWBmAgQIECBAYHsCGguuDwIECBAgUIrAJbFPbI7bs9w9Sil5l+rsxftzH4Vzd2kMHyZAgAABAgRGLqCxMHJiExAgQIAAgSELTMfP5+MRcxs81vnqxV3ZUHhmneGkIkCAAAEC9QloLNS3phIRIECAQCsC0/HebDC8q6K4d8bucUicEA9VlEkUAgQIECBQvYDGQvVLLCABAgQIVC2wNhbFD+Nzuf/CKwrOOROL4yVxanyt4AxKJ0CAAAECzQpoLDS79IITIECAQFUC/ViSeR7Ir92KyrUojs2NGa8uqmbFEiBAgAABAo8T0FhwQRAgQIAAgZoELo5fzXsYPpV3MHT7z/herM59FE6viV4WAgQIECDQqkC3f+hodVXkJkCAAAECuyrQj/+WQ/zRrg4zgs9/Ie6OV8Wq3B3CiwABAgQIEKhCQGOhimUUggABAgQIbEOgH/87v3NIB3weyDsUnpr3Ucx2oBYlECBAgAABAkMU0FgYIqahCBAgQIBAJwUuiH1zc8Rb8y/1e02gvh/nvC/PpsL1E5jblAQIECBAgMAYBDQWxoBsCgIECBAg0AmBfhyadXw9v6bGUs+ieFluzPjlscxlEgIECBAgQGBiAhoLE6M3MQECBAgQmJDA2lga6+LOnH2/EVTwoxz9l+PkLY9geBEgQIAAAQINCGgsNLDIIhIgQIAAgW0K9OMd+b135teyXVDanJ/9o9yU8fdzU8ZNuzCOjxIgQIAAAQIFCmgsFLhoSiZAgAABAiMRuCwOio3xn3Ps/76DRsP6fJjigtw7YXXckXs3OOFhJMthUAIECBAgUIrA/wWYW+qrJK2b9wAAAABJRU5ErkJggg==;fontSize=13;" vertex="1" parent="1">
          <mxGeometry x="820.49" width="26.76" height="30.7" as="geometry" />
        </mxCell>
        <mxCell id="l2tFHLuRy4FP07dyS6jG-52" style="edgeStyle=orthogonalEdgeStyle;rounded=0;orthogonalLoop=1;jettySize=auto;html=1;entryX=0.488;entryY=0.005;entryDx=0;entryDy=0;entryPerimeter=0;fontSize=13;" edge="1" parent="1" source="l2tFHLuRy4FP07dyS6jG-51" target="AcxdMaKK0mU5kZiv2lnr-36">
          <mxGeometry relative="1" as="geometry" />
        </mxCell>
        <mxCell id="l2tFHLuRy4FP07dyS6jG-53" value="&lt;div style=&quot;font-size: 13px;&quot;&gt;Nginx&lt;/div&gt;&lt;div style=&quot;font-size: 13px;&quot;&gt;&lt;br style=&quot;font-size: 13px;&quot;&gt;&lt;/div&gt;" style="text;html=1;align=center;verticalAlign=middle;resizable=0;points=[];autosize=1;strokeColor=none;fillColor=none;fontSize=13;" vertex="1" parent="1">
          <mxGeometry x="808.87" y="-21" width="50" height="40" as="geometry" />
        </mxCell>
        <mxCell id="l2tFHLuRy4FP07dyS6jG-56" style="edgeStyle=orthogonalEdgeStyle;rounded=0;orthogonalLoop=1;jettySize=auto;html=1;entryX=0;entryY=0.5;entryDx=0;entryDy=0;exitX=0.986;exitY=0.506;exitDx=0;exitDy=0;exitPerimeter=0;fontSize=13;" edge="1" parent="1" source="l2tFHLuRy4FP07dyS6jG-11" target="l2tFHLuRy4FP07dyS6jG-10">
          <mxGeometry relative="1" as="geometry" />
        </mxCell>
        <mxCell id="l2tFHLuRy4FP07dyS6jG-27" value="4" style="ellipse;whiteSpace=wrap;html=1;aspect=fixed;fillColor=#4D9900;strokeColor=none;labelBackgroundColor=none;fontSize=13;" vertex="1" parent="1">
          <mxGeometry x="462" y="61" width="23" height="23" as="geometry" />
        </mxCell>
        <mxCell id="l2tFHLuRy4FP07dyS6jG-58" value="" style="image;aspect=fixed;html=1;points=[];align=center;fontSize=13;image=img/lib/azure2/networking/Public_IP_Prefixes.svg;" vertex="1" parent="1">
          <mxGeometry x="710" y="61.62" width="36.49" height="28.38" as="geometry" />
        </mxCell>
        <mxCell id="l2tFHLuRy4FP07dyS6jG-59" value="&lt;div style=&quot;font-size: 13px;&quot;&gt;Public IP&lt;/div&gt;&lt;div style=&quot;font-size: 13px;&quot;&gt;Prefixes&lt;br style=&quot;font-size: 13px;&quot;&gt;&lt;/div&gt;" style="text;html=1;align=center;verticalAlign=middle;resizable=0;points=[];autosize=1;strokeColor=none;fillColor=none;fontSize=13;" vertex="1" parent="1">
          <mxGeometry x="700" y="88" width="70" height="40" as="geometry" />
        </mxCell>
        <mxCell id="l2tFHLuRy4FP07dyS6jG-60" value="7" style="ellipse;whiteSpace=wrap;html=1;aspect=fixed;fillColor=#4D9900;strokeColor=none;labelBackgroundColor=none;fontSize=13;" vertex="1" parent="1">
          <mxGeometry x="770" y="61.00000000000001" width="23" height="23" as="geometry" />
        </mxCell>
        <mxCell id="l2tFHLuRy4FP07dyS6jG-61" value="" style="edgeStyle=orthogonalEdgeStyle;rounded=0;orthogonalLoop=1;jettySize=auto;html=1;entryX=-0.043;entryY=0.495;entryDx=0;entryDy=0;entryPerimeter=0;fontSize=13;" edge="1" parent="1" source="l2tFHLuRy4FP07dyS6jG-21" target="l2tFHLuRy4FP07dyS6jG-44">
          <mxGeometry relative="1" as="geometry">
            <mxPoint x="647" y="73" as="sourcePoint" />
            <mxPoint x="816" y="73" as="targetPoint" />
          </mxGeometry>
        </mxCell>
        <mxCell id="l2tFHLuRy4FP07dyS6jG-44" value="6" style="ellipse;whiteSpace=wrap;html=1;aspect=fixed;fillColor=#4D9900;strokeColor=none;labelBackgroundColor=none;fontSize=13;" vertex="1" parent="1">
          <mxGeometry x="667" y="61.75" width="23" height="23" as="geometry" />
        </mxCell>
        <mxCell id="l2tFHLuRy4FP07dyS6jG-62" value="&lt;div style=&quot;font-size: 20px;&quot;&gt;&lt;font style=&quot;font-size: 20px;&quot;&gt;&lt;b style=&quot;font-size: 20px;&quot;&gt;Virtual Machine Scale Set&lt;/b&gt;&lt;/font&gt;&lt;/div&gt;&lt;div style=&quot;font-size: 20px;&quot;&gt;&lt;font style=&quot;font-size: 20px;&quot;&gt;&lt;b style=&quot;font-size: 20px;&quot;&gt;&lt;font style=&quot;font-size: 20px;&quot;&gt;Infrastructure Deployment&lt;/font&gt;&lt;br style=&quot;font-size: 20px;&quot;&gt;&lt;/b&gt;&lt;/font&gt;&lt;/div&gt;" style="text;html=1;align=center;verticalAlign=middle;resizable=0;points=[];autosize=1;strokeColor=none;fillColor=none;fontSize=20;" vertex="1" parent="1">
          <mxGeometry x="314.44" y="-110" width="270" height="60" as="geometry" />
        </mxCell>
      </root>
    </mxGraphModel>
  </diagram>
  <diagram id="4TsUwOGfW6K5Qm7_Vnef" name="Kubernetes Cluster">
    <mxGraphModel dx="1763" dy="828" grid="1" gridSize="10" guides="1" tooltips="1" connect="1" arrows="1" fold="1" page="1" pageScale="1" pageWidth="850" pageHeight="1100" math="0" shadow="0">
      <root>
        <mxCell id="0" />
        <mxCell id="1" parent="0" />
        <mxCell id="LfWJXmBzsVJHORAQ5zjE-1" value="" style="rounded=1;whiteSpace=wrap;html=1;" vertex="1" parent="1">
          <mxGeometry x="-150" width="881.13" height="280" as="geometry" />
        </mxCell>
        <mxCell id="AWA2amOzvjCkxaZZ2Z2C-1" style="edgeStyle=elbowEdgeStyle;rounded=0;orthogonalLoop=1;jettySize=auto;elbow=vertical;html=1;strokeColor=#808080;entryX=0.01;entryY=0.513;entryDx=0;entryDy=0;entryPerimeter=0;fontSize=13;" edge="1" parent="1" source="AWA2amOzvjCkxaZZ2Z2C-10">
          <mxGeometry relative="1" as="geometry">
            <mxPoint x="425.2663999999999" y="141.05192000000005" as="targetPoint" />
            <Array as="points" />
          </mxGeometry>
        </mxCell>
        <mxCell id="AWA2amOzvjCkxaZZ2Z2C-3" value="" style="image;aspect=fixed;html=1;points=[];align=center;fontSize=13;image=img/lib/azure2/identity/Azure_Active_Directory.svg;" vertex="1" parent="1">
          <mxGeometry x="199.55999999999997" y="122.19" width="40.47" height="37" as="geometry" />
        </mxCell>
        <mxCell id="AWA2amOzvjCkxaZZ2Z2C-4" value="Microsoft Azure" style="text;html=1;align=center;verticalAlign=middle;resizable=0;points=[];autosize=1;strokeColor=none;fillColor=none;fontSize=13;" vertex="1" parent="1">
          <mxGeometry x="164.79" y="150.19" width="110" height="30" as="geometry" />
        </mxCell>
        <mxCell id="AWA2amOzvjCkxaZZ2Z2C-5" value="" style="edgeStyle=elbowEdgeStyle;rounded=0;orthogonalLoop=1;jettySize=auto;elbow=vertical;html=1;strokeColor=#808080;fontSize=13;" edge="1" parent="1">
          <mxGeometry relative="1" as="geometry">
            <mxPoint x="114.8" y="140.19" as="sourcePoint" />
            <mxPoint x="199.55999999999997" y="140.19" as="targetPoint" />
          </mxGeometry>
        </mxCell>
        <mxCell id="AWA2amOzvjCkxaZZ2Z2C-9" value="" style="edgeStyle=elbowEdgeStyle;rounded=0;orthogonalLoop=1;jettySize=auto;elbow=vertical;html=1;strokeColor=#808080;entryX=-0.124;entryY=0.511;entryDx=0;entryDy=0;entryPerimeter=0;fontSize=13;" edge="1" parent="1">
          <mxGeometry relative="1" as="geometry">
            <mxPoint x="244.04" y="140.5" as="sourcePoint" />
            <mxPoint x="309.5598800000001" y="140.87400000000002" as="targetPoint" />
            <Array as="points">
              <mxPoint x="294.04" y="140.5" />
            </Array>
          </mxGeometry>
        </mxCell>
        <mxCell id="AWA2amOzvjCkxaZZ2Z2C-10" value="" style="image;aspect=fixed;html=1;points=[];align=center;fontSize=13;image=img/lib/azure2/general/Resource_Groups.svg;" vertex="1" parent="1">
          <mxGeometry x="309.56" y="121.19" width="36.13" height="34" as="geometry" />
        </mxCell>
        <mxCell id="AWA2amOzvjCkxaZZ2Z2C-11" value="&lt;div style=&quot;font-size: 13px;&quot;&gt;Resource&lt;/div&gt;&lt;div style=&quot;font-size: 13px;&quot;&gt;Group&lt;br style=&quot;font-size: 13px;&quot;&gt;&lt;/div&gt;" style="text;html=1;align=center;verticalAlign=middle;resizable=0;points=[];autosize=1;strokeColor=none;fillColor=none;fontSize=13;" vertex="1" parent="1">
          <mxGeometry x="287.63" y="152.19" width="80" height="40" as="geometry" />
        </mxCell>
        <mxCell id="AWA2amOzvjCkxaZZ2Z2C-12" value="1" style="ellipse;whiteSpace=wrap;html=1;aspect=fixed;fillColor=#4D9900;strokeColor=none;labelBackgroundColor=none;fontSize=13;" vertex="1" parent="1">
          <mxGeometry x="141.78999999999996" y="129.19" width="23" height="23" as="geometry" />
        </mxCell>
        <mxCell id="AWA2amOzvjCkxaZZ2Z2C-13" value="2" style="ellipse;whiteSpace=wrap;html=1;aspect=fixed;fillColor=#4D9900;strokeColor=none;labelBackgroundColor=none;fontSize=13;" vertex="1" parent="1">
          <mxGeometry x="262.63" y="129.19" width="23" height="23" as="geometry" />
        </mxCell>
        <mxCell id="AWA2amOzvjCkxaZZ2Z2C-15" value="3" style="ellipse;whiteSpace=wrap;html=1;aspect=fixed;fillColor=#4D9900;strokeColor=none;labelBackgroundColor=none;fontSize=13;" vertex="1" parent="1">
          <mxGeometry x="379.56" y="128.19" width="23" height="23" as="geometry" />
        </mxCell>
        <mxCell id="AWA2amOzvjCkxaZZ2Z2C-21" value="" style="shape=image;verticalLabelPosition=bottom;labelBackgroundColor=none;verticalAlign=top;aspect=fixed;imageAspect=0;image=data:image/svg+xml,PHN2ZyB4bWxuczpjYz0iaHR0cDovL2NyZWF0aXZlY29tbW9ucy5vcmcvbnMjIiB4bWxuczpkYz0iaHR0cDovL3B1cmwub3JnL2RjL2VsZW1lbnRzLzEuMS8iIHhtbG5zOmlua3NjYXBlPSJodHRwOi8vd3d3Lmlua3NjYXBlLm9yZy9uYW1lc3BhY2VzL2lua3NjYXBlIiB4bWxuczpyZGY9Imh0dHA6Ly93d3cudzMub3JnLzE5OTkvMDIvMjItcmRmLXN5bnRheC1ucyMiIHhtbG5zOnNvZGlwb2RpPSJodHRwOi8vc29kaXBvZGkuc291cmNlZm9yZ2UubmV0L0RURC9zb2RpcG9kaS0wLmR0ZCIgeG1sbnM6c3ZnPSJodHRwOi8vd3d3LnczLm9yZy8yMDAwL3N2ZyIgeG1sbnM9Imh0dHA6Ly93d3cudzMub3JnLzIwMDAvc3ZnIiB4bWxuczp4bGluaz0iaHR0cDovL3d3dy53My5vcmcvMTk5OS94bGluayIgdmVyc2lvbj0iMS4xIiBpZD0ic3ZnNDA4ODAiIGlua3NjYXBlOnZlcnNpb249IjAuOTIuMyAoMjQwNTU0NiwgMjAxOC0wMy0xMSkiIHNvZGlwb2RpOmRvY25hbWU9InRlcnJhZm9ybS5zdmciIHg9IjBweCIgeT0iMHB4IiB2aWV3Qm94PSIwIDAgMzkuNiA0NSIgc3R5bGU9ImVuYWJsZS1iYWNrZ3JvdW5kOm5ldyAwIDAgMzkuNiA0NTsiIHhtbDpzcGFjZT0icHJlc2VydmUiPiYjeGE7PHNvZGlwb2RpOm5hbWVkdmlldyBib3JkZXJjb2xvcj0iIzY2NjY2NiIgYm9yZGVyb3BhY2l0eT0iMSIgZml0LW1hcmdpbi1ib3R0b209IjAiIGZpdC1tYXJnaW4tbGVmdD0iMCIgZml0LW1hcmdpbi1yaWdodD0iMCIgZml0LW1hcmdpbi10b3A9IjAiIGdyaWR0b2xlcmFuY2U9IjEwIiBndWlkZXRvbGVyYW5jZT0iMTAiIGlkPSJuYW1lZHZpZXc0MDg4MiIgaW5rc2NhcGU6Y3VycmVudC1sYXllcj0ic3ZnNDA4ODAiIGlua3NjYXBlOmN4PSIyNi4zOTk5ODYiIGlua3NjYXBlOmN5PSIyOS45OTk5ODUiIGlua3NjYXBlOnBhZ2VvcGFjaXR5PSIwIiBpbmtzY2FwZTpwYWdlc2hhZG93PSIyIiBpbmtzY2FwZTp3aW5kb3ctaGVpZ2h0PSIxMDE3IiBpbmtzY2FwZTp3aW5kb3ctbWF4aW1pemVkPSIxIiBpbmtzY2FwZTp3aW5kb3ctd2lkdGg9IjE5MjAiIGlua3NjYXBlOndpbmRvdy14PSItOCIgaW5rc2NhcGU6d2luZG93LXk9Ii04IiBpbmtzY2FwZTp6b29tPSIxMy45ODM4NzgiIG9iamVjdHRvbGVyYW5jZT0iMTAiIHBhZ2Vjb2xvcj0iI2ZmZmZmZiIgc2hvd2dyaWQ9ImZhbHNlIj4mI3hhOwk8L3NvZGlwb2RpOm5hbWVkdmlldz4mI3hhOzxnIGlkPSJnNDA4NzgiIHRyYW5zZm9ybT0idHJhbnNsYXRlKC0wLjc1LC0wLjc0NzUpIj4mI3hhOwk8dGl0bGUgaWQ9InRpdGxlNDA4NDQiPlBhZ2UtMTwvdGl0bGU+JiN4YTsJPGcgaWQ9Imdyb3VwMTU3MC0xIiB0cmFuc2Zvcm09InRyYW5zbGF0ZSgwLjc1LC0wLjc1KSI+JiN4YTsJCTx0aXRsZSBpZD0idGl0bGU0MDg0NiI+VGVycmFmb3JtPC90aXRsZT4mI3hhOwkJPGcgaWQ9Imdyb3VwMTU3MS0yIj4mI3hhOwkJCTx0aXRsZSBpZD0idGl0bGU0MDg0OCI+TG9nbzwvdGl0bGU+JiN4YTsJCQk8ZyBpZD0ic2hhcGUxNTcyLTMiIHRyYW5zZm9ybT0idHJhbnNsYXRlKDEzLjY1LC0xNS43NjUpIj4mI3hhOwkJCQk8dGl0bGUgaWQ9InRpdGxlNDA4NTAiPnBvbHlnb24zNzA2PC90aXRsZT4mI3hhOwkJCQk8cGF0aCBpZD0icGF0aDQwODUyIiBpbmtzY2FwZTpjb25uZWN0b3ItY3VydmF0dXJlPSIwIiBzdHlsZT0iZmlsbDojNUM0RUU1OyIgZD0iTTEyLjMsNDYuNUwwLDM5LjRWMjUuMTlsMTIuMyw3LjExVjQ2LjV6Ii8+JiN4YTsJCQk8L2c+JiN4YTsJCQk8ZyBpZD0ic2hhcGUxNTczLTUiIHRyYW5zZm9ybT0idHJhbnNsYXRlKDI3LjMsLTE1Ljc2NSkiPiYjeGE7CQkJCTx0aXRsZSBpZD0idGl0bGU0MDg1NSI+cG9seWdvbjM3MDg8L3RpdGxlPiYjeGE7CQkJCTxwYXRoIGlkPSJwYXRoNDA4NTciIGlua3NjYXBlOmNvbm5lY3Rvci1jdXJ2YXR1cmU9IjAiIHN0eWxlPSJmaWxsOiM0MDQwQjI7IiBkPSJNMTIuMywzOS40MVYyNS4xOUwwLDMyLjN2MTQuMkwxMi4zLDM5LjQxeiIvPiYjeGE7CQkJPC9nPiYjeGE7CQkJPGcgaWQ9InNoYXBlMTU3NC03IiB0cmFuc2Zvcm09InRyYW5zbGF0ZSgwLC0yMy42OTI1KSI+JiN4YTsJCQkJPHRpdGxlIGlkPSJ0aXRsZTQwODYwIj5wb2x5Z29uMzcxMDwvdGl0bGU+JiN4YTsJCQkJPHBhdGggaWQ9InBhdGg0MDg2MiIgaW5rc2NhcGU6Y29ubmVjdG9yLWN1cnZhdHVyZT0iMCIgc3R5bGU9ImZpbGw6IzVDNEVFNTsiIGQ9Ik0xMi4zLDQ2LjVWMzIuM0wwLDI1LjE5VjM5LjRMMTIuMyw0Ni41eiIvPiYjeGE7CQkJPC9nPiYjeGE7CQkJPGcgaWQ9InNoYXBlMTU3NS05IiB0cmFuc2Zvcm09InRyYW5zbGF0ZSgxMy42NSkiPiYjeGE7CQkJCTx0aXRsZSBpZD0idGl0bGU0MDg2NSI+cG9seWdvbjM3MTI8L3RpdGxlPiYjeGE7CQkJCTxwYXRoIGlkPSJwYXRoNDA4NjciIGlua3NjYXBlOmNvbm5lY3Rvci1jdXJ2YXR1cmU9IjAiIHN0eWxlPSJmaWxsOiM1QzRFRTU7IiBkPSJNMTIuMywzMi4zOVYzMi4zTDAsMjUuMTlWMzkuNGwxMi4zLDcuMVYzMi4zOXogICAgICAiLz4mI3hhOwkJCTwvZz4mI3hhOwkJCTxnIGlkPSJzaGFwZTE1NzYtMTEiIHRyYW5zZm9ybT0idHJhbnNsYXRlKDM0LjQwMjUsLTkuMzIyNSkiPiYjeGE7CQkJCTx0aXRsZSBpZD0idGl0bGU0MDg3MCI+cGF0aDM3MTQ8L3RpdGxlPiYjeGE7CQkJPC9nPiYjeGE7CQkJPGcgaWQ9InNoYXBlMTU3Ny0xMiIgdHJhbnNmb3JtPSJ0cmFuc2xhdGUoMTMuNjUsLTIxLjMwNzUpIj4mI3hhOwkJCQk8dGl0bGUgaWQ9InRpdGxlNDA4NzMiPnBhdGgzNzE2PC90aXRsZT4mI3hhOwkJCTwvZz4mI3hhOwkJPC9nPiYjeGE7CTwvZz4mI3hhOzwvZz4mI3hhOzwvc3ZnPg==;fontSize=13;" vertex="1" parent="1">
          <mxGeometry x="72.3" y="120" width="35" height="39.38" as="geometry" />
        </mxCell>
        <mxCell id="AWA2amOzvjCkxaZZ2Z2C-36" value="&lt;div style=&quot;font-size: 20px;&quot;&gt;&lt;font style=&quot;font-size: 20px;&quot;&gt;&lt;b style=&quot;font-size: 20px;&quot;&gt;Kubernetes Cluster&lt;br&gt;&lt;/b&gt;&lt;/font&gt;&lt;/div&gt;&lt;div style=&quot;font-size: 20px;&quot;&gt;&lt;font style=&quot;font-size: 20px;&quot;&gt;&lt;b style=&quot;font-size: 20px;&quot;&gt;&lt;font style=&quot;font-size: 20px;&quot;&gt;Infrastructure Deployment&lt;/font&gt;&lt;br style=&quot;font-size: 20px;&quot;&gt;&lt;/b&gt;&lt;/font&gt;&lt;/div&gt;" style="text;html=1;align=center;verticalAlign=middle;resizable=0;points=[];autosize=1;strokeColor=none;fillColor=none;fontSize=20;" vertex="1" parent="1">
          <mxGeometry x="155.56" y="20" width="270" height="60" as="geometry" />
        </mxCell>
        <mxCell id="AWA2amOzvjCkxaZZ2Z2C-37" value="" style="image;aspect=fixed;html=1;points=[];align=center;fontSize=12;image=img/lib/azure2/containers/Kubernetes_Services.svg;" vertex="1" parent="1">
          <mxGeometry x="429.92" y="122.19" width="37.82" height="33.37" as="geometry" />
        </mxCell>
        <mxCell id="AWA2amOzvjCkxaZZ2Z2C-38" value="&lt;div&gt;Azure Kubernetes&lt;/div&gt;&lt;div&gt;Service&lt;br&gt;&lt;/div&gt;" style="text;html=1;align=center;verticalAlign=middle;resizable=0;points=[];autosize=1;strokeColor=none;fillColor=none;" vertex="1" parent="1">
          <mxGeometry x="388.83000000000004" y="150.19" width="120" height="40" as="geometry" />
        </mxCell>
      </root>
    </mxGraphModel>
  </diagram>
</mxfile>
